<?xml version="1.0" encoding="UTF-8" standalone="no"?><svg xmlns="http://www.w3.org/2000/svg" xmlns:xlink="http://www.w3.org/1999/xlink" contentScriptType="application/ecmascript" contentStyleType="text/css" height="1529px" preserveAspectRatio="none" style="width:1552px;height:1529px;" version="1.1" viewBox="0 0 1552 1529" width="1552px" zoomAndPan="magnify"><defs><filter height="300%" id="fljq8vrxfpr0a" width="300%" x="-1" y="-1"><feGaussianBlur result="blurOut" stdDeviation="2.0"/><feColorMatrix in="blurOut" result="blurOut2" type="matrix" values="0 0 0 0 0 0 0 0 0 0 0 0 0 0 0 0 0 0 .4 0"/><feOffset dx="4.0" dy="4.0" in="blurOut2" result="blurOut3"/><feBlend in="SourceGraphic" in2="blurOut3" mode="normal"/></filter></defs><g><ellipse cx="1125.2813" cy="20" fill="#000000" filter="url(#fljq8vrxfpr0a)" rx="10" ry="10" style="stroke: none; stroke-width: 1.0;"/><rect fill="#FEFECE" filter="url(#fljq8vrxfpr0a)" height="33.9688" rx="12.5" ry="12.5" style="stroke: #A80036; stroke-width: 1.5;" width="351" x="949.7813" y="190.8047"/><text fill="#000000" font-family="sans-serif" font-size="12" lengthAdjust="spacingAndGlyphs" textLength="331" x="959.7813" y="211.9434">fetch properties from the MergeRequestEvent object</text><polygon fill="#FEFECE" filter="url(#fljq8vrxfpr0a)" points="1060.7813,244.7734,1189.7813,244.7734,1201.7813,256.7734,1189.7813,268.7734,1060.7813,268.7734,1048.7813,256.7734,1060.7813,244.7734" style="stroke: #A80036; stroke-width: 1.5;"/><text fill="#000000" font-family="sans-serif" font-size="11" lengthAdjust="spacingAndGlyphs" textLength="129" x="1060.7813" y="260.5815">merge-request action?</text><text fill="#000000" font-family="sans-serif" font-size="11" lengthAdjust="spacingAndGlyphs" textLength="39" x="1009.7813" y="254.1792">MERGE</text><text fill="#000000" font-family="sans-serif" font-size="11" lengthAdjust="spacingAndGlyphs" textLength="38" x="1201.7813" y="254.1792">CLOSE</text><rect fill="#FEFECE" filter="url(#fljq8vrxfpr0a)" height="33.9688" rx="12.5" ry="12.5" style="stroke: #A80036; stroke-width: 1.5;" width="331" x="734.0625" y="278.7734"/><text fill="#000000" font-family="sans-serif" font-size="12" lengthAdjust="spacingAndGlyphs" textLength="311" x="744.0625" y="299.9121">try to read nextMainBranch from configuration file</text><polygon fill="#FEFECE" filter="url(#fljq8vrxfpr0a)" points="812.5625,332.7422,986.5625,332.7422,998.5625,344.7422,986.5625,356.7422,812.5625,356.7422,800.5625,344.7422,812.5625,332.7422" style="stroke: #A80036; stroke-width: 1.5;"/><text fill="#000000" font-family="sans-serif" font-size="11" lengthAdjust="spacingAndGlyphs" textLength="174" x="812.5625" y="348.5503">nextMainBranch is configured?</text><text fill="#000000" font-family="sans-serif" font-size="11" lengthAdjust="spacingAndGlyphs" textLength="20" x="780.5625" y="342.1479">yes</text><text fill="#000000" font-family="sans-serif" font-size="11" lengthAdjust="spacingAndGlyphs" textLength="14" x="998.5625" y="342.1479">no</text><polygon fill="#FEFECE" filter="url(#fljq8vrxfpr0a)" points="545.625,366.7422,733.625,366.7422,745.625,378.7422,733.625,390.7422,545.625,390.7422,533.625,378.7422,545.625,366.7422" style="stroke: #A80036; stroke-width: 1.5;"/><text fill="#000000" font-family="sans-serif" font-size="11" lengthAdjust="spacingAndGlyphs" textLength="188" x="545.625" y="382.5503">nextMainBranch exists remotely?</text><text fill="#000000" font-family="sans-serif" font-size="11" lengthAdjust="spacingAndGlyphs" textLength="20" x="513.625" y="376.1479">yes</text><text fill="#000000" font-family="sans-serif" font-size="11" lengthAdjust="spacingAndGlyphs" textLength="14" x="745.625" y="376.1479">no</text><rect fill="#FEFECE" filter="url(#fljq8vrxfpr0a)" height="33.9688" rx="12.5" ry="12.5" style="stroke: #A80036; stroke-width: 1.5;" width="257" x="138.75" y="400.7422"/><text fill="#000000" font-family="sans-serif" font-size="12" lengthAdjust="spacingAndGlyphs" textLength="237" x="148.75" y="421.8809">create new branch from targetBranch</text><rect fill="#FEFECE" filter="url(#fljq8vrxfpr0a)" height="33.9688" rx="12.5" ry="12.5" style="stroke: #A80036; stroke-width: 1.5;" width="403" x="65.75" y="469.7109"/><text fill="#000000" font-family="sans-serif" font-size="12" lengthAdjust="spacingAndGlyphs" textLength="383" x="75.75" y="490.8496">create new MR from the new branch into the nextMainBranch</text><rect fill="#FEFECE" filter="url(#fljq8vrxfpr0a)" height="33.9688" rx="12.5" ry="12.5" style="stroke: #A80036; stroke-width: 1.5;" width="406" x="64.25" y="572.082"/><text fill="#000000" font-family="sans-serif" font-size="12" lengthAdjust="spacingAndGlyphs" textLength="386" x="74.25" y="593.2207">approve the just created MR as that user (apiTokenApprover)</text><polygon fill="#FEFECE" filter="url(#fljq8vrxfpr0a)" points="195.25,523.6797,339.25,523.6797,351.25,535.6797,339.25,547.6797,195.25,547.6797,183.25,535.6797,195.25,523.6797" style="stroke: #A80036; stroke-width: 1.5;"/><text fill="#000000" font-family="sans-serif" font-size="11" lengthAdjust="spacingAndGlyphs" textLength="20" x="271.25" y="557.8901">yes</text><text fill="#000000" font-family="sans-serif" font-size="11" lengthAdjust="spacingAndGlyphs" textLength="144" x="195.25" y="539.4878">apiTokenApprover is set?</text><text fill="#000000" font-family="sans-serif" font-size="11" lengthAdjust="spacingAndGlyphs" textLength="14" x="351.25" y="533.0854">no</text><polygon fill="#FEFECE" filter="url(#fljq8vrxfpr0a)" points="267.25,626.0508,279.25,638.0508,267.25,650.0508,255.25,638.0508,267.25,626.0508" style="stroke: #A80036; stroke-width: 1.5;"/><path d="M381.25,666.9023 L381.25,683.0352 L361.25,687.0352 L381.25,691.0352 L381.25,707.168 A0,0 0 0 0 381.25,707.168 L621.25,707.168 A0,0 0 0 0 621.25,707.168 L621.25,676.9023 L611.25,666.9023 L381.25,666.9023 A0,0 0 0 0 381.25,666.9023 " fill="#FBFB77" filter="url(#fljq8vrxfpr0a)" style="stroke: #A80036; stroke-width: 1.0;"/><path d="M611.25,666.9023 L611.25,676.9023 L621.25,676.9023 L611.25,666.9023 " fill="#FBFB77" style="stroke: #A80036; stroke-width: 1.0;"/><text fill="#000000" font-family="sans-serif" font-size="13" lengthAdjust="spacingAndGlyphs" textLength="198" x="387.25" y="683.9692">Timeout to avoid the possibility</text><text fill="#000000" font-family="sans-serif" font-size="13" lengthAdjust="spacingAndGlyphs" textLength="219" x="387.25" y="699.1021">of getting stuck in the loop forever</text><rect fill="#87CEEB" filter="url(#fljq8vrxfpr0a)" height="33.9688" rx="12.5" ry="12.5" style="stroke: #A80036; stroke-width: 1.5;" width="188" x="173.25" y="670.0508"/><text fill="#000000" font-family="sans-serif" font-size="12" lengthAdjust="spacingAndGlyphs" textLength="168" x="183.25" y="691.1895">initialize countDown to 100</text><rect fill="#87CEEB" filter="url(#fljq8vrxfpr0a)" height="33.9688" rx="12.5" ry="12.5" style="stroke: #A80036; stroke-width: 1.5;" width="192" x="171.25" y="782.8784"/><text fill="#000000" font-family="sans-serif" font-size="12" lengthAdjust="spacingAndGlyphs" textLength="172" x="181.25" y="804.0171">decrement countDown by 1</text><path d="M337.25,848.1636 L337.25,856.73 L317.25,860.73 L337.25,864.73 L337.25,873.2964 A0,0 0 0 0 337.25,873.2964 L541.25,873.2964 A0,0 0 0 0 541.25,873.2964 L541.25,858.1636 L531.25,848.1636 L337.25,848.1636 A0,0 0 0 0 337.25,848.1636 " fill="#FBFB77" filter="url(#fljq8vrxfpr0a)" style="stroke: #A80036; stroke-width: 1.0;"/><path d="M531.25,848.1636 L531.25,858.1636 L541.25,858.1636 L531.25,848.1636 " fill="#FBFB77" style="stroke: #A80036; stroke-width: 1.0;"/><text fill="#000000" font-family="sans-serif" font-size="13" lengthAdjust="spacingAndGlyphs" textLength="183" x="343.25" y="865.2305">Wait for Gitlab to prepare MR</text><rect fill="#FEFECE" filter="url(#fljq8vrxfpr0a)" height="33.9688" rx="12.5" ry="12.5" style="stroke: #A80036; stroke-width: 1.5;" width="100" x="217.25" y="843.7456"/><text fill="#000000" font-family="sans-serif" font-size="12" lengthAdjust="spacingAndGlyphs" textLength="80" x="227.25" y="864.8843">sleep 100ms</text><rect fill="#FEFECE" filter="url(#fljq8vrxfpr0a)" height="33.9688" rx="12.5" ry="12.5" style="stroke: #A80036; stroke-width: 1.5;" width="200" x="167.25" y="897.7144"/><text fill="#000000" font-family="sans-serif" font-size="12" lengthAdjust="spacingAndGlyphs" textLength="180" x="177.25" y="918.853">update MRStatus from Gitlab</text><polygon fill="#FEFECE" filter="url(#fljq8vrxfpr0a)" points="111.25,727.168,423.25,727.168,435.25,739.168,423.25,751.168,111.25,751.168,99.25,739.168,111.25,727.168" style="stroke: #A80036; stroke-width: 1.5;"/><text fill="#000000" font-family="sans-serif" font-size="11" lengthAdjust="spacingAndGlyphs" textLength="20" x="271.25" y="761.3784">yes</text><text fill="#000000" font-family="sans-serif" font-size="11" lengthAdjust="spacingAndGlyphs" textLength="312" x="111.25" y="742.9761">MRStatus == unchecked|checking and countdown &gt; 0?</text><text fill="#000000" font-family="sans-serif" font-size="11" lengthAdjust="spacingAndGlyphs" textLength="14" x="85.25" y="736.5737">no</text><polygon fill="#FEFECE" filter="url(#fljq8vrxfpr0a)" points="219.75,973.6831,314.75,973.6831,326.75,985.6831,314.75,997.6831,219.75,997.6831,207.75,985.6831,219.75,973.6831" style="stroke: #A80036; stroke-width: 1.5;"/><text fill="#000000" font-family="sans-serif" font-size="11" lengthAdjust="spacingAndGlyphs" textLength="95" x="219.75" y="989.4912">countDown == 0</text><text fill="#000000" font-family="sans-serif" font-size="11" lengthAdjust="spacingAndGlyphs" textLength="20" x="187.75" y="983.0889">yes</text><text fill="#000000" font-family="sans-serif" font-size="11" lengthAdjust="spacingAndGlyphs" textLength="14" x="326.75" y="983.0889">no</text><rect fill="#FEFECE" filter="url(#fljq8vrxfpr0a)" height="33.9688" rx="12.5" ry="12.5" style="stroke: #A80036; stroke-width: 1.5;" width="51" x="10" y="1007.6831"/><text fill="#000000" font-family="sans-serif" font-size="12" lengthAdjust="spacingAndGlyphs" textLength="31" x="20" y="1028.8218">error</text><polygon fill="#FEFECE" filter="url(#fljq8vrxfpr0a)" points="334,1007.6831,664,1007.6831,676,1019.6831,664,1031.6831,334,1031.6831,322,1019.6831,334,1007.6831" style="stroke: #A80036; stroke-width: 1.5;"/><text fill="#000000" font-family="sans-serif" font-size="11" lengthAdjust="spacingAndGlyphs" textLength="330" x="334" y="1023.4912">Is MRStatus == mergeable|ci_still_running|ci_must_pass?</text><polygon fill="#FEFECE" filter="url(#fljq8vrxfpr0a)" points="241,1054.4878,351,1054.4878,363,1066.4878,351,1078.4878,241,1078.4878,229,1066.4878,241,1054.4878" style="stroke: #A80036; stroke-width: 1.5;"/><text fill="#000000" font-family="sans-serif" font-size="11" lengthAdjust="spacingAndGlyphs" textLength="110" x="241" y="1070.2959">MR has pipeline(s)?</text><text fill="#000000" font-family="sans-serif" font-size="11" lengthAdjust="spacingAndGlyphs" textLength="20" x="209" y="1063.8936">yes</text><text fill="#000000" font-family="sans-serif" font-size="11" lengthAdjust="spacingAndGlyphs" textLength="14" x="363" y="1063.8936">no</text><rect fill="#FEFECE" filter="url(#fljq8vrxfpr0a)" height="33.9688" rx="12.5" ry="12.5" style="stroke: #A80036; stroke-width: 1.5;" width="214" x="91" y="1088.4878"/><text fill="#000000" font-family="sans-serif" font-size="12" lengthAdjust="spacingAndGlyphs" textLength="194" x="101" y="1109.6265">merge when pipeline succeeds</text><rect fill="#FEFECE" filter="url(#fljq8vrxfpr0a)" height="33.9688" rx="12.5" ry="12.5" style="stroke: #A80036; stroke-width: 1.5;" width="138" x="325" y="1088.4878"/><text fill="#000000" font-family="sans-serif" font-size="12" lengthAdjust="spacingAndGlyphs" textLength="118" x="335" y="1109.6265">merge immediately</text><polygon fill="#FEFECE" filter="url(#fljq8vrxfpr0a)" points="296,1128.4565,308,1140.4565,296,1152.4565,284,1140.4565,296,1128.4565" style="stroke: #A80036; stroke-width: 1.5;"/><rect fill="#FEFECE" filter="url(#fljq8vrxfpr0a)" height="33.9688" rx="12.5" ry="12.5" style="stroke: #A80036; stroke-width: 1.5;" width="269" x="570.5" y="1115.2925"/><text fill="#000000" font-family="sans-serif" font-size="12" lengthAdjust="spacingAndGlyphs" textLength="249" x="580.5" y="1136.4312">get user that merged the preceding MR</text><polygon fill="#FEFECE" filter="url(#fljq8vrxfpr0a)" points="674,1054.4878,736,1054.4878,748,1066.4878,736,1078.4878,674,1078.4878,662,1066.4878,674,1054.4878" style="stroke: #A80036; stroke-width: 1.5;"/><text fill="#000000" font-family="sans-serif" font-size="11" lengthAdjust="spacingAndGlyphs" textLength="84" x="709" y="1088.6982">ucascade user</text><text fill="#000000" font-family="sans-serif" font-size="11" lengthAdjust="spacingAndGlyphs" textLength="62" x="674" y="1070.2959">MR merger</text><text fill="#000000" font-family="sans-serif" font-size="11" lengthAdjust="spacingAndGlyphs" textLength="128" x="534" y="1063.8936">not the ucascade user</text><rect fill="#FEFECE" filter="url(#fljq8vrxfpr0a)" height="33.9688" rx="12.5" ry="12.5" style="stroke: #A80036; stroke-width: 1.5;" width="424" x="493" y="1193.2612"/><text fill="#000000" font-family="sans-serif" font-size="12" lengthAdjust="spacingAndGlyphs" textLength="404" x="503" y="1214.3999">update MR to set its assignees to the MR assignees and merger</text><polygon fill="#FEFECE" filter="url(#fljq8vrxfpr0a)" points="499,1237.23,499,1237.23,511,1249.23,499,1261.23,499,1261.23,487,1249.23,499,1237.23" style="stroke: #A80036; stroke-width: 1.5;"/><polygon fill="#FEFECE" filter="url(#fljq8vrxfpr0a)" points="267.25,1267.23,279.25,1279.23,267.25,1291.23,255.25,1279.23,267.25,1267.23" style="stroke: #A80036; stroke-width: 1.5;"/><rect fill="#FF0000" filter="url(#fljq8vrxfpr0a)" height="33.9688" rx="12.5" ry="12.5" style="stroke: #A80036; stroke-width: 1.5;" width="130" x="947" y="400.7422"/><text fill="#000000" font-family="sans-serif" font-size="12" lengthAdjust="spacingAndGlyphs" textLength="110" x="957" y="421.8809">discard with error</text><polygon fill="#FEFECE" filter="url(#fljq8vrxfpr0a)" points="639.625,1297.23,651.625,1309.23,639.625,1321.23,627.625,1309.23,639.625,1297.23" style="stroke: #A80036; stroke-width: 1.5;"/><rect fill="#FEFECE" filter="url(#fljq8vrxfpr0a)" height="33.9688" rx="12.5" ry="12.5" style="stroke: #A80036; stroke-width: 1.5;" width="105" x="1107" y="366.7422"/><text fill="#000000" font-family="sans-serif" font-size="12" lengthAdjust="spacingAndGlyphs" textLength="85" x="1117" y="387.8809">nothing to do</text><polygon fill="#FEFECE" filter="url(#fljq8vrxfpr0a)" points="899.5625,1327.23,911.5625,1339.23,899.5625,1351.23,887.5625,1339.23,899.5625,1327.23" style="stroke: #A80036; stroke-width: 1.5;"/><rect fill="#FEFECE" filter="url(#fljq8vrxfpr0a)" height="33.9688" rx="12.5" ry="12.5" style="stroke: #A80036; stroke-width: 1.5;" width="177" x="1262.5" y="278.7734"/><text fill="#000000" font-family="sans-serif" font-size="12" lengthAdjust="spacingAndGlyphs" textLength="157" x="1272.5" y="299.9121">delete MR source branch</text><rect fill="#FEFECE" filter="url(#fljq8vrxfpr0a)" height="33.9688" rx="12.5" ry="12.5" style="stroke: #A80036; stroke-width: 1.5;" width="198" x="1252" y="381.1445"/><text fill="#000000" font-family="sans-serif" font-size="12" lengthAdjust="spacingAndGlyphs" textLength="178" x="1262" y="402.2832">merge oldest concurrent MR</text><polygon fill="#FEFECE" filter="url(#fljq8vrxfpr0a)" points="1254,332.7422,1448,332.7422,1460,344.7422,1448,356.7422,1254,356.7422,1242,344.7422,1254,332.7422" style="stroke: #A80036; stroke-width: 1.5;"/><text fill="#000000" font-family="sans-serif" font-size="11" lengthAdjust="spacingAndGlyphs" textLength="20" x="1355" y="366.9526">yes</text><text fill="#000000" font-family="sans-serif" font-size="11" lengthAdjust="spacingAndGlyphs" textLength="194" x="1254" y="348.5503">concurrent open auto MR(s) exist?</text><polygon fill="#FEFECE" filter="url(#fljq8vrxfpr0a)" points="1351,439.5156,1363,451.5156,1351,463.5156,1339,451.5156,1351,439.5156" style="stroke: #A80036; stroke-width: 1.5;"/><polygon fill="#FEFECE" filter="url(#fljq8vrxfpr0a)" points="1125.2813,1357.23,1137.2813,1369.23,1125.2813,1381.23,1113.2813,1369.23,1125.2813,1357.23" style="stroke: #A80036; stroke-width: 1.5;"/><polygon fill="#FEFECE" filter="url(#fljq8vrxfpr0a)" points="1078.2813,142.4023,1172.2813,142.4023,1184.2813,154.4023,1172.2813,166.4023,1078.2813,166.4023,1066.2813,154.4023,1078.2813,142.4023" style="stroke: #A80036; stroke-width: 1.5;"/><text fill="#000000" font-family="sans-serif" font-size="11" lengthAdjust="spacingAndGlyphs" textLength="20" x="1129.2813" y="176.6128">yes</text><text fill="#000000" font-family="sans-serif" font-size="11" lengthAdjust="spacingAndGlyphs" textLength="94" x="1078.2813" y="158.2104">request is valid?</text><polygon fill="#FEFECE" filter="url(#fljq8vrxfpr0a)" points="1125.2813,1401.23,1137.2813,1413.23,1125.2813,1425.23,1113.2813,1413.23,1125.2813,1401.23" style="stroke: #A80036; stroke-width: 1.5;"/><polygon fill="#FEFECE" filter="url(#fljq8vrxfpr0a)" points="1072.7813,94,1177.7813,94,1189.7813,106,1177.7813,118,1072.7813,118,1060.7813,106,1072.7813,94" style="stroke: #A80036; stroke-width: 1.5;"/><text fill="#000000" font-family="sans-serif" font-size="11" lengthAdjust="spacingAndGlyphs" textLength="20" x="1129.2813" y="128.2104">yes</text><text fill="#000000" font-family="sans-serif" font-size="11" lengthAdjust="spacingAndGlyphs" textLength="105" x="1072.7813" y="109.8081">incoming request?</text><polygon fill="#FEFECE" filter="url(#fljq8vrxfpr0a)" points="1125.2813,1445.23,1137.2813,1457.23,1125.2813,1469.23,1113.2813,1457.23,1125.2813,1445.23" style="stroke: #A80036; stroke-width: 1.5;"/><polygon fill="#FEFECE" filter="url(#fljq8vrxfpr0a)" points="1125.2813,50,1137.2813,62,1125.2813,74,1113.2813,62,1125.2813,50" style="stroke: #A80036; stroke-width: 1.5;"/><line style="stroke: #A80036; stroke-width: 1.5;" x1="267.25" x2="267.25" y1="434.7109" y2="469.7109"/><polygon fill="#A80036" points="263.25,459.7109,267.25,469.7109,271.25,459.7109,267.25,463.7109" style="stroke: #A80036; stroke-width: 1.0;"/><line style="stroke: #A80036; stroke-width: 1.5;" x1="267.25" x2="267.25" y1="547.6797" y2="572.082"/><polygon fill="#A80036" points="263.25,562.082,267.25,572.082,271.25,562.082,267.25,566.082" style="stroke: #A80036; stroke-width: 1.0;"/><line style="stroke: #A80036; stroke-width: 1.5;" x1="351.25" x2="480.25" y1="535.6797" y2="535.6797"/><polygon fill="#A80036" points="476.25,579.0664,480.25,589.0664,484.25,579.0664,480.25,583.0664" style="stroke: #A80036; stroke-width: 1.5;"/><line style="stroke: #A80036; stroke-width: 1.5;" x1="480.25" x2="480.25" y1="535.6797" y2="638.0508"/><line style="stroke: #A80036; stroke-width: 1.5;" x1="480.25" x2="279.25" y1="638.0508" y2="638.0508"/><polygon fill="#A80036" points="289.25,634.0508,279.25,638.0508,289.25,642.0508,285.25,638.0508" style="stroke: #A80036; stroke-width: 1.0;"/><line style="stroke: #A80036; stroke-width: 1.5;" x1="267.25" x2="267.25" y1="606.0508" y2="626.0508"/><polygon fill="#A80036" points="263.25,616.0508,267.25,626.0508,271.25,616.0508,267.25,620.0508" style="stroke: #A80036; stroke-width: 1.0;"/><line style="stroke: #A80036; stroke-width: 1.5;" x1="267.25" x2="267.25" y1="503.6797" y2="523.6797"/><polygon fill="#A80036" points="263.25,513.6797,267.25,523.6797,271.25,513.6797,267.25,517.6797" style="stroke: #A80036; stroke-width: 1.0;"/><line style="stroke: #A80036; stroke-width: 1.5;" x1="267.25" x2="267.25" y1="650.0508" y2="670.0508"/><polygon fill="#A80036" points="263.25,660.0508,267.25,670.0508,271.25,660.0508,267.25,664.0508" style="stroke: #A80036; stroke-width: 1.0;"/><line style="stroke: #A80036; stroke-width: 1.5;" x1="267.25" x2="267.25" y1="816.8472" y2="843.7456"/><polygon fill="#A80036" points="263.25,833.7456,267.25,843.7456,271.25,833.7456,267.25,837.7456" style="stroke: #A80036; stroke-width: 1.0;"/><line style="stroke: #A80036; stroke-width: 1.5;" x1="267.25" x2="267.25" y1="877.7144" y2="897.7144"/><polygon fill="#A80036" points="263.25,887.7144,267.25,897.7144,271.25,887.7144,267.25,891.7144" style="stroke: #A80036; stroke-width: 1.0;"/><line style="stroke: #A80036; stroke-width: 1.5;" x1="267.25" x2="267.25" y1="751.168" y2="782.8784"/><polygon fill="#A80036" points="263.25,772.8784,267.25,782.8784,271.25,772.8784,267.25,776.8784" style="stroke: #A80036; stroke-width: 1.0;"/><line style="stroke: #A80036; stroke-width: 1.5;" x1="267.25" x2="267.25" y1="931.6831" y2="941.6831"/><line style="stroke: #A80036; stroke-width: 1.5;" x1="267.25" x2="553.25" y1="941.6831" y2="941.6831"/><polygon fill="#A80036" points="549.25,852.3276,553.25,842.3276,557.25,852.3276,553.25,848.3276" style="stroke: #A80036; stroke-width: 1.5;"/><line style="stroke: #A80036; stroke-width: 1.5;" x1="553.25" x2="553.25" y1="739.168" y2="941.6831"/><line style="stroke: #A80036; stroke-width: 1.5;" x1="553.25" x2="435.25" y1="739.168" y2="739.168"/><polygon fill="#A80036" points="445.25,735.168,435.25,739.168,445.25,743.168,441.25,739.168" style="stroke: #A80036; stroke-width: 1.0;"/><line style="stroke: #A80036; stroke-width: 1.5;" x1="99.25" x2="87.25" y1="739.168" y2="739.168"/><polygon fill="#A80036" points="83.25,838.3276,87.25,848.3276,91.25,838.3276,87.25,842.3276" style="stroke: #A80036; stroke-width: 1.5;"/><line style="stroke: #A80036; stroke-width: 1.5;" x1="87.25" x2="87.25" y1="739.168" y2="953.6831"/><line style="stroke: #A80036; stroke-width: 1.5;" x1="87.25" x2="267.25" y1="953.6831" y2="953.6831"/><line style="stroke: #A80036; stroke-width: 1.5;" x1="267.25" x2="267.25" y1="953.6831" y2="973.6831"/><polygon fill="#A80036" points="263.25,963.6831,267.25,973.6831,271.25,963.6831,267.25,967.6831" style="stroke: #A80036; stroke-width: 1.0;"/><line style="stroke: #A80036; stroke-width: 1.5;" x1="267.25" x2="267.25" y1="704.0195" y2="727.168"/><polygon fill="#A80036" points="263.25,717.168,267.25,727.168,271.25,717.168,267.25,721.168" style="stroke: #A80036; stroke-width: 1.0;"/><line style="stroke: #A80036; stroke-width: 1.5;" x1="229" x2="198" y1="1066.4878" y2="1066.4878"/><line style="stroke: #A80036; stroke-width: 1.5;" x1="198" x2="198" y1="1066.4878" y2="1088.4878"/><polygon fill="#A80036" points="194,1078.4878,198,1088.4878,202,1078.4878,198,1082.4878" style="stroke: #A80036; stroke-width: 1.0;"/><line style="stroke: #A80036; stroke-width: 1.5;" x1="363" x2="394" y1="1066.4878" y2="1066.4878"/><line style="stroke: #A80036; stroke-width: 1.5;" x1="394" x2="394" y1="1066.4878" y2="1088.4878"/><polygon fill="#A80036" points="390,1078.4878,394,1088.4878,398,1078.4878,394,1082.4878" style="stroke: #A80036; stroke-width: 1.0;"/><line style="stroke: #A80036; stroke-width: 1.5;" x1="198" x2="198" y1="1122.4565" y2="1140.4565"/><line style="stroke: #A80036; stroke-width: 1.5;" x1="198" x2="284" y1="1140.4565" y2="1140.4565"/><polygon fill="#A80036" points="274,1136.4565,284,1140.4565,274,1144.4565,278,1140.4565" style="stroke: #A80036; stroke-width: 1.0;"/><line style="stroke: #A80036; stroke-width: 1.5;" x1="394" x2="394" y1="1122.4565" y2="1140.4565"/><line style="stroke: #A80036; stroke-width: 1.5;" x1="394" x2="308" y1="1140.4565" y2="1140.4565"/><polygon fill="#A80036" points="318,1136.4565,308,1140.4565,318,1144.4565,314,1140.4565" style="stroke: #A80036; stroke-width: 1.0;"/><line style="stroke: #A80036; stroke-width: 1.5;" x1="705" x2="705" y1="1078.4878" y2="1115.2925"/><polygon fill="#A80036" points="701,1105.2925,705,1115.2925,709,1105.2925,705,1109.2925" style="stroke: #A80036; stroke-width: 1.0;"/><line style="stroke: #A80036; stroke-width: 1.5;" x1="705" x2="705" y1="1149.2612" y2="1161.2612"/><line style="stroke: #A80036; stroke-width: 1.5;" x1="705" x2="851.5" y1="1161.2612" y2="1161.2612"/><polygon fill="#A80036" points="847.5,1123.8745,851.5,1113.8745,855.5,1123.8745,851.5,1119.8745" style="stroke: #A80036; stroke-width: 1.5;"/><line style="stroke: #A80036; stroke-width: 1.5;" x1="851.5" x2="851.5" y1="1066.4878" y2="1161.2612"/><line style="stroke: #A80036; stroke-width: 1.5;" x1="851.5" x2="748" y1="1066.4878" y2="1066.4878"/><polygon fill="#A80036" points="758,1062.4878,748,1066.4878,758,1070.4878,754,1066.4878" style="stroke: #A80036; stroke-width: 1.0;"/><line style="stroke: #A80036; stroke-width: 1.5;" x1="662" x2="558.5" y1="1066.4878" y2="1066.4878"/><polygon fill="#A80036" points="554.5,1109.8745,558.5,1119.8745,562.5,1109.8745,558.5,1113.8745" style="stroke: #A80036; stroke-width: 1.5;"/><line style="stroke: #A80036; stroke-width: 1.5;" x1="558.5" x2="558.5" y1="1066.4878" y2="1173.2612"/><line style="stroke: #A80036; stroke-width: 1.5;" x1="558.5" x2="705" y1="1173.2612" y2="1173.2612"/><line style="stroke: #A80036; stroke-width: 1.5;" x1="705" x2="705" y1="1173.2612" y2="1193.2612"/><polygon fill="#A80036" points="701,1183.2612,705,1193.2612,709,1183.2612,705,1187.2612" style="stroke: #A80036; stroke-width: 1.0;"/><line style="stroke: #A80036; stroke-width: 1.5;" x1="322" x2="296" y1="1019.6831" y2="1019.6831"/><line style="stroke: #A80036; stroke-width: 1.5;" x1="296" x2="296" y1="1019.6831" y2="1054.4878"/><polygon fill="#A80036" points="292,1044.4878,296,1054.4878,300,1044.4878,296,1048.4878" style="stroke: #A80036; stroke-width: 1.0;"/><text fill="#000000" font-family="sans-serif" font-size="11" lengthAdjust="spacingAndGlyphs" textLength="20" x="296" y="1040.8936">yes</text><line style="stroke: #A80036; stroke-width: 1.5;" x1="676" x2="705" y1="1019.6831" y2="1019.6831"/><line style="stroke: #A80036; stroke-width: 1.5;" x1="705" x2="705" y1="1019.6831" y2="1054.4878"/><polygon fill="#A80036" points="701,1044.4878,705,1054.4878,709,1044.4878,705,1048.4878" style="stroke: #A80036; stroke-width: 1.0;"/><text fill="#000000" font-family="sans-serif" font-size="11" lengthAdjust="spacingAndGlyphs" textLength="14" x="705" y="1040.8936">no</text><line style="stroke: #A80036; stroke-width: 1.5;" x1="296" x2="296" y1="1152.4565" y2="1249.23"/><line style="stroke: #A80036; stroke-width: 1.5;" x1="296" x2="487" y1="1249.23" y2="1249.23"/><polygon fill="#A80036" points="477,1245.23,487,1249.23,477,1253.23,481,1249.23" style="stroke: #A80036; stroke-width: 1.0;"/><line style="stroke: #A80036; stroke-width: 1.5;" x1="705" x2="705" y1="1227.23" y2="1249.23"/><line style="stroke: #A80036; stroke-width: 1.5;" x1="705" x2="511" y1="1249.23" y2="1249.23"/><polygon fill="#A80036" points="521,1245.23,511,1249.23,521,1253.23,517,1249.23" style="stroke: #A80036; stroke-width: 1.0;"/><line style="stroke: #A80036; stroke-width: 1.5;" x1="207.75" x2="35.5" y1="985.6831" y2="985.6831"/><line style="stroke: #A80036; stroke-width: 1.5;" x1="35.5" x2="35.5" y1="985.6831" y2="1007.6831"/><polygon fill="#A80036" points="31.5,997.6831,35.5,1007.6831,39.5,997.6831,35.5,1001.6831" style="stroke: #A80036; stroke-width: 1.0;"/><line style="stroke: #A80036; stroke-width: 1.5;" x1="326.75" x2="499" y1="985.6831" y2="985.6831"/><line style="stroke: #A80036; stroke-width: 1.5;" x1="499" x2="499" y1="985.6831" y2="1007.6831"/><polygon fill="#A80036" points="495,997.6831,499,1007.6831,503,997.6831,499,1001.6831" style="stroke: #A80036; stroke-width: 1.0;"/><line style="stroke: #A80036; stroke-width: 1.5;" x1="35.5" x2="35.5" y1="1041.6519" y2="1279.23"/><line style="stroke: #A80036; stroke-width: 1.5;" x1="35.5" x2="255.25" y1="1279.23" y2="1279.23"/><polygon fill="#A80036" points="245.25,1275.23,255.25,1279.23,245.25,1283.23,249.25,1279.23" style="stroke: #A80036; stroke-width: 1.0;"/><line style="stroke: #A80036; stroke-width: 1.5;" x1="499" x2="499" y1="1261.23" y2="1279.23"/><line style="stroke: #A80036; stroke-width: 1.5;" x1="499" x2="279.25" y1="1279.23" y2="1279.23"/><polygon fill="#A80036" points="289.25,1275.23,279.25,1279.23,289.25,1283.23,285.25,1279.23" style="stroke: #A80036; stroke-width: 1.0;"/><line style="stroke: #A80036; stroke-width: 1.5;" x1="533.625" x2="267.25" y1="378.7422" y2="378.7422"/><line style="stroke: #A80036; stroke-width: 1.5;" x1="267.25" x2="267.25" y1="378.7422" y2="400.7422"/><polygon fill="#A80036" points="263.25,390.7422,267.25,400.7422,271.25,390.7422,267.25,394.7422" style="stroke: #A80036; stroke-width: 1.0;"/><line style="stroke: #A80036; stroke-width: 1.5;" x1="745.625" x2="1012" y1="378.7422" y2="378.7422"/><line style="stroke: #A80036; stroke-width: 1.5;" x1="1012" x2="1012" y1="378.7422" y2="400.7422"/><polygon fill="#A80036" points="1008,390.7422,1012,400.7422,1016,390.7422,1012,394.7422" style="stroke: #A80036; stroke-width: 1.0;"/><line style="stroke: #A80036; stroke-width: 1.5;" x1="267.25" x2="267.25" y1="1291.23" y2="1309.23"/><line style="stroke: #A80036; stroke-width: 1.5;" x1="267.25" x2="627.625" y1="1309.23" y2="1309.23"/><polygon fill="#A80036" points="617.625,1305.23,627.625,1309.23,617.625,1313.23,621.625,1309.23" style="stroke: #A80036; stroke-width: 1.0;"/><line style="stroke: #A80036; stroke-width: 1.5;" x1="1012" x2="1012" y1="434.7109" y2="1309.23"/><line style="stroke: #A80036; stroke-width: 1.5;" x1="1012" x2="651.625" y1="1309.23" y2="1309.23"/><polygon fill="#A80036" points="661.625,1305.23,651.625,1309.23,661.625,1313.23,657.625,1309.23" style="stroke: #A80036; stroke-width: 1.0;"/><line style="stroke: #A80036; stroke-width: 1.5;" x1="800.5625" x2="639.625" y1="344.7422" y2="344.7422"/><line style="stroke: #A80036; stroke-width: 1.5;" x1="639.625" x2="639.625" y1="344.7422" y2="366.7422"/><polygon fill="#A80036" points="635.625,356.7422,639.625,366.7422,643.625,356.7422,639.625,360.7422" style="stroke: #A80036; stroke-width: 1.0;"/><line style="stroke: #A80036; stroke-width: 1.5;" x1="998.5625" x2="1159.5" y1="344.7422" y2="344.7422"/><line style="stroke: #A80036; stroke-width: 1.5;" x1="1159.5" x2="1159.5" y1="344.7422" y2="366.7422"/><polygon fill="#A80036" points="1155.5,356.7422,1159.5,366.7422,1163.5,356.7422,1159.5,360.7422" style="stroke: #A80036; stroke-width: 1.0;"/><line style="stroke: #A80036; stroke-width: 1.5;" x1="639.625" x2="639.625" y1="1321.23" y2="1339.23"/><line style="stroke: #A80036; stroke-width: 1.5;" x1="639.625" x2="887.5625" y1="1339.23" y2="1339.23"/><polygon fill="#A80036" points="877.5625,1335.23,887.5625,1339.23,877.5625,1343.23,881.5625,1339.23" style="stroke: #A80036; stroke-width: 1.0;"/><line style="stroke: #A80036; stroke-width: 1.5;" x1="1159.5" x2="1159.5" y1="400.7109" y2="1339.23"/><line style="stroke: #A80036; stroke-width: 1.5;" x1="1159.5" x2="911.5625" y1="1339.23" y2="1339.23"/><polygon fill="#A80036" points="921.5625,1335.23,911.5625,1339.23,921.5625,1343.23,917.5625,1339.23" style="stroke: #A80036; stroke-width: 1.0;"/><line style="stroke: #A80036; stroke-width: 1.5;" x1="899.5625" x2="899.5625" y1="312.7422" y2="332.7422"/><polygon fill="#A80036" points="895.5625,322.7422,899.5625,332.7422,903.5625,322.7422,899.5625,326.7422" style="stroke: #A80036; stroke-width: 1.0;"/><line style="stroke: #A80036; stroke-width: 1.5;" x1="1351" x2="1351" y1="356.7422" y2="381.1445"/><polygon fill="#A80036" points="1347,371.1445,1351,381.1445,1355,371.1445,1351,375.1445" style="stroke: #A80036; stroke-width: 1.0;"/><line style="stroke: #A80036; stroke-width: 1.5;" x1="1460" x2="1472" y1="344.7422" y2="344.7422"/><polygon fill="#A80036" points="1468,388.1289,1472,398.1289,1476,388.1289,1472,392.1289" style="stroke: #A80036; stroke-width: 1.5;"/><line style="stroke: #A80036; stroke-width: 1.5;" x1="1472" x2="1472" y1="344.7422" y2="451.5156"/><line style="stroke: #A80036; stroke-width: 1.5;" x1="1472" x2="1363" y1="451.5156" y2="451.5156"/><polygon fill="#A80036" points="1373,447.5156,1363,451.5156,1373,455.5156,1369,451.5156" style="stroke: #A80036; stroke-width: 1.0;"/><line style="stroke: #A80036; stroke-width: 1.5;" x1="1351" x2="1351" y1="415.1133" y2="439.5156"/><polygon fill="#A80036" points="1347,429.5156,1351,439.5156,1355,429.5156,1351,433.5156" style="stroke: #A80036; stroke-width: 1.0;"/><line style="stroke: #A80036; stroke-width: 1.5;" x1="1351" x2="1351" y1="312.7422" y2="332.7422"/><polygon fill="#A80036" points="1347,322.7422,1351,332.7422,1355,322.7422,1351,326.7422" style="stroke: #A80036; stroke-width: 1.0;"/><line style="stroke: #A80036; stroke-width: 1.5;" x1="1048.7813" x2="899.5625" y1="256.7734" y2="256.7734"/><line style="stroke: #A80036; stroke-width: 1.5;" x1="899.5625" x2="899.5625" y1="256.7734" y2="278.7734"/><polygon fill="#A80036" points="895.5625,268.7734,899.5625,278.7734,903.5625,268.7734,899.5625,272.7734" style="stroke: #A80036; stroke-width: 1.0;"/><line style="stroke: #A80036; stroke-width: 1.5;" x1="1201.7813" x2="1351" y1="256.7734" y2="256.7734"/><line style="stroke: #A80036; stroke-width: 1.5;" x1="1351" x2="1351" y1="256.7734" y2="278.7734"/><polygon fill="#A80036" points="1347,268.7734,1351,278.7734,1355,268.7734,1351,272.7734" style="stroke: #A80036; stroke-width: 1.0;"/><line style="stroke: #A80036; stroke-width: 1.5;" x1="899.5625" x2="899.5625" y1="1351.23" y2="1369.23"/><line style="stroke: #A80036; stroke-width: 1.5;" x1="899.5625" x2="1113.2813" y1="1369.23" y2="1369.23"/><polygon fill="#A80036" points="1103.2813,1365.23,1113.2813,1369.23,1103.2813,1373.23,1107.2813,1369.23" style="stroke: #A80036; stroke-width: 1.0;"/><line style="stroke: #A80036; stroke-width: 1.5;" x1="1351" x2="1351" y1="463.5156" y2="1369.23"/><line style="stroke: #A80036; stroke-width: 1.5;" x1="1351" x2="1137.2813" y1="1369.23" y2="1369.23"/><polygon fill="#A80036" points="1147.2813,1365.23,1137.2813,1369.23,1147.2813,1373.23,1143.2813,1369.23" style="stroke: #A80036; stroke-width: 1.0;"/><line style="stroke: #A80036; stroke-width: 1.5;" x1="1125.2813" x2="1125.2813" y1="224.7734" y2="244.7734"/><polygon fill="#A80036" points="1121.2813,234.7734,1125.2813,244.7734,1129.2813,234.7734,1125.2813,238.7734" style="stroke: #A80036; stroke-width: 1.0;"/><line style="stroke: #A80036; stroke-width: 1.5;" x1="1125.2813" x2="1125.2813" y1="166.4023" y2="190.8047"/><polygon fill="#A80036" points="1121.2813,180.8047,1125.2813,190.8047,1129.2813,180.8047,1125.2813,184.8047" style="stroke: #A80036; stroke-width: 1.0;"/><line style="stroke: #A80036; stroke-width: 1.5;" x1="1184.2813" x2="1490" y1="154.4023" y2="154.4023"/><polygon fill="#A80036" points="1486,809.7456,1490,819.7456,1494,809.7456,1490,813.7456" style="stroke: #A80036; stroke-width: 1.5;"/><line style="stroke: #A80036; stroke-width: 1.5;" x1="1490" x2="1490" y1="154.4023" y2="1413.23"/><line style="stroke: #A80036; stroke-width: 1.5;" x1="1490" x2="1137.2813" y1="1413.23" y2="1413.23"/><polygon fill="#A80036" points="1147.2813,1409.23,1137.2813,1413.23,1147.2813,1417.23,1143.2813,1413.23" style="stroke: #A80036; stroke-width: 1.0;"/><line style="stroke: #A80036; stroke-width: 1.5;" x1="1125.2813" x2="1125.2813" y1="1381.23" y2="1401.23"/><polygon fill="#A80036" points="1121.2813,1391.23,1125.2813,1401.23,1129.2813,1391.23,1125.2813,1395.23" style="stroke: #A80036; stroke-width: 1.0;"/><line style="stroke: #A80036; stroke-width: 1.5;" x1="1125.2813" x2="1125.2813" y1="118" y2="142.4023"/><polygon fill="#A80036" points="1121.2813,132.4023,1125.2813,142.4023,1129.2813,132.4023,1125.2813,136.4023" style="stroke: #A80036; stroke-width: 1.0;"/><line style="stroke: #A80036; stroke-width: 1.5;" x1="1189.7813" x2="1508" y1="106" y2="106"/><polygon fill="#A80036" points="1504,809.7456,1508,819.7456,1512,809.7456,1508,813.7456" style="stroke: #A80036; stroke-width: 1.5;"/><line style="stroke: #A80036; stroke-width: 1.5;" x1="1508" x2="1508" y1="106" y2="1457.23"/><line style="stroke: #A80036; stroke-width: 1.5;" x1="1508" x2="1137.2813" y1="1457.23" y2="1457.23"/><polygon fill="#A80036" points="1147.2813,1453.23,1137.2813,1457.23,1147.2813,1461.23,1143.2813,1457.23" style="stroke: #A80036; stroke-width: 1.0;"/><line style="stroke: #A80036; stroke-width: 1.5;" x1="1125.2813" x2="1125.2813" y1="1425.23" y2="1445.23"/><polygon fill="#A80036" points="1121.2813,1435.23,1125.2813,1445.23,1129.2813,1435.23,1125.2813,1439.23" style="stroke: #A80036; stroke-width: 1.0;"/><line style="stroke: #A80036; stroke-width: 1.5;" x1="1125.2813" x2="1125.2813" y1="74" y2="94"/><polygon fill="#A80036" points="1121.2813,84,1125.2813,94,1129.2813,84,1125.2813,88" style="stroke: #A80036; stroke-width: 1.0;"/><line style="stroke: #A80036; stroke-width: 1.5;" x1="1125.2813" x2="1125.2813" y1="1469.23" y2="1517.23"/><line style="stroke: #A80036; stroke-width: 1.5;" x1="1125.2813" x2="1526" y1="1517.23" y2="1517.23"/><polygon fill="#A80036" points="1522,823.7456,1526,813.7456,1530,823.7456,1526,819.7456" style="stroke: #A80036; stroke-width: 1.5;"/><line style="stroke: #A80036; stroke-width: 1.5;" x1="1526" x2="1526" y1="62" y2="1517.23"/><line style="stroke: #A80036; stroke-width: 1.5;" x1="1526" x2="1137.2813" y1="62" y2="62"/><polygon fill="#A80036" points="1147.2813,58,1137.2813,62,1147.2813,66,1143.2813,62" style="stroke: #A80036; stroke-width: 1.0;"/><line style="stroke: #A80036; stroke-width: 1.5;" x1="1125.2813" x2="1125.2813" y1="30" y2="50"/><polygon fill="#A80036" points="1121.2813,40,1125.2813,50,1129.2813,40,1125.2813,44" style="stroke: #A80036; stroke-width: 1.0;"/><!--MD5=[7000675fcb41b3a53e4a83356b96fe6c]
@startuml technical-workflow
start
repeat
if (incoming request?) then (yes)
    if (request is valid?) then (yes)
        :fetch properties from the MergeRequestEvent object;
        if (merge-request action?) then (MERGE)
            :try to read nextMainBranch from configuration file;
            if (nextMainBranch is configured?) then (yes)
                if (nextMainBranch exists remotely?) then (yes)
                    :create new branch from targetBranch;
                    :create new MR from the new branch into the nextMainBranch;
                    if (apiTokenApprover is set?) then (yes)
                        :approve the just created MR as that user (apiTokenApprover);
                    else (no)
                    endif
                    #SkyBlue:initialize countDown to 100;
                    note right 
                        Timeout to avoid the possibility
                        of getting stuck in the loop forever
                    end note
                    while(MRStatus == unchecked|checking and countdown > 0?) is (yes)
                        #SkyBlue:decrement countDown by 1;
                        :sleep 100ms;
                        note right: Wait for Gitlab to prepare MR
                        :update MRStatus from Gitlab;
                    endwhile (no)
                    if (countDown == 0) then (yes) 
                        :error;
                    else (no)
                        switch(Is MRStatus == mergeable|ci_still_running|ci_must_pass?)
                        case (yes)
                            if (MR has pipeline(s)?) then (yes)
                                :merge when pipeline succeeds;
                            else (no)
                                :merge immediately;
                            endif
                        case (no)
                            while(MR merger) is (ucascade user)
                                :get user that merged the preceding MR;
                            endwhile (not the ucascade user)
                            :update MR to set its assignees to the MR assignees and merger;
                        endswitch
                    endif
                else (no)
                    #red:discard with error;
                endif
                else (no)
                    :nothing to do;
            endif
        else (CLOSE)
            :delete MR source branch;
            if (concurrent open auto MR(s) exist?) then (yes)
                :merge oldest concurrent MR;
            endif
        endif
    endif
endif
repeat while
@enduml

PlantUML version 1.2020.06(Sun Apr 05 12:38:32 GMT 2020)
(APACHE source distribution)
Java Runtime: OpenJDK Runtime Environment
JVM: OpenJDK 64-Bit Server VM
Java Version: 11.0.18+10
Operating System: Linux
Default Encoding: UTF-8
Language: en
Country: US
--></g></svg>