<?xml version="1.0" encoding="UTF-8" standalone="no"?><svg xmlns="http://www.w3.org/2000/svg" xmlns:xlink="http://www.w3.org/1999/xlink" contentScriptType="application/ecmascript" contentStyleType="text/css" height="1541px" preserveAspectRatio="none" style="width:1681px;height:1541px;" version="1.1" viewBox="0 0 1681 1541" width="1681px" zoomAndPan="magnify"><defs><filter height="300%" id="f12boa3i7v1b4" width="300%" x="-1" y="-1"><feGaussianBlur result="blurOut" stdDeviation="2.0"/><feColorMatrix in="blurOut" result="blurOut2" type="matrix" values="0 0 0 0 0 0 0 0 0 0 0 0 0 0 0 0 0 0 .4 0"/><feOffset dx="4.0" dy="4.0" in="blurOut2" result="blurOut3"/><feBlend in="SourceGraphic" in2="blurOut3" mode="normal"/></filter></defs><g><ellipse cx="1242.2813" cy="20" fill="#000000" filter="url(#f12boa3i7v1b4)" rx="10" ry="10" style="stroke: none; stroke-width: 1.0;"/><rect fill="#FEFECE" filter="url(#f12boa3i7v1b4)" height="33.9688" rx="12.5" ry="12.5" style="stroke: #A80036; stroke-width: 1.5;" width="351" x="1066.7813" y="190.8047"/><text fill="#000000" font-family="sans-serif" font-size="12" lengthAdjust="spacingAndGlyphs" textLength="331" x="1076.7813" y="211.9434">fetch properties from the MergeRequestEvent object</text><polygon fill="#FEFECE" filter="url(#f12boa3i7v1b4)" points="1177.7813,244.7734,1306.7813,244.7734,1318.7813,256.7734,1306.7813,268.7734,1177.7813,268.7734,1165.7813,256.7734,1177.7813,244.7734" style="stroke: #A80036; stroke-width: 1.5;"/><text fill="#000000" font-family="sans-serif" font-size="11" lengthAdjust="spacingAndGlyphs" textLength="129" x="1177.7813" y="260.5815">merge-request action?</text><text fill="#000000" font-family="sans-serif" font-size="11" lengthAdjust="spacingAndGlyphs" textLength="39" x="1126.7813" y="254.1792">MERGE</text><text fill="#000000" font-family="sans-serif" font-size="11" lengthAdjust="spacingAndGlyphs" textLength="38" x="1318.7813" y="254.1792">CLOSE</text><rect fill="#FEFECE" filter="url(#f12boa3i7v1b4)" height="33.9688" rx="12.5" ry="12.5" style="stroke: #A80036; stroke-width: 1.5;" width="331" x="839.0625" y="278.7734"/><text fill="#000000" font-family="sans-serif" font-size="12" lengthAdjust="spacingAndGlyphs" textLength="311" x="849.0625" y="299.9121">try to read nextMainBranch from configuration file</text><polygon fill="#FEFECE" filter="url(#f12boa3i7v1b4)" points="917.5625,332.7422,1091.5625,332.7422,1103.5625,344.7422,1091.5625,356.7422,917.5625,356.7422,905.5625,344.7422,917.5625,332.7422" style="stroke: #A80036; stroke-width: 1.5;"/><text fill="#000000" font-family="sans-serif" font-size="11" lengthAdjust="spacingAndGlyphs" textLength="174" x="917.5625" y="348.5503">nextMainBranch is configured?</text><text fill="#000000" font-family="sans-serif" font-size="11" lengthAdjust="spacingAndGlyphs" textLength="20" x="885.5625" y="342.1479">yes</text><text fill="#000000" font-family="sans-serif" font-size="11" lengthAdjust="spacingAndGlyphs" textLength="14" x="1103.5625" y="342.1479">no</text><polygon fill="#FEFECE" filter="url(#f12boa3i7v1b4)" points="626.625,366.7422,814.625,366.7422,826.625,378.7422,814.625,390.7422,626.625,390.7422,614.625,378.7422,626.625,366.7422" style="stroke: #A80036; stroke-width: 1.5;"/><text fill="#000000" font-family="sans-serif" font-size="11" lengthAdjust="spacingAndGlyphs" textLength="188" x="626.625" y="382.5503">nextMainBranch exists remotely?</text><text fill="#000000" font-family="sans-serif" font-size="11" lengthAdjust="spacingAndGlyphs" textLength="20" x="594.625" y="376.1479">yes</text><text fill="#000000" font-family="sans-serif" font-size="11" lengthAdjust="spacingAndGlyphs" textLength="14" x="826.625" y="376.1479">no</text><rect fill="#FEFECE" filter="url(#f12boa3i7v1b4)" height="33.9688" rx="12.5" ry="12.5" style="stroke: #A80036; stroke-width: 1.5;" width="257" x="171.75" y="400.7422"/><text fill="#000000" font-family="sans-serif" font-size="12" lengthAdjust="spacingAndGlyphs" textLength="237" x="181.75" y="421.8809">create new branch from targetBranch</text><rect fill="#FEFECE" filter="url(#f12boa3i7v1b4)" height="33.9688" rx="12.5" ry="12.5" style="stroke: #A80036; stroke-width: 1.5;" width="403" x="98.75" y="469.7109"/><text fill="#000000" font-family="sans-serif" font-size="12" lengthAdjust="spacingAndGlyphs" textLength="383" x="108.75" y="490.8496">create new MR from the new branch into the nextMainBranch</text><rect fill="#FEFECE" filter="url(#f12boa3i7v1b4)" height="33.9688" rx="12.5" ry="12.5" style="stroke: #A80036; stroke-width: 1.5;" width="406" x="97.25" y="580.3203"/><text fill="#000000" font-family="sans-serif" font-size="12" lengthAdjust="spacingAndGlyphs" textLength="386" x="107.25" y="601.459">approve the just created MR as that user (apiTokenApprover)</text><polygon fill="#FEFECE" filter="url(#f12boa3i7v1b4)" points="228.25,531.918,372.25,531.918,384.25,543.918,372.25,555.918,228.25,555.918,216.25,543.918,228.25,531.918" style="stroke: #A80036; stroke-width: 1.5;"/><text fill="#000000" font-family="sans-serif" font-size="11" lengthAdjust="spacingAndGlyphs" textLength="20" x="304.25" y="566.1284">yes</text><text fill="#000000" font-family="sans-serif" font-size="11" lengthAdjust="spacingAndGlyphs" textLength="144" x="228.25" y="547.7261">apiTokenApprover is set?</text><text fill="#000000" font-family="sans-serif" font-size="11" lengthAdjust="spacingAndGlyphs" textLength="14" x="384.25" y="541.3237">no</text><polygon fill="#FEFECE" filter="url(#f12boa3i7v1b4)" points="300.25,638.6914,312.25,650.6914,300.25,662.6914,288.25,650.6914,300.25,638.6914" style="stroke: #A80036; stroke-width: 1.5;"/><path d="M417.75,679.543 L417.75,695.6758 L397.75,699.6758 L417.75,703.6758 L417.75,719.8086 A0,0 0 0 0 417.75,719.8086 L657.75,719.8086 A0,0 0 0 0 657.75,719.8086 L657.75,689.543 L647.75,679.543 L417.75,679.543 A0,0 0 0 0 417.75,679.543 " fill="#FBFB77" filter="url(#f12boa3i7v1b4)" style="stroke: #A80036; stroke-width: 1.0;"/><path d="M647.75,679.543 L647.75,689.543 L657.75,689.543 L647.75,679.543 " fill="#FBFB77" style="stroke: #A80036; stroke-width: 1.0;"/><text fill="#000000" font-family="sans-serif" font-size="13" lengthAdjust="spacingAndGlyphs" textLength="198" x="423.75" y="696.6099">Timeout to avoid the possibility</text><text fill="#000000" font-family="sans-serif" font-size="13" lengthAdjust="spacingAndGlyphs" textLength="219" x="423.75" y="711.7427">of getting stuck in the loop forever</text><rect fill="#87CEEB" filter="url(#f12boa3i7v1b4)" height="33.9688" rx="12.5" ry="12.5" style="stroke: #A80036; stroke-width: 1.5;" width="195" x="202.75" y="682.6914"/><text fill="#000000" font-family="sans-serif" font-size="12" lengthAdjust="spacingAndGlyphs" textLength="175" x="212.75" y="703.8301">initialize countDown from 60</text><rect fill="#87CEEB" filter="url(#f12boa3i7v1b4)" height="33.9688" rx="12.5" ry="12.5" style="stroke: #A80036; stroke-width: 1.5;" width="192" x="204.25" y="795.519"/><text fill="#000000" font-family="sans-serif" font-size="12" lengthAdjust="spacingAndGlyphs" textLength="172" x="214.25" y="816.6577">decrement countDown by 1</text><path d="M356.75,860.8042 L356.75,869.3706 L336.75,873.3706 L356.75,877.3706 L356.75,885.937 A0,0 0 0 0 356.75,885.937 L560.75,885.937 A0,0 0 0 0 560.75,885.937 L560.75,870.8042 L550.75,860.8042 L356.75,860.8042 A0,0 0 0 0 356.75,860.8042 " fill="#FBFB77" filter="url(#f12boa3i7v1b4)" style="stroke: #A80036; stroke-width: 1.0;"/><path d="M550.75,860.8042 L550.75,870.8042 L560.75,870.8042 L550.75,860.8042 " fill="#FBFB77" style="stroke: #A80036; stroke-width: 1.0;"/><text fill="#000000" font-family="sans-serif" font-size="13" lengthAdjust="spacingAndGlyphs" textLength="183" x="362.75" y="877.8711">Wait for Gitlab to prepare MR</text><rect fill="#FEFECE" filter="url(#f12boa3i7v1b4)" height="33.9688" rx="12.5" ry="12.5" style="stroke: #A80036; stroke-width: 1.5;" width="73" x="263.75" y="856.3862"/><text fill="#000000" font-family="sans-serif" font-size="12" lengthAdjust="spacingAndGlyphs" textLength="53" x="273.75" y="877.5249">sleep 1s</text><rect fill="#FEFECE" filter="url(#f12boa3i7v1b4)" height="33.9688" rx="12.5" ry="12.5" style="stroke: #A80036; stroke-width: 1.5;" width="200" x="200.25" y="910.355"/><text fill="#000000" font-family="sans-serif" font-size="12" lengthAdjust="spacingAndGlyphs" textLength="180" x="210.25" y="931.4937">update MRStatus from Gitlab</text><polygon fill="#FEFECE" filter="url(#f12boa3i7v1b4)" points="60.25,739.8086,540.25,739.8086,552.25,751.8086,540.25,763.8086,60.25,763.8086,48.25,751.8086,60.25,739.8086" style="stroke: #A80036; stroke-width: 1.5;"/><text fill="#000000" font-family="sans-serif" font-size="11" lengthAdjust="spacingAndGlyphs" textLength="20" x="304.25" y="774.019">yes</text><text fill="#000000" font-family="sans-serif" font-size="11" lengthAdjust="spacingAndGlyphs" textLength="480" x="60.25" y="755.6167">MRStatus == unchecked|checking|preparing|approvals_syncing and countdown &gt; 0?</text><text fill="#000000" font-family="sans-serif" font-size="11" lengthAdjust="spacingAndGlyphs" textLength="14" x="34.25" y="749.2144">no</text><polygon fill="#FEFECE" filter="url(#f12boa3i7v1b4)" points="252.75,986.3237,347.75,986.3237,359.75,998.3237,347.75,1010.3237,252.75,1010.3237,240.75,998.3237,252.75,986.3237" style="stroke: #A80036; stroke-width: 1.5;"/><text fill="#000000" font-family="sans-serif" font-size="11" lengthAdjust="spacingAndGlyphs" textLength="95" x="252.75" y="1002.1318">countDown == 0</text><text fill="#000000" font-family="sans-serif" font-size="11" lengthAdjust="spacingAndGlyphs" textLength="20" x="220.75" y="995.7295">yes</text><text fill="#000000" font-family="sans-serif" font-size="11" lengthAdjust="spacingAndGlyphs" textLength="14" x="359.75" y="995.7295">no</text><rect fill="#FEFECE" filter="url(#f12boa3i7v1b4)" height="33.9688" rx="12.5" ry="12.5" style="stroke: #A80036; stroke-width: 1.5;" width="51" x="10" y="1020.3237"/><text fill="#000000" font-family="sans-serif" font-size="12" lengthAdjust="spacingAndGlyphs" textLength="31" x="20" y="1041.4624">error</text><polygon fill="#FEFECE" filter="url(#f12boa3i7v1b4)" points="323,1020.3237,807,1020.3237,819,1032.3237,807,1044.3237,323,1044.3237,311,1032.3237,323,1020.3237" style="stroke: #A80036; stroke-width: 1.5;"/><text fill="#000000" font-family="sans-serif" font-size="11" lengthAdjust="spacingAndGlyphs" textLength="484" x="323" y="1036.1318">Is MRStatus == mergeable|ci_still_running|ci_must_pass|status_checks_must_pass?</text><polygon fill="#FEFECE" filter="url(#f12boa3i7v1b4)" points="241,1067.1284,351,1067.1284,363,1079.1284,351,1091.1284,241,1091.1284,229,1079.1284,241,1067.1284" style="stroke: #A80036; stroke-width: 1.5;"/><text fill="#000000" font-family="sans-serif" font-size="11" lengthAdjust="spacingAndGlyphs" textLength="110" x="241" y="1082.9365">MR has pipeline(s)?</text><text fill="#000000" font-family="sans-serif" font-size="11" lengthAdjust="spacingAndGlyphs" textLength="20" x="209" y="1076.5342">yes</text><text fill="#000000" font-family="sans-serif" font-size="11" lengthAdjust="spacingAndGlyphs" textLength="14" x="363" y="1076.5342">no</text><rect fill="#FEFECE" filter="url(#f12boa3i7v1b4)" height="33.9688" rx="12.5" ry="12.5" style="stroke: #A80036; stroke-width: 1.5;" width="214" x="91" y="1101.1284"/><text fill="#000000" font-family="sans-serif" font-size="12" lengthAdjust="spacingAndGlyphs" textLength="194" x="101" y="1122.2671">merge when pipeline succeeds</text><rect fill="#FEFECE" filter="url(#f12boa3i7v1b4)" height="33.9688" rx="12.5" ry="12.5" style="stroke: #A80036; stroke-width: 1.5;" width="138" x="325" y="1101.1284"/><text fill="#000000" font-family="sans-serif" font-size="12" lengthAdjust="spacingAndGlyphs" textLength="118" x="335" y="1122.2671">merge immediately</text><polygon fill="#FEFECE" filter="url(#f12boa3i7v1b4)" points="296,1141.0972,308,1153.0972,296,1165.0972,284,1153.0972,296,1141.0972" style="stroke: #A80036; stroke-width: 1.5;"/><rect fill="#FEFECE" filter="url(#f12boa3i7v1b4)" height="33.9688" rx="12.5" ry="12.5" style="stroke: #A80036; stroke-width: 1.5;" width="269" x="699.5" y="1127.9331"/><text fill="#000000" font-family="sans-serif" font-size="12" lengthAdjust="spacingAndGlyphs" textLength="249" x="709.5" y="1149.0718">get user that merged the preceding MR</text><polygon fill="#FEFECE" filter="url(#f12boa3i7v1b4)" points="803,1067.1284,865,1067.1284,877,1079.1284,865,1091.1284,803,1091.1284,791,1079.1284,803,1067.1284" style="stroke: #A80036; stroke-width: 1.5;"/><text fill="#000000" font-family="sans-serif" font-size="11" lengthAdjust="spacingAndGlyphs" textLength="84" x="838" y="1101.3389">ucascade user</text><text fill="#000000" font-family="sans-serif" font-size="11" lengthAdjust="spacingAndGlyphs" textLength="62" x="803" y="1082.9365">MR merger</text><text fill="#000000" font-family="sans-serif" font-size="11" lengthAdjust="spacingAndGlyphs" textLength="128" x="663" y="1076.5342">not the ucascade user</text><rect fill="#FEFECE" filter="url(#f12boa3i7v1b4)" height="33.9688" rx="12.5" ry="12.5" style="stroke: #A80036; stroke-width: 1.5;" width="424" x="622" y="1205.9019"/><text fill="#000000" font-family="sans-serif" font-size="12" lengthAdjust="spacingAndGlyphs" textLength="404" x="632" y="1227.0405">update MR to set its assignees to the MR assignees and merger</text><polygon fill="#FEFECE" filter="url(#f12boa3i7v1b4)" points="565,1249.8706,565,1249.8706,577,1261.8706,565,1273.8706,565,1273.8706,553,1261.8706,565,1249.8706" style="stroke: #A80036; stroke-width: 1.5;"/><polygon fill="#FEFECE" filter="url(#f12boa3i7v1b4)" points="300.25,1279.8706,312.25,1291.8706,300.25,1303.8706,288.25,1291.8706,300.25,1279.8706" style="stroke: #A80036; stroke-width: 1.5;"/><rect fill="#FF0000" filter="url(#f12boa3i7v1b4)" height="33.9688" rx="12.5" ry="12.5" style="stroke: #A80036; stroke-width: 1.5;" width="130" x="1076" y="400.7422"/><text fill="#000000" font-family="sans-serif" font-size="12" lengthAdjust="spacingAndGlyphs" textLength="110" x="1086" y="421.8809">discard with error</text><polygon fill="#FEFECE" filter="url(#f12boa3i7v1b4)" points="720.625,1309.8706,732.625,1321.8706,720.625,1333.8706,708.625,1321.8706,720.625,1309.8706" style="stroke: #A80036; stroke-width: 1.5;"/><rect fill="#FEFECE" filter="url(#f12boa3i7v1b4)" height="33.9688" rx="12.5" ry="12.5" style="stroke: #A80036; stroke-width: 1.5;" width="105" x="1236" y="366.7422"/><text fill="#000000" font-family="sans-serif" font-size="12" lengthAdjust="spacingAndGlyphs" textLength="85" x="1246" y="387.8809">nothing to do</text><polygon fill="#FEFECE" filter="url(#f12boa3i7v1b4)" points="1004.5625,1339.8706,1016.5625,1351.8706,1004.5625,1363.8706,992.5625,1351.8706,1004.5625,1339.8706" style="stroke: #A80036; stroke-width: 1.5;"/><rect fill="#FEFECE" filter="url(#f12boa3i7v1b4)" height="33.9688" rx="12.5" ry="12.5" style="stroke: #A80036; stroke-width: 1.5;" width="177" x="1391.5" y="278.7734"/><text fill="#000000" font-family="sans-serif" font-size="12" lengthAdjust="spacingAndGlyphs" textLength="157" x="1401.5" y="299.9121">delete MR source branch</text><rect fill="#FEFECE" filter="url(#f12boa3i7v1b4)" height="33.9688" rx="12.5" ry="12.5" style="stroke: #A80036; stroke-width: 1.5;" width="73" x="1443.5" y="429.5469"/><text fill="#000000" font-family="sans-serif" font-size="12" lengthAdjust="spacingAndGlyphs" textLength="53" x="1453.5" y="450.6855">sleep 5s</text><polygon fill="#FEFECE" filter="url(#f12boa3i7v1b4)" points="1409,381.1445,1551,381.1445,1563,393.1445,1551,405.1445,1409,405.1445,1397,393.1445,1409,381.1445" style="stroke: #A80036; stroke-width: 1.5;"/><text fill="#000000" font-family="sans-serif" font-size="11" lengthAdjust="spacingAndGlyphs" textLength="20" x="1484" y="415.355">yes</text><text fill="#000000" font-family="sans-serif" font-size="11" lengthAdjust="spacingAndGlyphs" textLength="142" x="1409" y="396.9526">oldest one has conflicts?</text><polygon fill="#FEFECE" filter="url(#f12boa3i7v1b4)" points="1480,487.918,1492,499.918,1480,511.918,1468,499.918,1480,487.918" style="stroke: #A80036; stroke-width: 1.5;"/><rect fill="#FEFECE" filter="url(#f12boa3i7v1b4)" height="33.9688" rx="12.5" ry="12.5" style="stroke: #A80036; stroke-width: 1.5;" width="198" x="1381" y="540.1563"/><text fill="#000000" font-family="sans-serif" font-size="12" lengthAdjust="spacingAndGlyphs" textLength="178" x="1391" y="561.2949">merge oldest concurrent MR</text><polygon fill="#FEFECE" filter="url(#f12boa3i7v1b4)" points="1383,332.7422,1577,332.7422,1589,344.7422,1577,356.7422,1383,356.7422,1371,344.7422,1383,332.7422" style="stroke: #A80036; stroke-width: 1.5;"/><text fill="#000000" font-family="sans-serif" font-size="11" lengthAdjust="spacingAndGlyphs" textLength="20" x="1484" y="366.9526">yes</text><text fill="#000000" font-family="sans-serif" font-size="11" lengthAdjust="spacingAndGlyphs" textLength="194" x="1383" y="348.5503">concurrent open auto MR(s) exist?</text><polygon fill="#FEFECE" filter="url(#f12boa3i7v1b4)" points="1480,598.5273,1492,610.5273,1480,622.5273,1468,610.5273,1480,598.5273" style="stroke: #A80036; stroke-width: 1.5;"/><polygon fill="#FEFECE" filter="url(#f12boa3i7v1b4)" points="1242.2813,1369.8706,1254.2813,1381.8706,1242.2813,1393.8706,1230.2813,1381.8706,1242.2813,1369.8706" style="stroke: #A80036; stroke-width: 1.5;"/><polygon fill="#FEFECE" filter="url(#f12boa3i7v1b4)" points="1195.2813,142.4023,1289.2813,142.4023,1301.2813,154.4023,1289.2813,166.4023,1195.2813,166.4023,1183.2813,154.4023,1195.2813,142.4023" style="stroke: #A80036; stroke-width: 1.5;"/><text fill="#000000" font-family="sans-serif" font-size="11" lengthAdjust="spacingAndGlyphs" textLength="20" x="1246.2813" y="176.6128">yes</text><text fill="#000000" font-family="sans-serif" font-size="11" lengthAdjust="spacingAndGlyphs" textLength="94" x="1195.2813" y="158.2104">request is valid?</text><polygon fill="#FEFECE" filter="url(#f12boa3i7v1b4)" points="1242.2813,1413.8706,1254.2813,1425.8706,1242.2813,1437.8706,1230.2813,1425.8706,1242.2813,1413.8706" style="stroke: #A80036; stroke-width: 1.5;"/><polygon fill="#FEFECE" filter="url(#f12boa3i7v1b4)" points="1189.7813,94,1294.7813,94,1306.7813,106,1294.7813,118,1189.7813,118,1177.7813,106,1189.7813,94" style="stroke: #A80036; stroke-width: 1.5;"/><text fill="#000000" font-family="sans-serif" font-size="11" lengthAdjust="spacingAndGlyphs" textLength="20" x="1246.2813" y="128.2104">yes</text><text fill="#000000" font-family="sans-serif" font-size="11" lengthAdjust="spacingAndGlyphs" textLength="105" x="1189.7813" y="109.8081">incoming request?</text><polygon fill="#FEFECE" filter="url(#f12boa3i7v1b4)" points="1242.2813,1457.8706,1254.2813,1469.8706,1242.2813,1481.8706,1230.2813,1469.8706,1242.2813,1457.8706" style="stroke: #A80036; stroke-width: 1.5;"/><polygon fill="#FEFECE" filter="url(#f12boa3i7v1b4)" points="1242.2813,50,1254.2813,62,1242.2813,74,1230.2813,62,1242.2813,50" style="stroke: #A80036; stroke-width: 1.5;"/><line style="stroke: #A80036; stroke-width: 1.5;" x1="300.25" x2="300.25" y1="434.7109" y2="469.7109"/><polygon fill="#A80036" points="296.25,459.7109,300.25,469.7109,304.25,459.7109,300.25,463.7109" style="stroke: #A80036; stroke-width: 1.0;"/><line style="stroke: #A80036; stroke-width: 1.5;" x1="300.25" x2="300.25" y1="555.918" y2="580.3203"/><polygon fill="#A80036" points="296.25,570.3203,300.25,580.3203,304.25,570.3203,300.25,574.3203" style="stroke: #A80036; stroke-width: 1.0;"/><line style="stroke: #A80036; stroke-width: 1.5;" x1="384.25" x2="513.25" y1="543.918" y2="543.918"/><polygon fill="#A80036" points="509.25,587.3047,513.25,597.3047,517.25,587.3047,513.25,591.3047" style="stroke: #A80036; stroke-width: 1.5;"/><line style="stroke: #A80036; stroke-width: 1.5;" x1="513.25" x2="513.25" y1="543.918" y2="650.6914"/><line style="stroke: #A80036; stroke-width: 1.5;" x1="513.25" x2="312.25" y1="650.6914" y2="650.6914"/><polygon fill="#A80036" points="322.25,646.6914,312.25,650.6914,322.25,654.6914,318.25,650.6914" style="stroke: #A80036; stroke-width: 1.0;"/><line style="stroke: #A80036; stroke-width: 1.5;" x1="300.25" x2="300.25" y1="614.2891" y2="638.6914"/><polygon fill="#A80036" points="296.25,628.6914,300.25,638.6914,304.25,628.6914,300.25,632.6914" style="stroke: #A80036; stroke-width: 1.0;"/><line style="stroke: #A80036; stroke-width: 1.5;" x1="300.25" x2="300.25" y1="503.6797" y2="531.918"/><polygon fill="#A80036" points="296.25,521.918,300.25,531.918,304.25,521.918,300.25,525.918" style="stroke: #A80036; stroke-width: 1.0;"/><line style="stroke: #A80036; stroke-width: 1.5;" x1="300.25" x2="300.25" y1="662.6914" y2="682.6914"/><polygon fill="#A80036" points="296.25,672.6914,300.25,682.6914,304.25,672.6914,300.25,676.6914" style="stroke: #A80036; stroke-width: 1.0;"/><line style="stroke: #A80036; stroke-width: 1.5;" x1="300.25" x2="300.25" y1="829.4878" y2="856.3862"/><polygon fill="#A80036" points="296.25,846.3862,300.25,856.3862,304.25,846.3862,300.25,850.3862" style="stroke: #A80036; stroke-width: 1.0;"/><line style="stroke: #A80036; stroke-width: 1.5;" x1="300.25" x2="300.25" y1="890.355" y2="910.355"/><polygon fill="#A80036" points="296.25,900.355,300.25,910.355,304.25,900.355,300.25,904.355" style="stroke: #A80036; stroke-width: 1.0;"/><line style="stroke: #A80036; stroke-width: 1.5;" x1="300.25" x2="300.25" y1="763.8086" y2="795.519"/><polygon fill="#A80036" points="296.25,785.519,300.25,795.519,304.25,785.519,300.25,789.519" style="stroke: #A80036; stroke-width: 1.0;"/><line style="stroke: #A80036; stroke-width: 1.5;" x1="300.25" x2="300.25" y1="944.3237" y2="954.3237"/><line style="stroke: #A80036; stroke-width: 1.5;" x1="300.25" x2="572.75" y1="954.3237" y2="954.3237"/><polygon fill="#A80036" points="568.75,864.9683,572.75,854.9683,576.75,864.9683,572.75,860.9683" style="stroke: #A80036; stroke-width: 1.5;"/><line style="stroke: #A80036; stroke-width: 1.5;" x1="572.75" x2="572.75" y1="751.8086" y2="954.3237"/><line style="stroke: #A80036; stroke-width: 1.5;" x1="572.75" x2="552.25" y1="751.8086" y2="751.8086"/><polygon fill="#A80036" points="562.25,747.8086,552.25,751.8086,562.25,755.8086,558.25,751.8086" style="stroke: #A80036; stroke-width: 1.0;"/><line style="stroke: #A80036; stroke-width: 1.5;" x1="48.25" x2="36.25" y1="751.8086" y2="751.8086"/><polygon fill="#A80036" points="32.25,850.9683,36.25,860.9683,40.25,850.9683,36.25,854.9683" style="stroke: #A80036; stroke-width: 1.5;"/><line style="stroke: #A80036; stroke-width: 1.5;" x1="36.25" x2="36.25" y1="751.8086" y2="966.3237"/><line style="stroke: #A80036; stroke-width: 1.5;" x1="36.25" x2="300.25" y1="966.3237" y2="966.3237"/><line style="stroke: #A80036; stroke-width: 1.5;" x1="300.25" x2="300.25" y1="966.3237" y2="986.3237"/><polygon fill="#A80036" points="296.25,976.3237,300.25,986.3237,304.25,976.3237,300.25,980.3237" style="stroke: #A80036; stroke-width: 1.0;"/><line style="stroke: #A80036; stroke-width: 1.5;" x1="300.25" x2="300.25" y1="716.6602" y2="739.8086"/><polygon fill="#A80036" points="296.25,729.8086,300.25,739.8086,304.25,729.8086,300.25,733.8086" style="stroke: #A80036; stroke-width: 1.0;"/><line style="stroke: #A80036; stroke-width: 1.5;" x1="229" x2="198" y1="1079.1284" y2="1079.1284"/><line style="stroke: #A80036; stroke-width: 1.5;" x1="198" x2="198" y1="1079.1284" y2="1101.1284"/><polygon fill="#A80036" points="194,1091.1284,198,1101.1284,202,1091.1284,198,1095.1284" style="stroke: #A80036; stroke-width: 1.0;"/><line style="stroke: #A80036; stroke-width: 1.5;" x1="363" x2="394" y1="1079.1284" y2="1079.1284"/><line style="stroke: #A80036; stroke-width: 1.5;" x1="394" x2="394" y1="1079.1284" y2="1101.1284"/><polygon fill="#A80036" points="390,1091.1284,394,1101.1284,398,1091.1284,394,1095.1284" style="stroke: #A80036; stroke-width: 1.0;"/><line style="stroke: #A80036; stroke-width: 1.5;" x1="198" x2="198" y1="1135.0972" y2="1153.0972"/><line style="stroke: #A80036; stroke-width: 1.5;" x1="198" x2="284" y1="1153.0972" y2="1153.0972"/><polygon fill="#A80036" points="274,1149.0972,284,1153.0972,274,1157.0972,278,1153.0972" style="stroke: #A80036; stroke-width: 1.0;"/><line style="stroke: #A80036; stroke-width: 1.5;" x1="394" x2="394" y1="1135.0972" y2="1153.0972"/><line style="stroke: #A80036; stroke-width: 1.5;" x1="394" x2="308" y1="1153.0972" y2="1153.0972"/><polygon fill="#A80036" points="318,1149.0972,308,1153.0972,318,1157.0972,314,1153.0972" style="stroke: #A80036; stroke-width: 1.0;"/><line style="stroke: #A80036; stroke-width: 1.5;" x1="834" x2="834" y1="1091.1284" y2="1127.9331"/><polygon fill="#A80036" points="830,1117.9331,834,1127.9331,838,1117.9331,834,1121.9331" style="stroke: #A80036; stroke-width: 1.0;"/><line style="stroke: #A80036; stroke-width: 1.5;" x1="834" x2="834" y1="1161.9019" y2="1173.9019"/><line style="stroke: #A80036; stroke-width: 1.5;" x1="834" x2="980.5" y1="1173.9019" y2="1173.9019"/><polygon fill="#A80036" points="976.5,1136.5151,980.5,1126.5151,984.5,1136.5151,980.5,1132.5151" style="stroke: #A80036; stroke-width: 1.5;"/><line style="stroke: #A80036; stroke-width: 1.5;" x1="980.5" x2="980.5" y1="1079.1284" y2="1173.9019"/><line style="stroke: #A80036; stroke-width: 1.5;" x1="980.5" x2="877" y1="1079.1284" y2="1079.1284"/><polygon fill="#A80036" points="887,1075.1284,877,1079.1284,887,1083.1284,883,1079.1284" style="stroke: #A80036; stroke-width: 1.0;"/><line style="stroke: #A80036; stroke-width: 1.5;" x1="791" x2="687.5" y1="1079.1284" y2="1079.1284"/><polygon fill="#A80036" points="683.5,1122.5151,687.5,1132.5151,691.5,1122.5151,687.5,1126.5151" style="stroke: #A80036; stroke-width: 1.5;"/><line style="stroke: #A80036; stroke-width: 1.5;" x1="687.5" x2="687.5" y1="1079.1284" y2="1185.9019"/><line style="stroke: #A80036; stroke-width: 1.5;" x1="687.5" x2="834" y1="1185.9019" y2="1185.9019"/><line style="stroke: #A80036; stroke-width: 1.5;" x1="834" x2="834" y1="1185.9019" y2="1205.9019"/><polygon fill="#A80036" points="830,1195.9019,834,1205.9019,838,1195.9019,834,1199.9019" style="stroke: #A80036; stroke-width: 1.0;"/><line style="stroke: #A80036; stroke-width: 1.5;" x1="311" x2="296" y1="1032.3237" y2="1032.3237"/><line style="stroke: #A80036; stroke-width: 1.5;" x1="296" x2="296" y1="1032.3237" y2="1067.1284"/><polygon fill="#A80036" points="292,1057.1284,296,1067.1284,300,1057.1284,296,1061.1284" style="stroke: #A80036; stroke-width: 1.0;"/><text fill="#000000" font-family="sans-serif" font-size="11" lengthAdjust="spacingAndGlyphs" textLength="20" x="296" y="1053.5342">yes</text><line style="stroke: #A80036; stroke-width: 1.5;" x1="819" x2="834" y1="1032.3237" y2="1032.3237"/><line style="stroke: #A80036; stroke-width: 1.5;" x1="834" x2="834" y1="1032.3237" y2="1067.1284"/><polygon fill="#A80036" points="830,1057.1284,834,1067.1284,838,1057.1284,834,1061.1284" style="stroke: #A80036; stroke-width: 1.0;"/><text fill="#000000" font-family="sans-serif" font-size="11" lengthAdjust="spacingAndGlyphs" textLength="14" x="834" y="1053.5342">no</text><line style="stroke: #A80036; stroke-width: 1.5;" x1="296" x2="296" y1="1165.0972" y2="1261.8706"/><line style="stroke: #A80036; stroke-width: 1.5;" x1="296" x2="553" y1="1261.8706" y2="1261.8706"/><polygon fill="#A80036" points="543,1257.8706,553,1261.8706,543,1265.8706,547,1261.8706" style="stroke: #A80036; stroke-width: 1.0;"/><line style="stroke: #A80036; stroke-width: 1.5;" x1="834" x2="834" y1="1239.8706" y2="1261.8706"/><line style="stroke: #A80036; stroke-width: 1.5;" x1="834" x2="577" y1="1261.8706" y2="1261.8706"/><polygon fill="#A80036" points="587,1257.8706,577,1261.8706,587,1265.8706,583,1261.8706" style="stroke: #A80036; stroke-width: 1.0;"/><line style="stroke: #A80036; stroke-width: 1.5;" x1="240.75" x2="35.5" y1="998.3237" y2="998.3237"/><line style="stroke: #A80036; stroke-width: 1.5;" x1="35.5" x2="35.5" y1="998.3237" y2="1020.3237"/><polygon fill="#A80036" points="31.5,1010.3237,35.5,1020.3237,39.5,1010.3237,35.5,1014.3237" style="stroke: #A80036; stroke-width: 1.0;"/><line style="stroke: #A80036; stroke-width: 1.5;" x1="359.75" x2="565" y1="998.3237" y2="998.3237"/><line style="stroke: #A80036; stroke-width: 1.5;" x1="565" x2="565" y1="998.3237" y2="1020.3237"/><polygon fill="#A80036" points="561,1010.3237,565,1020.3237,569,1010.3237,565,1014.3237" style="stroke: #A80036; stroke-width: 1.0;"/><line style="stroke: #A80036; stroke-width: 1.5;" x1="35.5" x2="35.5" y1="1054.2925" y2="1291.8706"/><line style="stroke: #A80036; stroke-width: 1.5;" x1="35.5" x2="288.25" y1="1291.8706" y2="1291.8706"/><polygon fill="#A80036" points="278.25,1287.8706,288.25,1291.8706,278.25,1295.8706,282.25,1291.8706" style="stroke: #A80036; stroke-width: 1.0;"/><line style="stroke: #A80036; stroke-width: 1.5;" x1="565" x2="565" y1="1273.8706" y2="1291.8706"/><line style="stroke: #A80036; stroke-width: 1.5;" x1="565" x2="312.25" y1="1291.8706" y2="1291.8706"/><polygon fill="#A80036" points="322.25,1287.8706,312.25,1291.8706,322.25,1295.8706,318.25,1291.8706" style="stroke: #A80036; stroke-width: 1.0;"/><line style="stroke: #A80036; stroke-width: 1.5;" x1="614.625" x2="300.25" y1="378.7422" y2="378.7422"/><line style="stroke: #A80036; stroke-width: 1.5;" x1="300.25" x2="300.25" y1="378.7422" y2="400.7422"/><polygon fill="#A80036" points="296.25,390.7422,300.25,400.7422,304.25,390.7422,300.25,394.7422" style="stroke: #A80036; stroke-width: 1.0;"/><line style="stroke: #A80036; stroke-width: 1.5;" x1="826.625" x2="1141" y1="378.7422" y2="378.7422"/><line style="stroke: #A80036; stroke-width: 1.5;" x1="1141" x2="1141" y1="378.7422" y2="400.7422"/><polygon fill="#A80036" points="1137,390.7422,1141,400.7422,1145,390.7422,1141,394.7422" style="stroke: #A80036; stroke-width: 1.0;"/><line style="stroke: #A80036; stroke-width: 1.5;" x1="300.25" x2="300.25" y1="1303.8706" y2="1321.8706"/><line style="stroke: #A80036; stroke-width: 1.5;" x1="300.25" x2="708.625" y1="1321.8706" y2="1321.8706"/><polygon fill="#A80036" points="698.625,1317.8706,708.625,1321.8706,698.625,1325.8706,702.625,1321.8706" style="stroke: #A80036; stroke-width: 1.0;"/><line style="stroke: #A80036; stroke-width: 1.5;" x1="1141" x2="1141" y1="434.7109" y2="1321.8706"/><line style="stroke: #A80036; stroke-width: 1.5;" x1="1141" x2="732.625" y1="1321.8706" y2="1321.8706"/><polygon fill="#A80036" points="742.625,1317.8706,732.625,1321.8706,742.625,1325.8706,738.625,1321.8706" style="stroke: #A80036; stroke-width: 1.0;"/><line style="stroke: #A80036; stroke-width: 1.5;" x1="905.5625" x2="720.625" y1="344.7422" y2="344.7422"/><line style="stroke: #A80036; stroke-width: 1.5;" x1="720.625" x2="720.625" y1="344.7422" y2="366.7422"/><polygon fill="#A80036" points="716.625,356.7422,720.625,366.7422,724.625,356.7422,720.625,360.7422" style="stroke: #A80036; stroke-width: 1.0;"/><line style="stroke: #A80036; stroke-width: 1.5;" x1="1103.5625" x2="1288.5" y1="344.7422" y2="344.7422"/><line style="stroke: #A80036; stroke-width: 1.5;" x1="1288.5" x2="1288.5" y1="344.7422" y2="366.7422"/><polygon fill="#A80036" points="1284.5,356.7422,1288.5,366.7422,1292.5,356.7422,1288.5,360.7422" style="stroke: #A80036; stroke-width: 1.0;"/><line style="stroke: #A80036; stroke-width: 1.5;" x1="720.625" x2="720.625" y1="1333.8706" y2="1351.8706"/><line style="stroke: #A80036; stroke-width: 1.5;" x1="720.625" x2="992.5625" y1="1351.8706" y2="1351.8706"/><polygon fill="#A80036" points="982.5625,1347.8706,992.5625,1351.8706,982.5625,1355.8706,986.5625,1351.8706" style="stroke: #A80036; stroke-width: 1.0;"/><line style="stroke: #A80036; stroke-width: 1.5;" x1="1288.5" x2="1288.5" y1="400.7109" y2="1351.8706"/><line style="stroke: #A80036; stroke-width: 1.5;" x1="1288.5" x2="1016.5625" y1="1351.8706" y2="1351.8706"/><polygon fill="#A80036" points="1026.5625,1347.8706,1016.5625,1351.8706,1026.5625,1355.8706,1022.5625,1351.8706" style="stroke: #A80036; stroke-width: 1.0;"/><line style="stroke: #A80036; stroke-width: 1.5;" x1="1004.5625" x2="1004.5625" y1="312.7422" y2="332.7422"/><polygon fill="#A80036" points="1000.5625,322.7422,1004.5625,332.7422,1008.5625,322.7422,1004.5625,326.7422" style="stroke: #A80036; stroke-width: 1.0;"/><line style="stroke: #A80036; stroke-width: 1.5;" x1="1480" x2="1480" y1="405.1445" y2="429.5469"/><polygon fill="#A80036" points="1476,419.5469,1480,429.5469,1484,419.5469,1480,423.5469" style="stroke: #A80036; stroke-width: 1.0;"/><line style="stroke: #A80036; stroke-width: 1.5;" x1="1563" x2="1575" y1="393.1445" y2="393.1445"/><polygon fill="#A80036" points="1571,436.5313,1575,446.5313,1579,436.5313,1575,440.5313" style="stroke: #A80036; stroke-width: 1.5;"/><line style="stroke: #A80036; stroke-width: 1.5;" x1="1575" x2="1575" y1="393.1445" y2="499.918"/><line style="stroke: #A80036; stroke-width: 1.5;" x1="1575" x2="1492" y1="499.918" y2="499.918"/><polygon fill="#A80036" points="1502,495.918,1492,499.918,1502,503.918,1498,499.918" style="stroke: #A80036; stroke-width: 1.0;"/><line style="stroke: #A80036; stroke-width: 1.5;" x1="1480" x2="1480" y1="463.5156" y2="487.918"/><polygon fill="#A80036" points="1476,477.918,1480,487.918,1484,477.918,1480,481.918" style="stroke: #A80036; stroke-width: 1.0;"/><line style="stroke: #A80036; stroke-width: 1.5;" x1="1480" x2="1480" y1="511.918" y2="540.1563"/><polygon fill="#A80036" points="1476,530.1563,1480,540.1563,1484,530.1563,1480,534.1563" style="stroke: #A80036; stroke-width: 1.0;"/><line style="stroke: #A80036; stroke-width: 1.5;" x1="1480" x2="1480" y1="356.7422" y2="381.1445"/><polygon fill="#A80036" points="1476,371.1445,1480,381.1445,1484,371.1445,1480,375.1445" style="stroke: #A80036; stroke-width: 1.0;"/><line style="stroke: #A80036; stroke-width: 1.5;" x1="1589" x2="1601" y1="344.7422" y2="344.7422"/><polygon fill="#A80036" points="1597,471.0156,1601,481.0156,1605,471.0156,1601,475.0156" style="stroke: #A80036; stroke-width: 1.5;"/><line style="stroke: #A80036; stroke-width: 1.5;" x1="1601" x2="1601" y1="344.7422" y2="610.5273"/><line style="stroke: #A80036; stroke-width: 1.5;" x1="1601" x2="1492" y1="610.5273" y2="610.5273"/><polygon fill="#A80036" points="1502,606.5273,1492,610.5273,1502,614.5273,1498,610.5273" style="stroke: #A80036; stroke-width: 1.0;"/><line style="stroke: #A80036; stroke-width: 1.5;" x1="1480" x2="1480" y1="574.125" y2="598.5273"/><polygon fill="#A80036" points="1476,588.5273,1480,598.5273,1484,588.5273,1480,592.5273" style="stroke: #A80036; stroke-width: 1.0;"/><line style="stroke: #A80036; stroke-width: 1.5;" x1="1480" x2="1480" y1="312.7422" y2="332.7422"/><polygon fill="#A80036" points="1476,322.7422,1480,332.7422,1484,322.7422,1480,326.7422" style="stroke: #A80036; stroke-width: 1.0;"/><line style="stroke: #A80036; stroke-width: 1.5;" x1="1165.7813" x2="1004.5625" y1="256.7734" y2="256.7734"/><line style="stroke: #A80036; stroke-width: 1.5;" x1="1004.5625" x2="1004.5625" y1="256.7734" y2="278.7734"/><polygon fill="#A80036" points="1000.5625,268.7734,1004.5625,278.7734,1008.5625,268.7734,1004.5625,272.7734" style="stroke: #A80036; stroke-width: 1.0;"/><line style="stroke: #A80036; stroke-width: 1.5;" x1="1318.7813" x2="1480" y1="256.7734" y2="256.7734"/><line style="stroke: #A80036; stroke-width: 1.5;" x1="1480" x2="1480" y1="256.7734" y2="278.7734"/><polygon fill="#A80036" points="1476,268.7734,1480,278.7734,1484,268.7734,1480,272.7734" style="stroke: #A80036; stroke-width: 1.0;"/><line style="stroke: #A80036; stroke-width: 1.5;" x1="1004.5625" x2="1004.5625" y1="1363.8706" y2="1381.8706"/><line style="stroke: #A80036; stroke-width: 1.5;" x1="1004.5625" x2="1230.2813" y1="1381.8706" y2="1381.8706"/><polygon fill="#A80036" points="1220.2813,1377.8706,1230.2813,1381.8706,1220.2813,1385.8706,1224.2813,1381.8706" style="stroke: #A80036; stroke-width: 1.0;"/><line style="stroke: #A80036; stroke-width: 1.5;" x1="1480" x2="1480" y1="622.5273" y2="1381.8706"/><line style="stroke: #A80036; stroke-width: 1.5;" x1="1480" x2="1254.2813" y1="1381.8706" y2="1381.8706"/><polygon fill="#A80036" points="1264.2813,1377.8706,1254.2813,1381.8706,1264.2813,1385.8706,1260.2813,1381.8706" style="stroke: #A80036; stroke-width: 1.0;"/><line style="stroke: #A80036; stroke-width: 1.5;" x1="1242.2813" x2="1242.2813" y1="224.7734" y2="244.7734"/><polygon fill="#A80036" points="1238.2813,234.7734,1242.2813,244.7734,1246.2813,234.7734,1242.2813,238.7734" style="stroke: #A80036; stroke-width: 1.0;"/><line style="stroke: #A80036; stroke-width: 1.5;" x1="1242.2813" x2="1242.2813" y1="166.4023" y2="190.8047"/><polygon fill="#A80036" points="1238.2813,180.8047,1242.2813,190.8047,1246.2813,180.8047,1242.2813,184.8047" style="stroke: #A80036; stroke-width: 1.0;"/><line style="stroke: #A80036; stroke-width: 1.5;" x1="1301.2813" x2="1619" y1="154.4023" y2="154.4023"/><polygon fill="#A80036" points="1615,822.3862,1619,832.3862,1623,822.3862,1619,826.3862" style="stroke: #A80036; stroke-width: 1.5;"/><line style="stroke: #A80036; stroke-width: 1.5;" x1="1619" x2="1619" y1="154.4023" y2="1425.8706"/><line style="stroke: #A80036; stroke-width: 1.5;" x1="1619" x2="1254.2813" y1="1425.8706" y2="1425.8706"/><polygon fill="#A80036" points="1264.2813,1421.8706,1254.2813,1425.8706,1264.2813,1429.8706,1260.2813,1425.8706" style="stroke: #A80036; stroke-width: 1.0;"/><line style="stroke: #A80036; stroke-width: 1.5;" x1="1242.2813" x2="1242.2813" y1="1393.8706" y2="1413.8706"/><polygon fill="#A80036" points="1238.2813,1403.8706,1242.2813,1413.8706,1246.2813,1403.8706,1242.2813,1407.8706" style="stroke: #A80036; stroke-width: 1.0;"/><line style="stroke: #A80036; stroke-width: 1.5;" x1="1242.2813" x2="1242.2813" y1="118" y2="142.4023"/><polygon fill="#A80036" points="1238.2813,132.4023,1242.2813,142.4023,1246.2813,132.4023,1242.2813,136.4023" style="stroke: #A80036; stroke-width: 1.0;"/><line style="stroke: #A80036; stroke-width: 1.5;" x1="1306.7813" x2="1637" y1="106" y2="106"/><polygon fill="#A80036" points="1633,822.3862,1637,832.3862,1641,822.3862,1637,826.3862" style="stroke: #A80036; stroke-width: 1.5;"/><line style="stroke: #A80036; stroke-width: 1.5;" x1="1637" x2="1637" y1="106" y2="1469.8706"/><line style="stroke: #A80036; stroke-width: 1.5;" x1="1637" x2="1254.2813" y1="1469.8706" y2="1469.8706"/><polygon fill="#A80036" points="1264.2813,1465.8706,1254.2813,1469.8706,1264.2813,1473.8706,1260.2813,1469.8706" style="stroke: #A80036; stroke-width: 1.0;"/><line style="stroke: #A80036; stroke-width: 1.5;" x1="1242.2813" x2="1242.2813" y1="1437.8706" y2="1457.8706"/><polygon fill="#A80036" points="1238.2813,1447.8706,1242.2813,1457.8706,1246.2813,1447.8706,1242.2813,1451.8706" style="stroke: #A80036; stroke-width: 1.0;"/><line style="stroke: #A80036; stroke-width: 1.5;" x1="1242.2813" x2="1242.2813" y1="74" y2="94"/><polygon fill="#A80036" points="1238.2813,84,1242.2813,94,1246.2813,84,1242.2813,88" style="stroke: #A80036; stroke-width: 1.0;"/><line style="stroke: #A80036; stroke-width: 1.5;" x1="1242.2813" x2="1242.2813" y1="1481.8706" y2="1529.8706"/><line style="stroke: #A80036; stroke-width: 1.5;" x1="1242.2813" x2="1655" y1="1529.8706" y2="1529.8706"/><polygon fill="#A80036" points="1651,836.3862,1655,826.3862,1659,836.3862,1655,832.3862" style="stroke: #A80036; stroke-width: 1.5;"/><line style="stroke: #A80036; stroke-width: 1.5;" x1="1655" x2="1655" y1="62" y2="1529.8706"/><line style="stroke: #A80036; stroke-width: 1.5;" x1="1655" x2="1254.2813" y1="62" y2="62"/><polygon fill="#A80036" points="1264.2813,58,1254.2813,62,1264.2813,66,1260.2813,62" style="stroke: #A80036; stroke-width: 1.0;"/><line style="stroke: #A80036; stroke-width: 1.5;" x1="1242.2813" x2="1242.2813" y1="30" y2="50"/><polygon fill="#A80036" points="1238.2813,40,1242.2813,50,1246.2813,40,1242.2813,44" style="stroke: #A80036; stroke-width: 1.0;"/><!--MD5=[616cf62d02c106550cab8d7e15d85284]
@startuml technical-workflow
start
repeat
if (incoming request?) then (yes)
    if (request is valid?) then (yes)
        :fetch properties from the MergeRequestEvent object;
        if (merge-request action?) then (MERGE)
            :try to read nextMainBranch from configuration file;
            if (nextMainBranch is configured?) then (yes)
                if (nextMainBranch exists remotely?) then (yes)
                    :create new branch from targetBranch;
                    :create new MR from the new branch into the nextMainBranch;
                    if (apiTokenApprover is set?) then (yes)
                        :approve the just created MR as that user (apiTokenApprover);
                    else (no)
                    endif
                    #SkyBlue:initialize countDown from 60;
                    note right 
                        Timeout to avoid the possibility
                        of getting stuck in the loop forever
                    end note
                    while(MRStatus == unchecked|checking|preparing|approvals_syncing and countdown > 0?) is (yes)
                        #SkyBlue:decrement countDown by 1;
                        :sleep 1s;
                        note right: Wait for Gitlab to prepare MR
                        :update MRStatus from Gitlab;
                    endwhile (no)
                    if (countDown == 0) then (yes) 
                        :error;
                    else (no)
                        switch(Is MRStatus == mergeable|ci_still_running|ci_must_pass|status_checks_must_pass?)
                        case (yes)
                            if (MR has pipeline(s)?) then (yes)
                                :merge when pipeline succeeds;
                            else (no)
                                :merge immediately;
                            endif
                        case (no)
                            while(MR merger) is (ucascade user)
                                :get user that merged the preceding MR;
                            endwhile (not the ucascade user)
                            :update MR to set its assignees to the MR assignees and merger;
                        endswitch
                    endif
                else (no)
                    #red:discard with error;
                endif
                else (no)
                    :nothing to do;
            endif
        else (CLOSE)
            :delete MR source branch;
            if (concurrent open auto MR(s) exist?) then (yes)
                if (oldest one has conflicts?) then (yes)
                    :sleep 5s;
                endif
                :merge oldest concurrent MR;
            endif
        endif
    endif
endif
repeat while
@enduml

PlantUML version 1.2020.06(Sun Apr 05 12:38:32 GMT 2020)
(APACHE source distribution)
Java Runtime: OpenJDK Runtime Environment
JVM: OpenJDK 64-Bit Server VM
Java Version: 11.0.18+10
Operating System: Linux
Default Encoding: UTF-8
Language: en
Country: US
--></g></svg>