<?xml version="1.0" encoding="UTF-8" standalone="no"?><svg xmlns="http://www.w3.org/2000/svg" xmlns:xlink="http://www.w3.org/1999/xlink" contentScriptType="application/ecmascript" contentStyleType="text/css" height="1541px" preserveAspectRatio="none" style="width:1661px;height:1541px;" version="1.1" viewBox="0 0 1661 1541" width="1661px" zoomAndPan="magnify"><defs><filter height="300%" id="f1i7dp5o6m8wo4" width="300%" x="-1" y="-1"><feGaussianBlur result="blurOut" stdDeviation="2.0"/><feColorMatrix in="blurOut" result="blurOut2" type="matrix" values="0 0 0 0 0 0 0 0 0 0 0 0 0 0 0 0 0 0 .4 0"/><feOffset dx="4.0" dy="4.0" in="blurOut2" result="blurOut3"/><feBlend in="SourceGraphic" in2="blurOut3" mode="normal"/></filter></defs><g><ellipse cx="1222.2813" cy="20" fill="#000000" filter="url(#f1i7dp5o6m8wo4)" rx="10" ry="10" style="stroke: none; stroke-width: 1.0;"/><rect fill="#FEFECE" filter="url(#f1i7dp5o6m8wo4)" height="33.9688" rx="12.5" ry="12.5" style="stroke: #A80036; stroke-width: 1.5;" width="351" x="1046.7813" y="190.8047"/><text fill="#000000" font-family="sans-serif" font-size="12" lengthAdjust="spacingAndGlyphs" textLength="331" x="1056.7813" y="211.9434">fetch properties from the MergeRequestEvent object</text><polygon fill="#FEFECE" filter="url(#f1i7dp5o6m8wo4)" points="1157.7813,244.7734,1286.7813,244.7734,1298.7813,256.7734,1286.7813,268.7734,1157.7813,268.7734,1145.7813,256.7734,1157.7813,244.7734" style="stroke: #A80036; stroke-width: 1.5;"/><text fill="#000000" font-family="sans-serif" font-size="11" lengthAdjust="spacingAndGlyphs" textLength="129" x="1157.7813" y="260.5815">merge-request action?</text><text fill="#000000" font-family="sans-serif" font-size="11" lengthAdjust="spacingAndGlyphs" textLength="39" x="1106.7813" y="254.1792">MERGE</text><text fill="#000000" font-family="sans-serif" font-size="11" lengthAdjust="spacingAndGlyphs" textLength="38" x="1298.7813" y="254.1792">CLOSE</text><rect fill="#FEFECE" filter="url(#f1i7dp5o6m8wo4)" height="33.9688" rx="12.5" ry="12.5" style="stroke: #A80036; stroke-width: 1.5;" width="331" x="819.0625" y="278.7734"/><text fill="#000000" font-family="sans-serif" font-size="12" lengthAdjust="spacingAndGlyphs" textLength="311" x="829.0625" y="299.9121">try to read nextMainBranch from configuration file</text><polygon fill="#FEFECE" filter="url(#f1i7dp5o6m8wo4)" points="897.5625,332.7422,1071.5625,332.7422,1083.5625,344.7422,1071.5625,356.7422,897.5625,356.7422,885.5625,344.7422,897.5625,332.7422" style="stroke: #A80036; stroke-width: 1.5;"/><text fill="#000000" font-family="sans-serif" font-size="11" lengthAdjust="spacingAndGlyphs" textLength="174" x="897.5625" y="348.5503">nextMainBranch is configured?</text><text fill="#000000" font-family="sans-serif" font-size="11" lengthAdjust="spacingAndGlyphs" textLength="20" x="865.5625" y="342.1479">yes</text><text fill="#000000" font-family="sans-serif" font-size="11" lengthAdjust="spacingAndGlyphs" textLength="14" x="1083.5625" y="342.1479">no</text><polygon fill="#FEFECE" filter="url(#f1i7dp5o6m8wo4)" points="606.625,366.7422,794.625,366.7422,806.625,378.7422,794.625,390.7422,606.625,390.7422,594.625,378.7422,606.625,366.7422" style="stroke: #A80036; stroke-width: 1.5;"/><text fill="#000000" font-family="sans-serif" font-size="11" lengthAdjust="spacingAndGlyphs" textLength="188" x="606.625" y="382.5503">nextMainBranch exists remotely?</text><text fill="#000000" font-family="sans-serif" font-size="11" lengthAdjust="spacingAndGlyphs" textLength="20" x="574.625" y="376.1479">yes</text><text fill="#000000" font-family="sans-serif" font-size="11" lengthAdjust="spacingAndGlyphs" textLength="14" x="806.625" y="376.1479">no</text><rect fill="#FEFECE" filter="url(#f1i7dp5o6m8wo4)" height="33.9688" rx="12.5" ry="12.5" style="stroke: #A80036; stroke-width: 1.5;" width="257" x="151.75" y="400.7422"/><text fill="#000000" font-family="sans-serif" font-size="12" lengthAdjust="spacingAndGlyphs" textLength="237" x="161.75" y="421.8809">create new branch from targetBranch</text><rect fill="#FEFECE" filter="url(#f1i7dp5o6m8wo4)" height="33.9688" rx="12.5" ry="12.5" style="stroke: #A80036; stroke-width: 1.5;" width="403" x="78.75" y="469.7109"/><text fill="#000000" font-family="sans-serif" font-size="12" lengthAdjust="spacingAndGlyphs" textLength="383" x="88.75" y="490.8496">create new MR from the new branch into the nextMainBranch</text><rect fill="#FEFECE" filter="url(#f1i7dp5o6m8wo4)" height="33.9688" rx="12.5" ry="12.5" style="stroke: #A80036; stroke-width: 1.5;" width="406" x="77.25" y="580.3203"/><text fill="#000000" font-family="sans-serif" font-size="12" lengthAdjust="spacingAndGlyphs" textLength="386" x="87.25" y="601.459">approve the just created MR as that user (apiTokenApprover)</text><polygon fill="#FEFECE" filter="url(#f1i7dp5o6m8wo4)" points="208.25,531.918,352.25,531.918,364.25,543.918,352.25,555.918,208.25,555.918,196.25,543.918,208.25,531.918" style="stroke: #A80036; stroke-width: 1.5;"/><text fill="#000000" font-family="sans-serif" font-size="11" lengthAdjust="spacingAndGlyphs" textLength="20" x="284.25" y="566.1284">yes</text><text fill="#000000" font-family="sans-serif" font-size="11" lengthAdjust="spacingAndGlyphs" textLength="144" x="208.25" y="547.7261">apiTokenApprover is set?</text><text fill="#000000" font-family="sans-serif" font-size="11" lengthAdjust="spacingAndGlyphs" textLength="14" x="364.25" y="541.3237">no</text><polygon fill="#FEFECE" filter="url(#f1i7dp5o6m8wo4)" points="280.25,638.6914,292.25,650.6914,280.25,662.6914,268.25,650.6914,280.25,638.6914" style="stroke: #A80036; stroke-width: 1.5;"/><path d="M397.75,679.543 L397.75,695.6758 L377.75,699.6758 L397.75,703.6758 L397.75,719.8086 A0,0 0 0 0 397.75,719.8086 L637.75,719.8086 A0,0 0 0 0 637.75,719.8086 L637.75,689.543 L627.75,679.543 L397.75,679.543 A0,0 0 0 0 397.75,679.543 " fill="#FBFB77" filter="url(#f1i7dp5o6m8wo4)" style="stroke: #A80036; stroke-width: 1.0;"/><path d="M627.75,679.543 L627.75,689.543 L637.75,689.543 L627.75,679.543 " fill="#FBFB77" style="stroke: #A80036; stroke-width: 1.0;"/><text fill="#000000" font-family="sans-serif" font-size="13" lengthAdjust="spacingAndGlyphs" textLength="198" x="403.75" y="696.6099">Timeout to avoid the possibility</text><text fill="#000000" font-family="sans-serif" font-size="13" lengthAdjust="spacingAndGlyphs" textLength="219" x="403.75" y="711.7427">of getting stuck in the loop forever</text><rect fill="#87CEEB" filter="url(#f1i7dp5o6m8wo4)" height="33.9688" rx="12.5" ry="12.5" style="stroke: #A80036; stroke-width: 1.5;" width="195" x="182.75" y="682.6914"/><text fill="#000000" font-family="sans-serif" font-size="12" lengthAdjust="spacingAndGlyphs" textLength="175" x="192.75" y="703.8301">initialize countDown from 60</text><rect fill="#87CEEB" filter="url(#f1i7dp5o6m8wo4)" height="33.9688" rx="12.5" ry="12.5" style="stroke: #A80036; stroke-width: 1.5;" width="192" x="184.25" y="795.519"/><text fill="#000000" font-family="sans-serif" font-size="12" lengthAdjust="spacingAndGlyphs" textLength="172" x="194.25" y="816.6577">decrement countDown by 1</text><path d="M336.75,860.8042 L336.75,869.3706 L316.75,873.3706 L336.75,877.3706 L336.75,885.937 A0,0 0 0 0 336.75,885.937 L540.75,885.937 A0,0 0 0 0 540.75,885.937 L540.75,870.8042 L530.75,860.8042 L336.75,860.8042 A0,0 0 0 0 336.75,860.8042 " fill="#FBFB77" filter="url(#f1i7dp5o6m8wo4)" style="stroke: #A80036; stroke-width: 1.0;"/><path d="M530.75,860.8042 L530.75,870.8042 L540.75,870.8042 L530.75,860.8042 " fill="#FBFB77" style="stroke: #A80036; stroke-width: 1.0;"/><text fill="#000000" font-family="sans-serif" font-size="13" lengthAdjust="spacingAndGlyphs" textLength="183" x="342.75" y="877.8711">Wait for Gitlab to prepare MR</text><rect fill="#FEFECE" filter="url(#f1i7dp5o6m8wo4)" height="33.9688" rx="12.5" ry="12.5" style="stroke: #A80036; stroke-width: 1.5;" width="73" x="243.75" y="856.3862"/><text fill="#000000" font-family="sans-serif" font-size="12" lengthAdjust="spacingAndGlyphs" textLength="53" x="253.75" y="877.5249">sleep 1s</text><rect fill="#FEFECE" filter="url(#f1i7dp5o6m8wo4)" height="33.9688" rx="12.5" ry="12.5" style="stroke: #A80036; stroke-width: 1.5;" width="200" x="180.25" y="910.355"/><text fill="#000000" font-family="sans-serif" font-size="12" lengthAdjust="spacingAndGlyphs" textLength="180" x="190.25" y="931.4937">update MRStatus from Gitlab</text><polygon fill="#FEFECE" filter="url(#f1i7dp5o6m8wo4)" points="124.25,739.8086,436.25,739.8086,448.25,751.8086,436.25,763.8086,124.25,763.8086,112.25,751.8086,124.25,739.8086" style="stroke: #A80036; stroke-width: 1.5;"/><text fill="#000000" font-family="sans-serif" font-size="11" lengthAdjust="spacingAndGlyphs" textLength="20" x="284.25" y="774.019">yes</text><text fill="#000000" font-family="sans-serif" font-size="11" lengthAdjust="spacingAndGlyphs" textLength="312" x="124.25" y="755.6167">MRStatus == unchecked|checking and countdown &gt; 0?</text><text fill="#000000" font-family="sans-serif" font-size="11" lengthAdjust="spacingAndGlyphs" textLength="14" x="98.25" y="749.2144">no</text><polygon fill="#FEFECE" filter="url(#f1i7dp5o6m8wo4)" points="232.75,986.3237,327.75,986.3237,339.75,998.3237,327.75,1010.3237,232.75,1010.3237,220.75,998.3237,232.75,986.3237" style="stroke: #A80036; stroke-width: 1.5;"/><text fill="#000000" font-family="sans-serif" font-size="11" lengthAdjust="spacingAndGlyphs" textLength="95" x="232.75" y="1002.1318">countDown == 0</text><text fill="#000000" font-family="sans-serif" font-size="11" lengthAdjust="spacingAndGlyphs" textLength="20" x="200.75" y="995.7295">yes</text><text fill="#000000" font-family="sans-serif" font-size="11" lengthAdjust="spacingAndGlyphs" textLength="14" x="339.75" y="995.7295">no</text><rect fill="#FEFECE" filter="url(#f1i7dp5o6m8wo4)" height="33.9688" rx="12.5" ry="12.5" style="stroke: #A80036; stroke-width: 1.5;" width="51" x="10" y="1020.3237"/><text fill="#000000" font-family="sans-serif" font-size="12" lengthAdjust="spacingAndGlyphs" textLength="31" x="20" y="1041.4624">error</text><polygon fill="#FEFECE" filter="url(#f1i7dp5o6m8wo4)" points="303,1020.3237,787,1020.3237,799,1032.3237,787,1044.3237,303,1044.3237,291,1032.3237,303,1020.3237" style="stroke: #A80036; stroke-width: 1.5;"/><text fill="#000000" font-family="sans-serif" font-size="11" lengthAdjust="spacingAndGlyphs" textLength="484" x="303" y="1036.1318">Is MRStatus == mergeable|ci_still_running|ci_must_pass|status_checks_must_pass?</text><polygon fill="#FEFECE" filter="url(#f1i7dp5o6m8wo4)" points="221,1067.1284,331,1067.1284,343,1079.1284,331,1091.1284,221,1091.1284,209,1079.1284,221,1067.1284" style="stroke: #A80036; stroke-width: 1.5;"/><text fill="#000000" font-family="sans-serif" font-size="11" lengthAdjust="spacingAndGlyphs" textLength="110" x="221" y="1082.9365">MR has pipeline(s)?</text><text fill="#000000" font-family="sans-serif" font-size="11" lengthAdjust="spacingAndGlyphs" textLength="20" x="189" y="1076.5342">yes</text><text fill="#000000" font-family="sans-serif" font-size="11" lengthAdjust="spacingAndGlyphs" textLength="14" x="343" y="1076.5342">no</text><rect fill="#FEFECE" filter="url(#f1i7dp5o6m8wo4)" height="33.9688" rx="12.5" ry="12.5" style="stroke: #A80036; stroke-width: 1.5;" width="214" x="71" y="1101.1284"/><text fill="#000000" font-family="sans-serif" font-size="12" lengthAdjust="spacingAndGlyphs" textLength="194" x="81" y="1122.2671">merge when pipeline succeeds</text><rect fill="#FEFECE" filter="url(#f1i7dp5o6m8wo4)" height="33.9688" rx="12.5" ry="12.5" style="stroke: #A80036; stroke-width: 1.5;" width="138" x="305" y="1101.1284"/><text fill="#000000" font-family="sans-serif" font-size="12" lengthAdjust="spacingAndGlyphs" textLength="118" x="315" y="1122.2671">merge immediately</text><polygon fill="#FEFECE" filter="url(#f1i7dp5o6m8wo4)" points="276,1141.0972,288,1153.0972,276,1165.0972,264,1153.0972,276,1141.0972" style="stroke: #A80036; stroke-width: 1.5;"/><rect fill="#FEFECE" filter="url(#f1i7dp5o6m8wo4)" height="33.9688" rx="12.5" ry="12.5" style="stroke: #A80036; stroke-width: 1.5;" width="269" x="679.5" y="1127.9331"/><text fill="#000000" font-family="sans-serif" font-size="12" lengthAdjust="spacingAndGlyphs" textLength="249" x="689.5" y="1149.0718">get user that merged the preceding MR</text><polygon fill="#FEFECE" filter="url(#f1i7dp5o6m8wo4)" points="783,1067.1284,845,1067.1284,857,1079.1284,845,1091.1284,783,1091.1284,771,1079.1284,783,1067.1284" style="stroke: #A80036; stroke-width: 1.5;"/><text fill="#000000" font-family="sans-serif" font-size="11" lengthAdjust="spacingAndGlyphs" textLength="84" x="818" y="1101.3389">ucascade user</text><text fill="#000000" font-family="sans-serif" font-size="11" lengthAdjust="spacingAndGlyphs" textLength="62" x="783" y="1082.9365">MR merger</text><text fill="#000000" font-family="sans-serif" font-size="11" lengthAdjust="spacingAndGlyphs" textLength="128" x="643" y="1076.5342">not the ucascade user</text><rect fill="#FEFECE" filter="url(#f1i7dp5o6m8wo4)" height="33.9688" rx="12.5" ry="12.5" style="stroke: #A80036; stroke-width: 1.5;" width="424" x="602" y="1205.9019"/><text fill="#000000" font-family="sans-serif" font-size="12" lengthAdjust="spacingAndGlyphs" textLength="404" x="612" y="1227.0405">update MR to set its assignees to the MR assignees and merger</text><polygon fill="#FEFECE" filter="url(#f1i7dp5o6m8wo4)" points="545,1249.8706,545,1249.8706,557,1261.8706,545,1273.8706,545,1273.8706,533,1261.8706,545,1249.8706" style="stroke: #A80036; stroke-width: 1.5;"/><polygon fill="#FEFECE" filter="url(#f1i7dp5o6m8wo4)" points="280.25,1279.8706,292.25,1291.8706,280.25,1303.8706,268.25,1291.8706,280.25,1279.8706" style="stroke: #A80036; stroke-width: 1.5;"/><rect fill="#FF0000" filter="url(#f1i7dp5o6m8wo4)" height="33.9688" rx="12.5" ry="12.5" style="stroke: #A80036; stroke-width: 1.5;" width="130" x="1056" y="400.7422"/><text fill="#000000" font-family="sans-serif" font-size="12" lengthAdjust="spacingAndGlyphs" textLength="110" x="1066" y="421.8809">discard with error</text><polygon fill="#FEFECE" filter="url(#f1i7dp5o6m8wo4)" points="700.625,1309.8706,712.625,1321.8706,700.625,1333.8706,688.625,1321.8706,700.625,1309.8706" style="stroke: #A80036; stroke-width: 1.5;"/><rect fill="#FEFECE" filter="url(#f1i7dp5o6m8wo4)" height="33.9688" rx="12.5" ry="12.5" style="stroke: #A80036; stroke-width: 1.5;" width="105" x="1216" y="366.7422"/><text fill="#000000" font-family="sans-serif" font-size="12" lengthAdjust="spacingAndGlyphs" textLength="85" x="1226" y="387.8809">nothing to do</text><polygon fill="#FEFECE" filter="url(#f1i7dp5o6m8wo4)" points="984.5625,1339.8706,996.5625,1351.8706,984.5625,1363.8706,972.5625,1351.8706,984.5625,1339.8706" style="stroke: #A80036; stroke-width: 1.5;"/><rect fill="#FEFECE" filter="url(#f1i7dp5o6m8wo4)" height="33.9688" rx="12.5" ry="12.5" style="stroke: #A80036; stroke-width: 1.5;" width="177" x="1371.5" y="278.7734"/><text fill="#000000" font-family="sans-serif" font-size="12" lengthAdjust="spacingAndGlyphs" textLength="157" x="1381.5" y="299.9121">delete MR source branch</text><rect fill="#FEFECE" filter="url(#f1i7dp5o6m8wo4)" height="33.9688" rx="12.5" ry="12.5" style="stroke: #A80036; stroke-width: 1.5;" width="73" x="1423.5" y="429.5469"/><text fill="#000000" font-family="sans-serif" font-size="12" lengthAdjust="spacingAndGlyphs" textLength="53" x="1433.5" y="450.6855">sleep 5s</text><polygon fill="#FEFECE" filter="url(#f1i7dp5o6m8wo4)" points="1389,381.1445,1531,381.1445,1543,393.1445,1531,405.1445,1389,405.1445,1377,393.1445,1389,381.1445" style="stroke: #A80036; stroke-width: 1.5;"/><text fill="#000000" font-family="sans-serif" font-size="11" lengthAdjust="spacingAndGlyphs" textLength="20" x="1464" y="415.355">yes</text><text fill="#000000" font-family="sans-serif" font-size="11" lengthAdjust="spacingAndGlyphs" textLength="142" x="1389" y="396.9526">oldest one has conflicts?</text><polygon fill="#FEFECE" filter="url(#f1i7dp5o6m8wo4)" points="1460,487.918,1472,499.918,1460,511.918,1448,499.918,1460,487.918" style="stroke: #A80036; stroke-width: 1.5;"/><rect fill="#FEFECE" filter="url(#f1i7dp5o6m8wo4)" height="33.9688" rx="12.5" ry="12.5" style="stroke: #A80036; stroke-width: 1.5;" width="198" x="1361" y="540.1563"/><text fill="#000000" font-family="sans-serif" font-size="12" lengthAdjust="spacingAndGlyphs" textLength="178" x="1371" y="561.2949">merge oldest concurrent MR</text><polygon fill="#FEFECE" filter="url(#f1i7dp5o6m8wo4)" points="1363,332.7422,1557,332.7422,1569,344.7422,1557,356.7422,1363,356.7422,1351,344.7422,1363,332.7422" style="stroke: #A80036; stroke-width: 1.5;"/><text fill="#000000" font-family="sans-serif" font-size="11" lengthAdjust="spacingAndGlyphs" textLength="20" x="1464" y="366.9526">yes</text><text fill="#000000" font-family="sans-serif" font-size="11" lengthAdjust="spacingAndGlyphs" textLength="194" x="1363" y="348.5503">concurrent open auto MR(s) exist?</text><polygon fill="#FEFECE" filter="url(#f1i7dp5o6m8wo4)" points="1460,598.5273,1472,610.5273,1460,622.5273,1448,610.5273,1460,598.5273" style="stroke: #A80036; stroke-width: 1.5;"/><polygon fill="#FEFECE" filter="url(#f1i7dp5o6m8wo4)" points="1222.2813,1369.8706,1234.2813,1381.8706,1222.2813,1393.8706,1210.2813,1381.8706,1222.2813,1369.8706" style="stroke: #A80036; stroke-width: 1.5;"/><polygon fill="#FEFECE" filter="url(#f1i7dp5o6m8wo4)" points="1175.2813,142.4023,1269.2813,142.4023,1281.2813,154.4023,1269.2813,166.4023,1175.2813,166.4023,1163.2813,154.4023,1175.2813,142.4023" style="stroke: #A80036; stroke-width: 1.5;"/><text fill="#000000" font-family="sans-serif" font-size="11" lengthAdjust="spacingAndGlyphs" textLength="20" x="1226.2813" y="176.6128">yes</text><text fill="#000000" font-family="sans-serif" font-size="11" lengthAdjust="spacingAndGlyphs" textLength="94" x="1175.2813" y="158.2104">request is valid?</text><polygon fill="#FEFECE" filter="url(#f1i7dp5o6m8wo4)" points="1222.2813,1413.8706,1234.2813,1425.8706,1222.2813,1437.8706,1210.2813,1425.8706,1222.2813,1413.8706" style="stroke: #A80036; stroke-width: 1.5;"/><polygon fill="#FEFECE" filter="url(#f1i7dp5o6m8wo4)" points="1169.7813,94,1274.7813,94,1286.7813,106,1274.7813,118,1169.7813,118,1157.7813,106,1169.7813,94" style="stroke: #A80036; stroke-width: 1.5;"/><text fill="#000000" font-family="sans-serif" font-size="11" lengthAdjust="spacingAndGlyphs" textLength="20" x="1226.2813" y="128.2104">yes</text><text fill="#000000" font-family="sans-serif" font-size="11" lengthAdjust="spacingAndGlyphs" textLength="105" x="1169.7813" y="109.8081">incoming request?</text><polygon fill="#FEFECE" filter="url(#f1i7dp5o6m8wo4)" points="1222.2813,1457.8706,1234.2813,1469.8706,1222.2813,1481.8706,1210.2813,1469.8706,1222.2813,1457.8706" style="stroke: #A80036; stroke-width: 1.5;"/><polygon fill="#FEFECE" filter="url(#f1i7dp5o6m8wo4)" points="1222.2813,50,1234.2813,62,1222.2813,74,1210.2813,62,1222.2813,50" style="stroke: #A80036; stroke-width: 1.5;"/><line style="stroke: #A80036; stroke-width: 1.5;" x1="280.25" x2="280.25" y1="434.7109" y2="469.7109"/><polygon fill="#A80036" points="276.25,459.7109,280.25,469.7109,284.25,459.7109,280.25,463.7109" style="stroke: #A80036; stroke-width: 1.0;"/><line style="stroke: #A80036; stroke-width: 1.5;" x1="280.25" x2="280.25" y1="555.918" y2="580.3203"/><polygon fill="#A80036" points="276.25,570.3203,280.25,580.3203,284.25,570.3203,280.25,574.3203" style="stroke: #A80036; stroke-width: 1.0;"/><line style="stroke: #A80036; stroke-width: 1.5;" x1="364.25" x2="493.25" y1="543.918" y2="543.918"/><polygon fill="#A80036" points="489.25,587.3047,493.25,597.3047,497.25,587.3047,493.25,591.3047" style="stroke: #A80036; stroke-width: 1.5;"/><line style="stroke: #A80036; stroke-width: 1.5;" x1="493.25" x2="493.25" y1="543.918" y2="650.6914"/><line style="stroke: #A80036; stroke-width: 1.5;" x1="493.25" x2="292.25" y1="650.6914" y2="650.6914"/><polygon fill="#A80036" points="302.25,646.6914,292.25,650.6914,302.25,654.6914,298.25,650.6914" style="stroke: #A80036; stroke-width: 1.0;"/><line style="stroke: #A80036; stroke-width: 1.5;" x1="280.25" x2="280.25" y1="614.2891" y2="638.6914"/><polygon fill="#A80036" points="276.25,628.6914,280.25,638.6914,284.25,628.6914,280.25,632.6914" style="stroke: #A80036; stroke-width: 1.0;"/><line style="stroke: #A80036; stroke-width: 1.5;" x1="280.25" x2="280.25" y1="503.6797" y2="531.918"/><polygon fill="#A80036" points="276.25,521.918,280.25,531.918,284.25,521.918,280.25,525.918" style="stroke: #A80036; stroke-width: 1.0;"/><line style="stroke: #A80036; stroke-width: 1.5;" x1="280.25" x2="280.25" y1="662.6914" y2="682.6914"/><polygon fill="#A80036" points="276.25,672.6914,280.25,682.6914,284.25,672.6914,280.25,676.6914" style="stroke: #A80036; stroke-width: 1.0;"/><line style="stroke: #A80036; stroke-width: 1.5;" x1="280.25" x2="280.25" y1="829.4878" y2="856.3862"/><polygon fill="#A80036" points="276.25,846.3862,280.25,856.3862,284.25,846.3862,280.25,850.3862" style="stroke: #A80036; stroke-width: 1.0;"/><line style="stroke: #A80036; stroke-width: 1.5;" x1="280.25" x2="280.25" y1="890.355" y2="910.355"/><polygon fill="#A80036" points="276.25,900.355,280.25,910.355,284.25,900.355,280.25,904.355" style="stroke: #A80036; stroke-width: 1.0;"/><line style="stroke: #A80036; stroke-width: 1.5;" x1="280.25" x2="280.25" y1="763.8086" y2="795.519"/><polygon fill="#A80036" points="276.25,785.519,280.25,795.519,284.25,785.519,280.25,789.519" style="stroke: #A80036; stroke-width: 1.0;"/><line style="stroke: #A80036; stroke-width: 1.5;" x1="280.25" x2="280.25" y1="944.3237" y2="954.3237"/><line style="stroke: #A80036; stroke-width: 1.5;" x1="280.25" x2="552.75" y1="954.3237" y2="954.3237"/><polygon fill="#A80036" points="548.75,864.9683,552.75,854.9683,556.75,864.9683,552.75,860.9683" style="stroke: #A80036; stroke-width: 1.5;"/><line style="stroke: #A80036; stroke-width: 1.5;" x1="552.75" x2="552.75" y1="751.8086" y2="954.3237"/><line style="stroke: #A80036; stroke-width: 1.5;" x1="552.75" x2="448.25" y1="751.8086" y2="751.8086"/><polygon fill="#A80036" points="458.25,747.8086,448.25,751.8086,458.25,755.8086,454.25,751.8086" style="stroke: #A80036; stroke-width: 1.0;"/><line style="stroke: #A80036; stroke-width: 1.5;" x1="112.25" x2="100.25" y1="751.8086" y2="751.8086"/><polygon fill="#A80036" points="96.25,850.9683,100.25,860.9683,104.25,850.9683,100.25,854.9683" style="stroke: #A80036; stroke-width: 1.5;"/><line style="stroke: #A80036; stroke-width: 1.5;" x1="100.25" x2="100.25" y1="751.8086" y2="966.3237"/><line style="stroke: #A80036; stroke-width: 1.5;" x1="100.25" x2="280.25" y1="966.3237" y2="966.3237"/><line style="stroke: #A80036; stroke-width: 1.5;" x1="280.25" x2="280.25" y1="966.3237" y2="986.3237"/><polygon fill="#A80036" points="276.25,976.3237,280.25,986.3237,284.25,976.3237,280.25,980.3237" style="stroke: #A80036; stroke-width: 1.0;"/><line style="stroke: #A80036; stroke-width: 1.5;" x1="280.25" x2="280.25" y1="716.6602" y2="739.8086"/><polygon fill="#A80036" points="276.25,729.8086,280.25,739.8086,284.25,729.8086,280.25,733.8086" style="stroke: #A80036; stroke-width: 1.0;"/><line style="stroke: #A80036; stroke-width: 1.5;" x1="209" x2="178" y1="1079.1284" y2="1079.1284"/><line style="stroke: #A80036; stroke-width: 1.5;" x1="178" x2="178" y1="1079.1284" y2="1101.1284"/><polygon fill="#A80036" points="174,1091.1284,178,1101.1284,182,1091.1284,178,1095.1284" style="stroke: #A80036; stroke-width: 1.0;"/><line style="stroke: #A80036; stroke-width: 1.5;" x1="343" x2="374" y1="1079.1284" y2="1079.1284"/><line style="stroke: #A80036; stroke-width: 1.5;" x1="374" x2="374" y1="1079.1284" y2="1101.1284"/><polygon fill="#A80036" points="370,1091.1284,374,1101.1284,378,1091.1284,374,1095.1284" style="stroke: #A80036; stroke-width: 1.0;"/><line style="stroke: #A80036; stroke-width: 1.5;" x1="178" x2="178" y1="1135.0972" y2="1153.0972"/><line style="stroke: #A80036; stroke-width: 1.5;" x1="178" x2="264" y1="1153.0972" y2="1153.0972"/><polygon fill="#A80036" points="254,1149.0972,264,1153.0972,254,1157.0972,258,1153.0972" style="stroke: #A80036; stroke-width: 1.0;"/><line style="stroke: #A80036; stroke-width: 1.5;" x1="374" x2="374" y1="1135.0972" y2="1153.0972"/><line style="stroke: #A80036; stroke-width: 1.5;" x1="374" x2="288" y1="1153.0972" y2="1153.0972"/><polygon fill="#A80036" points="298,1149.0972,288,1153.0972,298,1157.0972,294,1153.0972" style="stroke: #A80036; stroke-width: 1.0;"/><line style="stroke: #A80036; stroke-width: 1.5;" x1="814" x2="814" y1="1091.1284" y2="1127.9331"/><polygon fill="#A80036" points="810,1117.9331,814,1127.9331,818,1117.9331,814,1121.9331" style="stroke: #A80036; stroke-width: 1.0;"/><line style="stroke: #A80036; stroke-width: 1.5;" x1="814" x2="814" y1="1161.9019" y2="1173.9019"/><line style="stroke: #A80036; stroke-width: 1.5;" x1="814" x2="960.5" y1="1173.9019" y2="1173.9019"/><polygon fill="#A80036" points="956.5,1136.5151,960.5,1126.5151,964.5,1136.5151,960.5,1132.5151" style="stroke: #A80036; stroke-width: 1.5;"/><line style="stroke: #A80036; stroke-width: 1.5;" x1="960.5" x2="960.5" y1="1079.1284" y2="1173.9019"/><line style="stroke: #A80036; stroke-width: 1.5;" x1="960.5" x2="857" y1="1079.1284" y2="1079.1284"/><polygon fill="#A80036" points="867,1075.1284,857,1079.1284,867,1083.1284,863,1079.1284" style="stroke: #A80036; stroke-width: 1.0;"/><line style="stroke: #A80036; stroke-width: 1.5;" x1="771" x2="667.5" y1="1079.1284" y2="1079.1284"/><polygon fill="#A80036" points="663.5,1122.5151,667.5,1132.5151,671.5,1122.5151,667.5,1126.5151" style="stroke: #A80036; stroke-width: 1.5;"/><line style="stroke: #A80036; stroke-width: 1.5;" x1="667.5" x2="667.5" y1="1079.1284" y2="1185.9019"/><line style="stroke: #A80036; stroke-width: 1.5;" x1="667.5" x2="814" y1="1185.9019" y2="1185.9019"/><line style="stroke: #A80036; stroke-width: 1.5;" x1="814" x2="814" y1="1185.9019" y2="1205.9019"/><polygon fill="#A80036" points="810,1195.9019,814,1205.9019,818,1195.9019,814,1199.9019" style="stroke: #A80036; stroke-width: 1.0;"/><line style="stroke: #A80036; stroke-width: 1.5;" x1="291" x2="276" y1="1032.3237" y2="1032.3237"/><line style="stroke: #A80036; stroke-width: 1.5;" x1="276" x2="276" y1="1032.3237" y2="1067.1284"/><polygon fill="#A80036" points="272,1057.1284,276,1067.1284,280,1057.1284,276,1061.1284" style="stroke: #A80036; stroke-width: 1.0;"/><text fill="#000000" font-family="sans-serif" font-size="11" lengthAdjust="spacingAndGlyphs" textLength="20" x="276" y="1053.5342">yes</text><line style="stroke: #A80036; stroke-width: 1.5;" x1="799" x2="814" y1="1032.3237" y2="1032.3237"/><line style="stroke: #A80036; stroke-width: 1.5;" x1="814" x2="814" y1="1032.3237" y2="1067.1284"/><polygon fill="#A80036" points="810,1057.1284,814,1067.1284,818,1057.1284,814,1061.1284" style="stroke: #A80036; stroke-width: 1.0;"/><text fill="#000000" font-family="sans-serif" font-size="11" lengthAdjust="spacingAndGlyphs" textLength="14" x="814" y="1053.5342">no</text><line style="stroke: #A80036; stroke-width: 1.5;" x1="276" x2="276" y1="1165.0972" y2="1261.8706"/><line style="stroke: #A80036; stroke-width: 1.5;" x1="276" x2="533" y1="1261.8706" y2="1261.8706"/><polygon fill="#A80036" points="523,1257.8706,533,1261.8706,523,1265.8706,527,1261.8706" style="stroke: #A80036; stroke-width: 1.0;"/><line style="stroke: #A80036; stroke-width: 1.5;" x1="814" x2="814" y1="1239.8706" y2="1261.8706"/><line style="stroke: #A80036; stroke-width: 1.5;" x1="814" x2="557" y1="1261.8706" y2="1261.8706"/><polygon fill="#A80036" points="567,1257.8706,557,1261.8706,567,1265.8706,563,1261.8706" style="stroke: #A80036; stroke-width: 1.0;"/><line style="stroke: #A80036; stroke-width: 1.5;" x1="220.75" x2="35.5" y1="998.3237" y2="998.3237"/><line style="stroke: #A80036; stroke-width: 1.5;" x1="35.5" x2="35.5" y1="998.3237" y2="1020.3237"/><polygon fill="#A80036" points="31.5,1010.3237,35.5,1020.3237,39.5,1010.3237,35.5,1014.3237" style="stroke: #A80036; stroke-width: 1.0;"/><line style="stroke: #A80036; stroke-width: 1.5;" x1="339.75" x2="545" y1="998.3237" y2="998.3237"/><line style="stroke: #A80036; stroke-width: 1.5;" x1="545" x2="545" y1="998.3237" y2="1020.3237"/><polygon fill="#A80036" points="541,1010.3237,545,1020.3237,549,1010.3237,545,1014.3237" style="stroke: #A80036; stroke-width: 1.0;"/><line style="stroke: #A80036; stroke-width: 1.5;" x1="35.5" x2="35.5" y1="1054.2925" y2="1291.8706"/><line style="stroke: #A80036; stroke-width: 1.5;" x1="35.5" x2="268.25" y1="1291.8706" y2="1291.8706"/><polygon fill="#A80036" points="258.25,1287.8706,268.25,1291.8706,258.25,1295.8706,262.25,1291.8706" style="stroke: #A80036; stroke-width: 1.0;"/><line style="stroke: #A80036; stroke-width: 1.5;" x1="545" x2="545" y1="1273.8706" y2="1291.8706"/><line style="stroke: #A80036; stroke-width: 1.5;" x1="545" x2="292.25" y1="1291.8706" y2="1291.8706"/><polygon fill="#A80036" points="302.25,1287.8706,292.25,1291.8706,302.25,1295.8706,298.25,1291.8706" style="stroke: #A80036; stroke-width: 1.0;"/><line style="stroke: #A80036; stroke-width: 1.5;" x1="594.625" x2="280.25" y1="378.7422" y2="378.7422"/><line style="stroke: #A80036; stroke-width: 1.5;" x1="280.25" x2="280.25" y1="378.7422" y2="400.7422"/><polygon fill="#A80036" points="276.25,390.7422,280.25,400.7422,284.25,390.7422,280.25,394.7422" style="stroke: #A80036; stroke-width: 1.0;"/><line style="stroke: #A80036; stroke-width: 1.5;" x1="806.625" x2="1121" y1="378.7422" y2="378.7422"/><line style="stroke: #A80036; stroke-width: 1.5;" x1="1121" x2="1121" y1="378.7422" y2="400.7422"/><polygon fill="#A80036" points="1117,390.7422,1121,400.7422,1125,390.7422,1121,394.7422" style="stroke: #A80036; stroke-width: 1.0;"/><line style="stroke: #A80036; stroke-width: 1.5;" x1="280.25" x2="280.25" y1="1303.8706" y2="1321.8706"/><line style="stroke: #A80036; stroke-width: 1.5;" x1="280.25" x2="688.625" y1="1321.8706" y2="1321.8706"/><polygon fill="#A80036" points="678.625,1317.8706,688.625,1321.8706,678.625,1325.8706,682.625,1321.8706" style="stroke: #A80036; stroke-width: 1.0;"/><line style="stroke: #A80036; stroke-width: 1.5;" x1="1121" x2="1121" y1="434.7109" y2="1321.8706"/><line style="stroke: #A80036; stroke-width: 1.5;" x1="1121" x2="712.625" y1="1321.8706" y2="1321.8706"/><polygon fill="#A80036" points="722.625,1317.8706,712.625,1321.8706,722.625,1325.8706,718.625,1321.8706" style="stroke: #A80036; stroke-width: 1.0;"/><line style="stroke: #A80036; stroke-width: 1.5;" x1="885.5625" x2="700.625" y1="344.7422" y2="344.7422"/><line style="stroke: #A80036; stroke-width: 1.5;" x1="700.625" x2="700.625" y1="344.7422" y2="366.7422"/><polygon fill="#A80036" points="696.625,356.7422,700.625,366.7422,704.625,356.7422,700.625,360.7422" style="stroke: #A80036; stroke-width: 1.0;"/><line style="stroke: #A80036; stroke-width: 1.5;" x1="1083.5625" x2="1268.5" y1="344.7422" y2="344.7422"/><line style="stroke: #A80036; stroke-width: 1.5;" x1="1268.5" x2="1268.5" y1="344.7422" y2="366.7422"/><polygon fill="#A80036" points="1264.5,356.7422,1268.5,366.7422,1272.5,356.7422,1268.5,360.7422" style="stroke: #A80036; stroke-width: 1.0;"/><line style="stroke: #A80036; stroke-width: 1.5;" x1="700.625" x2="700.625" y1="1333.8706" y2="1351.8706"/><line style="stroke: #A80036; stroke-width: 1.5;" x1="700.625" x2="972.5625" y1="1351.8706" y2="1351.8706"/><polygon fill="#A80036" points="962.5625,1347.8706,972.5625,1351.8706,962.5625,1355.8706,966.5625,1351.8706" style="stroke: #A80036; stroke-width: 1.0;"/><line style="stroke: #A80036; stroke-width: 1.5;" x1="1268.5" x2="1268.5" y1="400.7109" y2="1351.8706"/><line style="stroke: #A80036; stroke-width: 1.5;" x1="1268.5" x2="996.5625" y1="1351.8706" y2="1351.8706"/><polygon fill="#A80036" points="1006.5625,1347.8706,996.5625,1351.8706,1006.5625,1355.8706,1002.5625,1351.8706" style="stroke: #A80036; stroke-width: 1.0;"/><line style="stroke: #A80036; stroke-width: 1.5;" x1="984.5625" x2="984.5625" y1="312.7422" y2="332.7422"/><polygon fill="#A80036" points="980.5625,322.7422,984.5625,332.7422,988.5625,322.7422,984.5625,326.7422" style="stroke: #A80036; stroke-width: 1.0;"/><line style="stroke: #A80036; stroke-width: 1.5;" x1="1460" x2="1460" y1="405.1445" y2="429.5469"/><polygon fill="#A80036" points="1456,419.5469,1460,429.5469,1464,419.5469,1460,423.5469" style="stroke: #A80036; stroke-width: 1.0;"/><line style="stroke: #A80036; stroke-width: 1.5;" x1="1543" x2="1555" y1="393.1445" y2="393.1445"/><polygon fill="#A80036" points="1551,436.5313,1555,446.5313,1559,436.5313,1555,440.5313" style="stroke: #A80036; stroke-width: 1.5;"/><line style="stroke: #A80036; stroke-width: 1.5;" x1="1555" x2="1555" y1="393.1445" y2="499.918"/><line style="stroke: #A80036; stroke-width: 1.5;" x1="1555" x2="1472" y1="499.918" y2="499.918"/><polygon fill="#A80036" points="1482,495.918,1472,499.918,1482,503.918,1478,499.918" style="stroke: #A80036; stroke-width: 1.0;"/><line style="stroke: #A80036; stroke-width: 1.5;" x1="1460" x2="1460" y1="463.5156" y2="487.918"/><polygon fill="#A80036" points="1456,477.918,1460,487.918,1464,477.918,1460,481.918" style="stroke: #A80036; stroke-width: 1.0;"/><line style="stroke: #A80036; stroke-width: 1.5;" x1="1460" x2="1460" y1="511.918" y2="540.1563"/><polygon fill="#A80036" points="1456,530.1563,1460,540.1563,1464,530.1563,1460,534.1563" style="stroke: #A80036; stroke-width: 1.0;"/><line style="stroke: #A80036; stroke-width: 1.5;" x1="1460" x2="1460" y1="356.7422" y2="381.1445"/><polygon fill="#A80036" points="1456,371.1445,1460,381.1445,1464,371.1445,1460,375.1445" style="stroke: #A80036; stroke-width: 1.0;"/><line style="stroke: #A80036; stroke-width: 1.5;" x1="1569" x2="1581" y1="344.7422" y2="344.7422"/><polygon fill="#A80036" points="1577,471.0156,1581,481.0156,1585,471.0156,1581,475.0156" style="stroke: #A80036; stroke-width: 1.5;"/><line style="stroke: #A80036; stroke-width: 1.5;" x1="1581" x2="1581" y1="344.7422" y2="610.5273"/><line style="stroke: #A80036; stroke-width: 1.5;" x1="1581" x2="1472" y1="610.5273" y2="610.5273"/><polygon fill="#A80036" points="1482,606.5273,1472,610.5273,1482,614.5273,1478,610.5273" style="stroke: #A80036; stroke-width: 1.0;"/><line style="stroke: #A80036; stroke-width: 1.5;" x1="1460" x2="1460" y1="574.125" y2="598.5273"/><polygon fill="#A80036" points="1456,588.5273,1460,598.5273,1464,588.5273,1460,592.5273" style="stroke: #A80036; stroke-width: 1.0;"/><line style="stroke: #A80036; stroke-width: 1.5;" x1="1460" x2="1460" y1="312.7422" y2="332.7422"/><polygon fill="#A80036" points="1456,322.7422,1460,332.7422,1464,322.7422,1460,326.7422" style="stroke: #A80036; stroke-width: 1.0;"/><line style="stroke: #A80036; stroke-width: 1.5;" x1="1145.7813" x2="984.5625" y1="256.7734" y2="256.7734"/><line style="stroke: #A80036; stroke-width: 1.5;" x1="984.5625" x2="984.5625" y1="256.7734" y2="278.7734"/><polygon fill="#A80036" points="980.5625,268.7734,984.5625,278.7734,988.5625,268.7734,984.5625,272.7734" style="stroke: #A80036; stroke-width: 1.0;"/><line style="stroke: #A80036; stroke-width: 1.5;" x1="1298.7813" x2="1460" y1="256.7734" y2="256.7734"/><line style="stroke: #A80036; stroke-width: 1.5;" x1="1460" x2="1460" y1="256.7734" y2="278.7734"/><polygon fill="#A80036" points="1456,268.7734,1460,278.7734,1464,268.7734,1460,272.7734" style="stroke: #A80036; stroke-width: 1.0;"/><line style="stroke: #A80036; stroke-width: 1.5;" x1="984.5625" x2="984.5625" y1="1363.8706" y2="1381.8706"/><line style="stroke: #A80036; stroke-width: 1.5;" x1="984.5625" x2="1210.2813" y1="1381.8706" y2="1381.8706"/><polygon fill="#A80036" points="1200.2813,1377.8706,1210.2813,1381.8706,1200.2813,1385.8706,1204.2813,1381.8706" style="stroke: #A80036; stroke-width: 1.0;"/><line style="stroke: #A80036; stroke-width: 1.5;" x1="1460" x2="1460" y1="622.5273" y2="1381.8706"/><line style="stroke: #A80036; stroke-width: 1.5;" x1="1460" x2="1234.2813" y1="1381.8706" y2="1381.8706"/><polygon fill="#A80036" points="1244.2813,1377.8706,1234.2813,1381.8706,1244.2813,1385.8706,1240.2813,1381.8706" style="stroke: #A80036; stroke-width: 1.0;"/><line style="stroke: #A80036; stroke-width: 1.5;" x1="1222.2813" x2="1222.2813" y1="224.7734" y2="244.7734"/><polygon fill="#A80036" points="1218.2813,234.7734,1222.2813,244.7734,1226.2813,234.7734,1222.2813,238.7734" style="stroke: #A80036; stroke-width: 1.0;"/><line style="stroke: #A80036; stroke-width: 1.5;" x1="1222.2813" x2="1222.2813" y1="166.4023" y2="190.8047"/><polygon fill="#A80036" points="1218.2813,180.8047,1222.2813,190.8047,1226.2813,180.8047,1222.2813,184.8047" style="stroke: #A80036; stroke-width: 1.0;"/><line style="stroke: #A80036; stroke-width: 1.5;" x1="1281.2813" x2="1599" y1="154.4023" y2="154.4023"/><polygon fill="#A80036" points="1595,822.3862,1599,832.3862,1603,822.3862,1599,826.3862" style="stroke: #A80036; stroke-width: 1.5;"/><line style="stroke: #A80036; stroke-width: 1.5;" x1="1599" x2="1599" y1="154.4023" y2="1425.8706"/><line style="stroke: #A80036; stroke-width: 1.5;" x1="1599" x2="1234.2813" y1="1425.8706" y2="1425.8706"/><polygon fill="#A80036" points="1244.2813,1421.8706,1234.2813,1425.8706,1244.2813,1429.8706,1240.2813,1425.8706" style="stroke: #A80036; stroke-width: 1.0;"/><line style="stroke: #A80036; stroke-width: 1.5;" x1="1222.2813" x2="1222.2813" y1="1393.8706" y2="1413.8706"/><polygon fill="#A80036" points="1218.2813,1403.8706,1222.2813,1413.8706,1226.2813,1403.8706,1222.2813,1407.8706" style="stroke: #A80036; stroke-width: 1.0;"/><line style="stroke: #A80036; stroke-width: 1.5;" x1="1222.2813" x2="1222.2813" y1="118" y2="142.4023"/><polygon fill="#A80036" points="1218.2813,132.4023,1222.2813,142.4023,1226.2813,132.4023,1222.2813,136.4023" style="stroke: #A80036; stroke-width: 1.0;"/><line style="stroke: #A80036; stroke-width: 1.5;" x1="1286.7813" x2="1617" y1="106" y2="106"/><polygon fill="#A80036" points="1613,822.3862,1617,832.3862,1621,822.3862,1617,826.3862" style="stroke: #A80036; stroke-width: 1.5;"/><line style="stroke: #A80036; stroke-width: 1.5;" x1="1617" x2="1617" y1="106" y2="1469.8706"/><line style="stroke: #A80036; stroke-width: 1.5;" x1="1617" x2="1234.2813" y1="1469.8706" y2="1469.8706"/><polygon fill="#A80036" points="1244.2813,1465.8706,1234.2813,1469.8706,1244.2813,1473.8706,1240.2813,1469.8706" style="stroke: #A80036; stroke-width: 1.0;"/><line style="stroke: #A80036; stroke-width: 1.5;" x1="1222.2813" x2="1222.2813" y1="1437.8706" y2="1457.8706"/><polygon fill="#A80036" points="1218.2813,1447.8706,1222.2813,1457.8706,1226.2813,1447.8706,1222.2813,1451.8706" style="stroke: #A80036; stroke-width: 1.0;"/><line style="stroke: #A80036; stroke-width: 1.5;" x1="1222.2813" x2="1222.2813" y1="74" y2="94"/><polygon fill="#A80036" points="1218.2813,84,1222.2813,94,1226.2813,84,1222.2813,88" style="stroke: #A80036; stroke-width: 1.0;"/><line style="stroke: #A80036; stroke-width: 1.5;" x1="1222.2813" x2="1222.2813" y1="1481.8706" y2="1529.8706"/><line style="stroke: #A80036; stroke-width: 1.5;" x1="1222.2813" x2="1635" y1="1529.8706" y2="1529.8706"/><polygon fill="#A80036" points="1631,836.3862,1635,826.3862,1639,836.3862,1635,832.3862" style="stroke: #A80036; stroke-width: 1.5;"/><line style="stroke: #A80036; stroke-width: 1.5;" x1="1635" x2="1635" y1="62" y2="1529.8706"/><line style="stroke: #A80036; stroke-width: 1.5;" x1="1635" x2="1234.2813" y1="62" y2="62"/><polygon fill="#A80036" points="1244.2813,58,1234.2813,62,1244.2813,66,1240.2813,62" style="stroke: #A80036; stroke-width: 1.0;"/><line style="stroke: #A80036; stroke-width: 1.5;" x1="1222.2813" x2="1222.2813" y1="30" y2="50"/><polygon fill="#A80036" points="1218.2813,40,1222.2813,50,1226.2813,40,1222.2813,44" style="stroke: #A80036; stroke-width: 1.0;"/><!--MD5=[3bb6a119ea789886e66c7da2db4fb1a4]
@startuml technical-workflow
start
repeat
if (incoming request?) then (yes)
    if (request is valid?) then (yes)
        :fetch properties from the MergeRequestEvent object;
        if (merge-request action?) then (MERGE)
            :try to read nextMainBranch from configuration file;
            if (nextMainBranch is configured?) then (yes)
                if (nextMainBranch exists remotely?) then (yes)
                    :create new branch from targetBranch;
                    :create new MR from the new branch into the nextMainBranch;
                    if (apiTokenApprover is set?) then (yes)
                        :approve the just created MR as that user (apiTokenApprover);
                    else (no)
                    endif
                    #SkyBlue:initialize countDown from 60;
                    note right 
                        Timeout to avoid the possibility
                        of getting stuck in the loop forever
                    end note
                    while(MRStatus == unchecked|checking and countdown > 0?) is (yes)
                        #SkyBlue:decrement countDown by 1;
                        :sleep 1s;
                        note right: Wait for Gitlab to prepare MR
                        :update MRStatus from Gitlab;
                    endwhile (no)
                    if (countDown == 0) then (yes) 
                        :error;
                    else (no)
                        switch(Is MRStatus == mergeable|ci_still_running|ci_must_pass|status_checks_must_pass?)
                        case (yes)
                            if (MR has pipeline(s)?) then (yes)
                                :merge when pipeline succeeds;
                            else (no)
                                :merge immediately;
                            endif
                        case (no)
                            while(MR merger) is (ucascade user)
                                :get user that merged the preceding MR;
                            endwhile (not the ucascade user)
                            :update MR to set its assignees to the MR assignees and merger;
                        endswitch
                    endif
                else (no)
                    #red:discard with error;
                endif
                else (no)
                    :nothing to do;
            endif
        else (CLOSE)
            :delete MR source branch;
            if (concurrent open auto MR(s) exist?) then (yes)
                if (oldest one has conflicts?) then (yes)
                    :sleep 5s;
                endif
                :merge oldest concurrent MR;
            endif
        endif
    endif
endif
repeat while
@enduml

PlantUML version 1.2020.06(Sun Apr 05 12:38:32 GMT 2020)
(APACHE source distribution)
Java Runtime: OpenJDK Runtime Environment
JVM: OpenJDK 64-Bit Server VM
Java Version: 11.0.18+10
Operating System: Linux
Default Encoding: UTF-8
Language: en
Country: US
--></g></svg>