<?xml version="1.0" encoding="UTF-8" standalone="no"?><svg xmlns="http://www.w3.org/2000/svg" xmlns:xlink="http://www.w3.org/1999/xlink" contentScriptType="application/ecmascript" contentStyleType="text/css" height="1529px" preserveAspectRatio="none" style="width:1661px;height:1529px;" version="1.1" viewBox="0 0 1661 1529" width="1661px" zoomAndPan="magnify"><defs><filter height="300%" id="f1gqqnppmgjv56" width="300%" x="-1" y="-1"><feGaussianBlur result="blurOut" stdDeviation="2.0"/><feColorMatrix in="blurOut" result="blurOut2" type="matrix" values="0 0 0 0 0 0 0 0 0 0 0 0 0 0 0 0 0 0 .4 0"/><feOffset dx="4.0" dy="4.0" in="blurOut2" result="blurOut3"/><feBlend in="SourceGraphic" in2="blurOut3" mode="normal"/></filter></defs><g><ellipse cx="1222.2813" cy="20" fill="#000000" filter="url(#f1gqqnppmgjv56)" rx="10" ry="10" style="stroke: none; stroke-width: 1.0;"/><rect fill="#FEFECE" filter="url(#f1gqqnppmgjv56)" height="33.9688" rx="12.5" ry="12.5" style="stroke: #A80036; stroke-width: 1.5;" width="351" x="1046.7813" y="190.8047"/><text fill="#000000" font-family="sans-serif" font-size="12" lengthAdjust="spacingAndGlyphs" textLength="331" x="1056.7813" y="211.9434">fetch properties from the MergeRequestEvent object</text><polygon fill="#FEFECE" filter="url(#f1gqqnppmgjv56)" points="1157.7813,244.7734,1286.7813,244.7734,1298.7813,256.7734,1286.7813,268.7734,1157.7813,268.7734,1145.7813,256.7734,1157.7813,244.7734" style="stroke: #A80036; stroke-width: 1.5;"/><text fill="#000000" font-family="sans-serif" font-size="11" lengthAdjust="spacingAndGlyphs" textLength="129" x="1157.7813" y="260.5815">merge-request action?</text><text fill="#000000" font-family="sans-serif" font-size="11" lengthAdjust="spacingAndGlyphs" textLength="39" x="1106.7813" y="254.1792">MERGE</text><text fill="#000000" font-family="sans-serif" font-size="11" lengthAdjust="spacingAndGlyphs" textLength="38" x="1298.7813" y="254.1792">CLOSE</text><rect fill="#FEFECE" filter="url(#f1gqqnppmgjv56)" height="33.9688" rx="12.5" ry="12.5" style="stroke: #A80036; stroke-width: 1.5;" width="331" x="819.0625" y="278.7734"/><text fill="#000000" font-family="sans-serif" font-size="12" lengthAdjust="spacingAndGlyphs" textLength="311" x="829.0625" y="299.9121">try to read nextMainBranch from configuration file</text><polygon fill="#FEFECE" filter="url(#f1gqqnppmgjv56)" points="897.5625,332.7422,1071.5625,332.7422,1083.5625,344.7422,1071.5625,356.7422,897.5625,356.7422,885.5625,344.7422,897.5625,332.7422" style="stroke: #A80036; stroke-width: 1.5;"/><text fill="#000000" font-family="sans-serif" font-size="11" lengthAdjust="spacingAndGlyphs" textLength="174" x="897.5625" y="348.5503">nextMainBranch is configured?</text><text fill="#000000" font-family="sans-serif" font-size="11" lengthAdjust="spacingAndGlyphs" textLength="20" x="865.5625" y="342.1479">yes</text><text fill="#000000" font-family="sans-serif" font-size="11" lengthAdjust="spacingAndGlyphs" textLength="14" x="1083.5625" y="342.1479">no</text><polygon fill="#FEFECE" filter="url(#f1gqqnppmgjv56)" points="606.625,366.7422,794.625,366.7422,806.625,378.7422,794.625,390.7422,606.625,390.7422,594.625,378.7422,606.625,366.7422" style="stroke: #A80036; stroke-width: 1.5;"/><text fill="#000000" font-family="sans-serif" font-size="11" lengthAdjust="spacingAndGlyphs" textLength="188" x="606.625" y="382.5503">nextMainBranch exists remotely?</text><text fill="#000000" font-family="sans-serif" font-size="11" lengthAdjust="spacingAndGlyphs" textLength="20" x="574.625" y="376.1479">yes</text><text fill="#000000" font-family="sans-serif" font-size="11" lengthAdjust="spacingAndGlyphs" textLength="14" x="806.625" y="376.1479">no</text><rect fill="#FEFECE" filter="url(#f1gqqnppmgjv56)" height="33.9688" rx="12.5" ry="12.5" style="stroke: #A80036; stroke-width: 1.5;" width="257" x="151.75" y="400.7422"/><text fill="#000000" font-family="sans-serif" font-size="12" lengthAdjust="spacingAndGlyphs" textLength="237" x="161.75" y="421.8809">create new branch from targetBranch</text><rect fill="#FEFECE" filter="url(#f1gqqnppmgjv56)" height="33.9688" rx="12.5" ry="12.5" style="stroke: #A80036; stroke-width: 1.5;" width="403" x="78.75" y="469.7109"/><text fill="#000000" font-family="sans-serif" font-size="12" lengthAdjust="spacingAndGlyphs" textLength="383" x="88.75" y="490.8496">create new MR from the new branch into the nextMainBranch</text><rect fill="#FEFECE" filter="url(#f1gqqnppmgjv56)" height="33.9688" rx="12.5" ry="12.5" style="stroke: #A80036; stroke-width: 1.5;" width="406" x="77.25" y="572.082"/><text fill="#000000" font-family="sans-serif" font-size="12" lengthAdjust="spacingAndGlyphs" textLength="386" x="87.25" y="593.2207">approve the just created MR as that user (apiTokenApprover)</text><polygon fill="#FEFECE" filter="url(#f1gqqnppmgjv56)" points="208.25,523.6797,352.25,523.6797,364.25,535.6797,352.25,547.6797,208.25,547.6797,196.25,535.6797,208.25,523.6797" style="stroke: #A80036; stroke-width: 1.5;"/><text fill="#000000" font-family="sans-serif" font-size="11" lengthAdjust="spacingAndGlyphs" textLength="20" x="284.25" y="557.8901">yes</text><text fill="#000000" font-family="sans-serif" font-size="11" lengthAdjust="spacingAndGlyphs" textLength="144" x="208.25" y="539.4878">apiTokenApprover is set?</text><text fill="#000000" font-family="sans-serif" font-size="11" lengthAdjust="spacingAndGlyphs" textLength="14" x="364.25" y="533.0854">no</text><polygon fill="#FEFECE" filter="url(#f1gqqnppmgjv56)" points="280.25,626.0508,292.25,638.0508,280.25,650.0508,268.25,638.0508,280.25,626.0508" style="stroke: #A80036; stroke-width: 1.5;"/><path d="M394.25,666.9023 L394.25,683.0352 L374.25,687.0352 L394.25,691.0352 L394.25,707.168 A0,0 0 0 0 394.25,707.168 L634.25,707.168 A0,0 0 0 0 634.25,707.168 L634.25,676.9023 L624.25,666.9023 L394.25,666.9023 A0,0 0 0 0 394.25,666.9023 " fill="#FBFB77" filter="url(#f1gqqnppmgjv56)" style="stroke: #A80036; stroke-width: 1.0;"/><path d="M624.25,666.9023 L624.25,676.9023 L634.25,676.9023 L624.25,666.9023 " fill="#FBFB77" style="stroke: #A80036; stroke-width: 1.0;"/><text fill="#000000" font-family="sans-serif" font-size="13" lengthAdjust="spacingAndGlyphs" textLength="198" x="400.25" y="683.9692">Timeout to avoid the possibility</text><text fill="#000000" font-family="sans-serif" font-size="13" lengthAdjust="spacingAndGlyphs" textLength="219" x="400.25" y="699.1021">of getting stuck in the loop forever</text><rect fill="#87CEEB" filter="url(#f1gqqnppmgjv56)" height="33.9688" rx="12.5" ry="12.5" style="stroke: #A80036; stroke-width: 1.5;" width="188" x="186.25" y="670.0508"/><text fill="#000000" font-family="sans-serif" font-size="12" lengthAdjust="spacingAndGlyphs" textLength="168" x="196.25" y="691.1895">initialize countDown to 100</text><rect fill="#87CEEB" filter="url(#f1gqqnppmgjv56)" height="33.9688" rx="12.5" ry="12.5" style="stroke: #A80036; stroke-width: 1.5;" width="192" x="184.25" y="782.8784"/><text fill="#000000" font-family="sans-serif" font-size="12" lengthAdjust="spacingAndGlyphs" textLength="172" x="194.25" y="804.0171">decrement countDown by 1</text><path d="M350.25,848.1636 L350.25,856.73 L330.25,860.73 L350.25,864.73 L350.25,873.2964 A0,0 0 0 0 350.25,873.2964 L554.25,873.2964 A0,0 0 0 0 554.25,873.2964 L554.25,858.1636 L544.25,848.1636 L350.25,848.1636 A0,0 0 0 0 350.25,848.1636 " fill="#FBFB77" filter="url(#f1gqqnppmgjv56)" style="stroke: #A80036; stroke-width: 1.0;"/><path d="M544.25,848.1636 L544.25,858.1636 L554.25,858.1636 L544.25,848.1636 " fill="#FBFB77" style="stroke: #A80036; stroke-width: 1.0;"/><text fill="#000000" font-family="sans-serif" font-size="13" lengthAdjust="spacingAndGlyphs" textLength="183" x="356.25" y="865.2305">Wait for Gitlab to prepare MR</text><rect fill="#FEFECE" filter="url(#f1gqqnppmgjv56)" height="33.9688" rx="12.5" ry="12.5" style="stroke: #A80036; stroke-width: 1.5;" width="100" x="230.25" y="843.7456"/><text fill="#000000" font-family="sans-serif" font-size="12" lengthAdjust="spacingAndGlyphs" textLength="80" x="240.25" y="864.8843">sleep 100ms</text><rect fill="#FEFECE" filter="url(#f1gqqnppmgjv56)" height="33.9688" rx="12.5" ry="12.5" style="stroke: #A80036; stroke-width: 1.5;" width="200" x="180.25" y="897.7144"/><text fill="#000000" font-family="sans-serif" font-size="12" lengthAdjust="spacingAndGlyphs" textLength="180" x="190.25" y="918.853">update MRStatus from Gitlab</text><polygon fill="#FEFECE" filter="url(#f1gqqnppmgjv56)" points="124.25,727.168,436.25,727.168,448.25,739.168,436.25,751.168,124.25,751.168,112.25,739.168,124.25,727.168" style="stroke: #A80036; stroke-width: 1.5;"/><text fill="#000000" font-family="sans-serif" font-size="11" lengthAdjust="spacingAndGlyphs" textLength="20" x="284.25" y="761.3784">yes</text><text fill="#000000" font-family="sans-serif" font-size="11" lengthAdjust="spacingAndGlyphs" textLength="312" x="124.25" y="742.9761">MRStatus == unchecked|checking and countdown &gt; 0?</text><text fill="#000000" font-family="sans-serif" font-size="11" lengthAdjust="spacingAndGlyphs" textLength="14" x="98.25" y="736.5737">no</text><polygon fill="#FEFECE" filter="url(#f1gqqnppmgjv56)" points="232.75,973.6831,327.75,973.6831,339.75,985.6831,327.75,997.6831,232.75,997.6831,220.75,985.6831,232.75,973.6831" style="stroke: #A80036; stroke-width: 1.5;"/><text fill="#000000" font-family="sans-serif" font-size="11" lengthAdjust="spacingAndGlyphs" textLength="95" x="232.75" y="989.4912">countDown == 0</text><text fill="#000000" font-family="sans-serif" font-size="11" lengthAdjust="spacingAndGlyphs" textLength="20" x="200.75" y="983.0889">yes</text><text fill="#000000" font-family="sans-serif" font-size="11" lengthAdjust="spacingAndGlyphs" textLength="14" x="339.75" y="983.0889">no</text><rect fill="#FEFECE" filter="url(#f1gqqnppmgjv56)" height="33.9688" rx="12.5" ry="12.5" style="stroke: #A80036; stroke-width: 1.5;" width="51" x="10" y="1007.6831"/><text fill="#000000" font-family="sans-serif" font-size="12" lengthAdjust="spacingAndGlyphs" textLength="31" x="20" y="1028.8218">error</text><polygon fill="#FEFECE" filter="url(#f1gqqnppmgjv56)" points="303,1007.6831,787,1007.6831,799,1019.6831,787,1031.6831,303,1031.6831,291,1019.6831,303,1007.6831" style="stroke: #A80036; stroke-width: 1.5;"/><text fill="#000000" font-family="sans-serif" font-size="11" lengthAdjust="spacingAndGlyphs" textLength="484" x="303" y="1023.4912">Is MRStatus == mergeable|ci_still_running|ci_must_pass|status_checks_must_pass?</text><polygon fill="#FEFECE" filter="url(#f1gqqnppmgjv56)" points="221,1054.4878,331,1054.4878,343,1066.4878,331,1078.4878,221,1078.4878,209,1066.4878,221,1054.4878" style="stroke: #A80036; stroke-width: 1.5;"/><text fill="#000000" font-family="sans-serif" font-size="11" lengthAdjust="spacingAndGlyphs" textLength="110" x="221" y="1070.2959">MR has pipeline(s)?</text><text fill="#000000" font-family="sans-serif" font-size="11" lengthAdjust="spacingAndGlyphs" textLength="20" x="189" y="1063.8936">yes</text><text fill="#000000" font-family="sans-serif" font-size="11" lengthAdjust="spacingAndGlyphs" textLength="14" x="343" y="1063.8936">no</text><rect fill="#FEFECE" filter="url(#f1gqqnppmgjv56)" height="33.9688" rx="12.5" ry="12.5" style="stroke: #A80036; stroke-width: 1.5;" width="214" x="71" y="1088.4878"/><text fill="#000000" font-family="sans-serif" font-size="12" lengthAdjust="spacingAndGlyphs" textLength="194" x="81" y="1109.6265">merge when pipeline succeeds</text><rect fill="#FEFECE" filter="url(#f1gqqnppmgjv56)" height="33.9688" rx="12.5" ry="12.5" style="stroke: #A80036; stroke-width: 1.5;" width="138" x="305" y="1088.4878"/><text fill="#000000" font-family="sans-serif" font-size="12" lengthAdjust="spacingAndGlyphs" textLength="118" x="315" y="1109.6265">merge immediately</text><polygon fill="#FEFECE" filter="url(#f1gqqnppmgjv56)" points="276,1128.4565,288,1140.4565,276,1152.4565,264,1140.4565,276,1128.4565" style="stroke: #A80036; stroke-width: 1.5;"/><rect fill="#FEFECE" filter="url(#f1gqqnppmgjv56)" height="33.9688" rx="12.5" ry="12.5" style="stroke: #A80036; stroke-width: 1.5;" width="269" x="679.5" y="1115.2925"/><text fill="#000000" font-family="sans-serif" font-size="12" lengthAdjust="spacingAndGlyphs" textLength="249" x="689.5" y="1136.4312">get user that merged the preceding MR</text><polygon fill="#FEFECE" filter="url(#f1gqqnppmgjv56)" points="783,1054.4878,845,1054.4878,857,1066.4878,845,1078.4878,783,1078.4878,771,1066.4878,783,1054.4878" style="stroke: #A80036; stroke-width: 1.5;"/><text fill="#000000" font-family="sans-serif" font-size="11" lengthAdjust="spacingAndGlyphs" textLength="84" x="818" y="1088.6982">ucascade user</text><text fill="#000000" font-family="sans-serif" font-size="11" lengthAdjust="spacingAndGlyphs" textLength="62" x="783" y="1070.2959">MR merger</text><text fill="#000000" font-family="sans-serif" font-size="11" lengthAdjust="spacingAndGlyphs" textLength="128" x="643" y="1063.8936">not the ucascade user</text><rect fill="#FEFECE" filter="url(#f1gqqnppmgjv56)" height="33.9688" rx="12.5" ry="12.5" style="stroke: #A80036; stroke-width: 1.5;" width="424" x="602" y="1193.2612"/><text fill="#000000" font-family="sans-serif" font-size="12" lengthAdjust="spacingAndGlyphs" textLength="404" x="612" y="1214.3999">update MR to set its assignees to the MR assignees and merger</text><polygon fill="#FEFECE" filter="url(#f1gqqnppmgjv56)" points="545,1237.23,545,1237.23,557,1249.23,545,1261.23,545,1261.23,533,1249.23,545,1237.23" style="stroke: #A80036; stroke-width: 1.5;"/><polygon fill="#FEFECE" filter="url(#f1gqqnppmgjv56)" points="280.25,1267.23,292.25,1279.23,280.25,1291.23,268.25,1279.23,280.25,1267.23" style="stroke: #A80036; stroke-width: 1.5;"/><rect fill="#FF0000" filter="url(#f1gqqnppmgjv56)" height="33.9688" rx="12.5" ry="12.5" style="stroke: #A80036; stroke-width: 1.5;" width="130" x="1056" y="400.7422"/><text fill="#000000" font-family="sans-serif" font-size="12" lengthAdjust="spacingAndGlyphs" textLength="110" x="1066" y="421.8809">discard with error</text><polygon fill="#FEFECE" filter="url(#f1gqqnppmgjv56)" points="700.625,1297.23,712.625,1309.23,700.625,1321.23,688.625,1309.23,700.625,1297.23" style="stroke: #A80036; stroke-width: 1.5;"/><rect fill="#FEFECE" filter="url(#f1gqqnppmgjv56)" height="33.9688" rx="12.5" ry="12.5" style="stroke: #A80036; stroke-width: 1.5;" width="105" x="1216" y="366.7422"/><text fill="#000000" font-family="sans-serif" font-size="12" lengthAdjust="spacingAndGlyphs" textLength="85" x="1226" y="387.8809">nothing to do</text><polygon fill="#FEFECE" filter="url(#f1gqqnppmgjv56)" points="984.5625,1327.23,996.5625,1339.23,984.5625,1351.23,972.5625,1339.23,984.5625,1327.23" style="stroke: #A80036; stroke-width: 1.5;"/><rect fill="#FEFECE" filter="url(#f1gqqnppmgjv56)" height="33.9688" rx="12.5" ry="12.5" style="stroke: #A80036; stroke-width: 1.5;" width="177" x="1371.5" y="278.7734"/><text fill="#000000" font-family="sans-serif" font-size="12" lengthAdjust="spacingAndGlyphs" textLength="157" x="1381.5" y="299.9121">delete MR source branch</text><rect fill="#FEFECE" filter="url(#f1gqqnppmgjv56)" height="33.9688" rx="12.5" ry="12.5" style="stroke: #A80036; stroke-width: 1.5;" width="198" x="1361" y="381.1445"/><text fill="#000000" font-family="sans-serif" font-size="12" lengthAdjust="spacingAndGlyphs" textLength="178" x="1371" y="402.2832">merge oldest concurrent MR</text><polygon fill="#FEFECE" filter="url(#f1gqqnppmgjv56)" points="1363,332.7422,1557,332.7422,1569,344.7422,1557,356.7422,1363,356.7422,1351,344.7422,1363,332.7422" style="stroke: #A80036; stroke-width: 1.5;"/><text fill="#000000" font-family="sans-serif" font-size="11" lengthAdjust="spacingAndGlyphs" textLength="20" x="1464" y="366.9526">yes</text><text fill="#000000" font-family="sans-serif" font-size="11" lengthAdjust="spacingAndGlyphs" textLength="194" x="1363" y="348.5503">concurrent open auto MR(s) exist?</text><polygon fill="#FEFECE" filter="url(#f1gqqnppmgjv56)" points="1460,439.5156,1472,451.5156,1460,463.5156,1448,451.5156,1460,439.5156" style="stroke: #A80036; stroke-width: 1.5;"/><polygon fill="#FEFECE" filter="url(#f1gqqnppmgjv56)" points="1222.2813,1357.23,1234.2813,1369.23,1222.2813,1381.23,1210.2813,1369.23,1222.2813,1357.23" style="stroke: #A80036; stroke-width: 1.5;"/><polygon fill="#FEFECE" filter="url(#f1gqqnppmgjv56)" points="1175.2813,142.4023,1269.2813,142.4023,1281.2813,154.4023,1269.2813,166.4023,1175.2813,166.4023,1163.2813,154.4023,1175.2813,142.4023" style="stroke: #A80036; stroke-width: 1.5;"/><text fill="#000000" font-family="sans-serif" font-size="11" lengthAdjust="spacingAndGlyphs" textLength="20" x="1226.2813" y="176.6128">yes</text><text fill="#000000" font-family="sans-serif" font-size="11" lengthAdjust="spacingAndGlyphs" textLength="94" x="1175.2813" y="158.2104">request is valid?</text><polygon fill="#FEFECE" filter="url(#f1gqqnppmgjv56)" points="1222.2813,1401.23,1234.2813,1413.23,1222.2813,1425.23,1210.2813,1413.23,1222.2813,1401.23" style="stroke: #A80036; stroke-width: 1.5;"/><polygon fill="#FEFECE" filter="url(#f1gqqnppmgjv56)" points="1169.7813,94,1274.7813,94,1286.7813,106,1274.7813,118,1169.7813,118,1157.7813,106,1169.7813,94" style="stroke: #A80036; stroke-width: 1.5;"/><text fill="#000000" font-family="sans-serif" font-size="11" lengthAdjust="spacingAndGlyphs" textLength="20" x="1226.2813" y="128.2104">yes</text><text fill="#000000" font-family="sans-serif" font-size="11" lengthAdjust="spacingAndGlyphs" textLength="105" x="1169.7813" y="109.8081">incoming request?</text><polygon fill="#FEFECE" filter="url(#f1gqqnppmgjv56)" points="1222.2813,1445.23,1234.2813,1457.23,1222.2813,1469.23,1210.2813,1457.23,1222.2813,1445.23" style="stroke: #A80036; stroke-width: 1.5;"/><polygon fill="#FEFECE" filter="url(#f1gqqnppmgjv56)" points="1222.2813,50,1234.2813,62,1222.2813,74,1210.2813,62,1222.2813,50" style="stroke: #A80036; stroke-width: 1.5;"/><line style="stroke: #A80036; stroke-width: 1.5;" x1="280.25" x2="280.25" y1="434.7109" y2="469.7109"/><polygon fill="#A80036" points="276.25,459.7109,280.25,469.7109,284.25,459.7109,280.25,463.7109" style="stroke: #A80036; stroke-width: 1.0;"/><line style="stroke: #A80036; stroke-width: 1.5;" x1="280.25" x2="280.25" y1="547.6797" y2="572.082"/><polygon fill="#A80036" points="276.25,562.082,280.25,572.082,284.25,562.082,280.25,566.082" style="stroke: #A80036; stroke-width: 1.0;"/><line style="stroke: #A80036; stroke-width: 1.5;" x1="364.25" x2="493.25" y1="535.6797" y2="535.6797"/><polygon fill="#A80036" points="489.25,579.0664,493.25,589.0664,497.25,579.0664,493.25,583.0664" style="stroke: #A80036; stroke-width: 1.5;"/><line style="stroke: #A80036; stroke-width: 1.5;" x1="493.25" x2="493.25" y1="535.6797" y2="638.0508"/><line style="stroke: #A80036; stroke-width: 1.5;" x1="493.25" x2="292.25" y1="638.0508" y2="638.0508"/><polygon fill="#A80036" points="302.25,634.0508,292.25,638.0508,302.25,642.0508,298.25,638.0508" style="stroke: #A80036; stroke-width: 1.0;"/><line style="stroke: #A80036; stroke-width: 1.5;" x1="280.25" x2="280.25" y1="606.0508" y2="626.0508"/><polygon fill="#A80036" points="276.25,616.0508,280.25,626.0508,284.25,616.0508,280.25,620.0508" style="stroke: #A80036; stroke-width: 1.0;"/><line style="stroke: #A80036; stroke-width: 1.5;" x1="280.25" x2="280.25" y1="503.6797" y2="523.6797"/><polygon fill="#A80036" points="276.25,513.6797,280.25,523.6797,284.25,513.6797,280.25,517.6797" style="stroke: #A80036; stroke-width: 1.0;"/><line style="stroke: #A80036; stroke-width: 1.5;" x1="280.25" x2="280.25" y1="650.0508" y2="670.0508"/><polygon fill="#A80036" points="276.25,660.0508,280.25,670.0508,284.25,660.0508,280.25,664.0508" style="stroke: #A80036; stroke-width: 1.0;"/><line style="stroke: #A80036; stroke-width: 1.5;" x1="280.25" x2="280.25" y1="816.8472" y2="843.7456"/><polygon fill="#A80036" points="276.25,833.7456,280.25,843.7456,284.25,833.7456,280.25,837.7456" style="stroke: #A80036; stroke-width: 1.0;"/><line style="stroke: #A80036; stroke-width: 1.5;" x1="280.25" x2="280.25" y1="877.7144" y2="897.7144"/><polygon fill="#A80036" points="276.25,887.7144,280.25,897.7144,284.25,887.7144,280.25,891.7144" style="stroke: #A80036; stroke-width: 1.0;"/><line style="stroke: #A80036; stroke-width: 1.5;" x1="280.25" x2="280.25" y1="751.168" y2="782.8784"/><polygon fill="#A80036" points="276.25,772.8784,280.25,782.8784,284.25,772.8784,280.25,776.8784" style="stroke: #A80036; stroke-width: 1.0;"/><line style="stroke: #A80036; stroke-width: 1.5;" x1="280.25" x2="280.25" y1="931.6831" y2="941.6831"/><line style="stroke: #A80036; stroke-width: 1.5;" x1="280.25" x2="566.25" y1="941.6831" y2="941.6831"/><polygon fill="#A80036" points="562.25,852.3276,566.25,842.3276,570.25,852.3276,566.25,848.3276" style="stroke: #A80036; stroke-width: 1.5;"/><line style="stroke: #A80036; stroke-width: 1.5;" x1="566.25" x2="566.25" y1="739.168" y2="941.6831"/><line style="stroke: #A80036; stroke-width: 1.5;" x1="566.25" x2="448.25" y1="739.168" y2="739.168"/><polygon fill="#A80036" points="458.25,735.168,448.25,739.168,458.25,743.168,454.25,739.168" style="stroke: #A80036; stroke-width: 1.0;"/><line style="stroke: #A80036; stroke-width: 1.5;" x1="112.25" x2="100.25" y1="739.168" y2="739.168"/><polygon fill="#A80036" points="96.25,838.3276,100.25,848.3276,104.25,838.3276,100.25,842.3276" style="stroke: #A80036; stroke-width: 1.5;"/><line style="stroke: #A80036; stroke-width: 1.5;" x1="100.25" x2="100.25" y1="739.168" y2="953.6831"/><line style="stroke: #A80036; stroke-width: 1.5;" x1="100.25" x2="280.25" y1="953.6831" y2="953.6831"/><line style="stroke: #A80036; stroke-width: 1.5;" x1="280.25" x2="280.25" y1="953.6831" y2="973.6831"/><polygon fill="#A80036" points="276.25,963.6831,280.25,973.6831,284.25,963.6831,280.25,967.6831" style="stroke: #A80036; stroke-width: 1.0;"/><line style="stroke: #A80036; stroke-width: 1.5;" x1="280.25" x2="280.25" y1="704.0195" y2="727.168"/><polygon fill="#A80036" points="276.25,717.168,280.25,727.168,284.25,717.168,280.25,721.168" style="stroke: #A80036; stroke-width: 1.0;"/><line style="stroke: #A80036; stroke-width: 1.5;" x1="209" x2="178" y1="1066.4878" y2="1066.4878"/><line style="stroke: #A80036; stroke-width: 1.5;" x1="178" x2="178" y1="1066.4878" y2="1088.4878"/><polygon fill="#A80036" points="174,1078.4878,178,1088.4878,182,1078.4878,178,1082.4878" style="stroke: #A80036; stroke-width: 1.0;"/><line style="stroke: #A80036; stroke-width: 1.5;" x1="343" x2="374" y1="1066.4878" y2="1066.4878"/><line style="stroke: #A80036; stroke-width: 1.5;" x1="374" x2="374" y1="1066.4878" y2="1088.4878"/><polygon fill="#A80036" points="370,1078.4878,374,1088.4878,378,1078.4878,374,1082.4878" style="stroke: #A80036; stroke-width: 1.0;"/><line style="stroke: #A80036; stroke-width: 1.5;" x1="178" x2="178" y1="1122.4565" y2="1140.4565"/><line style="stroke: #A80036; stroke-width: 1.5;" x1="178" x2="264" y1="1140.4565" y2="1140.4565"/><polygon fill="#A80036" points="254,1136.4565,264,1140.4565,254,1144.4565,258,1140.4565" style="stroke: #A80036; stroke-width: 1.0;"/><line style="stroke: #A80036; stroke-width: 1.5;" x1="374" x2="374" y1="1122.4565" y2="1140.4565"/><line style="stroke: #A80036; stroke-width: 1.5;" x1="374" x2="288" y1="1140.4565" y2="1140.4565"/><polygon fill="#A80036" points="298,1136.4565,288,1140.4565,298,1144.4565,294,1140.4565" style="stroke: #A80036; stroke-width: 1.0;"/><line style="stroke: #A80036; stroke-width: 1.5;" x1="814" x2="814" y1="1078.4878" y2="1115.2925"/><polygon fill="#A80036" points="810,1105.2925,814,1115.2925,818,1105.2925,814,1109.2925" style="stroke: #A80036; stroke-width: 1.0;"/><line style="stroke: #A80036; stroke-width: 1.5;" x1="814" x2="814" y1="1149.2612" y2="1161.2612"/><line style="stroke: #A80036; stroke-width: 1.5;" x1="814" x2="960.5" y1="1161.2612" y2="1161.2612"/><polygon fill="#A80036" points="956.5,1123.8745,960.5,1113.8745,964.5,1123.8745,960.5,1119.8745" style="stroke: #A80036; stroke-width: 1.5;"/><line style="stroke: #A80036; stroke-width: 1.5;" x1="960.5" x2="960.5" y1="1066.4878" y2="1161.2612"/><line style="stroke: #A80036; stroke-width: 1.5;" x1="960.5" x2="857" y1="1066.4878" y2="1066.4878"/><polygon fill="#A80036" points="867,1062.4878,857,1066.4878,867,1070.4878,863,1066.4878" style="stroke: #A80036; stroke-width: 1.0;"/><line style="stroke: #A80036; stroke-width: 1.5;" x1="771" x2="667.5" y1="1066.4878" y2="1066.4878"/><polygon fill="#A80036" points="663.5,1109.8745,667.5,1119.8745,671.5,1109.8745,667.5,1113.8745" style="stroke: #A80036; stroke-width: 1.5;"/><line style="stroke: #A80036; stroke-width: 1.5;" x1="667.5" x2="667.5" y1="1066.4878" y2="1173.2612"/><line style="stroke: #A80036; stroke-width: 1.5;" x1="667.5" x2="814" y1="1173.2612" y2="1173.2612"/><line style="stroke: #A80036; stroke-width: 1.5;" x1="814" x2="814" y1="1173.2612" y2="1193.2612"/><polygon fill="#A80036" points="810,1183.2612,814,1193.2612,818,1183.2612,814,1187.2612" style="stroke: #A80036; stroke-width: 1.0;"/><line style="stroke: #A80036; stroke-width: 1.5;" x1="291" x2="276" y1="1019.6831" y2="1019.6831"/><line style="stroke: #A80036; stroke-width: 1.5;" x1="276" x2="276" y1="1019.6831" y2="1054.4878"/><polygon fill="#A80036" points="272,1044.4878,276,1054.4878,280,1044.4878,276,1048.4878" style="stroke: #A80036; stroke-width: 1.0;"/><text fill="#000000" font-family="sans-serif" font-size="11" lengthAdjust="spacingAndGlyphs" textLength="20" x="276" y="1040.8936">yes</text><line style="stroke: #A80036; stroke-width: 1.5;" x1="799" x2="814" y1="1019.6831" y2="1019.6831"/><line style="stroke: #A80036; stroke-width: 1.5;" x1="814" x2="814" y1="1019.6831" y2="1054.4878"/><polygon fill="#A80036" points="810,1044.4878,814,1054.4878,818,1044.4878,814,1048.4878" style="stroke: #A80036; stroke-width: 1.0;"/><text fill="#000000" font-family="sans-serif" font-size="11" lengthAdjust="spacingAndGlyphs" textLength="14" x="814" y="1040.8936">no</text><line style="stroke: #A80036; stroke-width: 1.5;" x1="276" x2="276" y1="1152.4565" y2="1249.23"/><line style="stroke: #A80036; stroke-width: 1.5;" x1="276" x2="533" y1="1249.23" y2="1249.23"/><polygon fill="#A80036" points="523,1245.23,533,1249.23,523,1253.23,527,1249.23" style="stroke: #A80036; stroke-width: 1.0;"/><line style="stroke: #A80036; stroke-width: 1.5;" x1="814" x2="814" y1="1227.23" y2="1249.23"/><line style="stroke: #A80036; stroke-width: 1.5;" x1="814" x2="557" y1="1249.23" y2="1249.23"/><polygon fill="#A80036" points="567,1245.23,557,1249.23,567,1253.23,563,1249.23" style="stroke: #A80036; stroke-width: 1.0;"/><line style="stroke: #A80036; stroke-width: 1.5;" x1="220.75" x2="35.5" y1="985.6831" y2="985.6831"/><line style="stroke: #A80036; stroke-width: 1.5;" x1="35.5" x2="35.5" y1="985.6831" y2="1007.6831"/><polygon fill="#A80036" points="31.5,997.6831,35.5,1007.6831,39.5,997.6831,35.5,1001.6831" style="stroke: #A80036; stroke-width: 1.0;"/><line style="stroke: #A80036; stroke-width: 1.5;" x1="339.75" x2="545" y1="985.6831" y2="985.6831"/><line style="stroke: #A80036; stroke-width: 1.5;" x1="545" x2="545" y1="985.6831" y2="1007.6831"/><polygon fill="#A80036" points="541,997.6831,545,1007.6831,549,997.6831,545,1001.6831" style="stroke: #A80036; stroke-width: 1.0;"/><line style="stroke: #A80036; stroke-width: 1.5;" x1="35.5" x2="35.5" y1="1041.6519" y2="1279.23"/><line style="stroke: #A80036; stroke-width: 1.5;" x1="35.5" x2="268.25" y1="1279.23" y2="1279.23"/><polygon fill="#A80036" points="258.25,1275.23,268.25,1279.23,258.25,1283.23,262.25,1279.23" style="stroke: #A80036; stroke-width: 1.0;"/><line style="stroke: #A80036; stroke-width: 1.5;" x1="545" x2="545" y1="1261.23" y2="1279.23"/><line style="stroke: #A80036; stroke-width: 1.5;" x1="545" x2="292.25" y1="1279.23" y2="1279.23"/><polygon fill="#A80036" points="302.25,1275.23,292.25,1279.23,302.25,1283.23,298.25,1279.23" style="stroke: #A80036; stroke-width: 1.0;"/><line style="stroke: #A80036; stroke-width: 1.5;" x1="594.625" x2="280.25" y1="378.7422" y2="378.7422"/><line style="stroke: #A80036; stroke-width: 1.5;" x1="280.25" x2="280.25" y1="378.7422" y2="400.7422"/><polygon fill="#A80036" points="276.25,390.7422,280.25,400.7422,284.25,390.7422,280.25,394.7422" style="stroke: #A80036; stroke-width: 1.0;"/><line style="stroke: #A80036; stroke-width: 1.5;" x1="806.625" x2="1121" y1="378.7422" y2="378.7422"/><line style="stroke: #A80036; stroke-width: 1.5;" x1="1121" x2="1121" y1="378.7422" y2="400.7422"/><polygon fill="#A80036" points="1117,390.7422,1121,400.7422,1125,390.7422,1121,394.7422" style="stroke: #A80036; stroke-width: 1.0;"/><line style="stroke: #A80036; stroke-width: 1.5;" x1="280.25" x2="280.25" y1="1291.23" y2="1309.23"/><line style="stroke: #A80036; stroke-width: 1.5;" x1="280.25" x2="688.625" y1="1309.23" y2="1309.23"/><polygon fill="#A80036" points="678.625,1305.23,688.625,1309.23,678.625,1313.23,682.625,1309.23" style="stroke: #A80036; stroke-width: 1.0;"/><line style="stroke: #A80036; stroke-width: 1.5;" x1="1121" x2="1121" y1="434.7109" y2="1309.23"/><line style="stroke: #A80036; stroke-width: 1.5;" x1="1121" x2="712.625" y1="1309.23" y2="1309.23"/><polygon fill="#A80036" points="722.625,1305.23,712.625,1309.23,722.625,1313.23,718.625,1309.23" style="stroke: #A80036; stroke-width: 1.0;"/><line style="stroke: #A80036; stroke-width: 1.5;" x1="885.5625" x2="700.625" y1="344.7422" y2="344.7422"/><line style="stroke: #A80036; stroke-width: 1.5;" x1="700.625" x2="700.625" y1="344.7422" y2="366.7422"/><polygon fill="#A80036" points="696.625,356.7422,700.625,366.7422,704.625,356.7422,700.625,360.7422" style="stroke: #A80036; stroke-width: 1.0;"/><line style="stroke: #A80036; stroke-width: 1.5;" x1="1083.5625" x2="1268.5" y1="344.7422" y2="344.7422"/><line style="stroke: #A80036; stroke-width: 1.5;" x1="1268.5" x2="1268.5" y1="344.7422" y2="366.7422"/><polygon fill="#A80036" points="1264.5,356.7422,1268.5,366.7422,1272.5,356.7422,1268.5,360.7422" style="stroke: #A80036; stroke-width: 1.0;"/><line style="stroke: #A80036; stroke-width: 1.5;" x1="700.625" x2="700.625" y1="1321.23" y2="1339.23"/><line style="stroke: #A80036; stroke-width: 1.5;" x1="700.625" x2="972.5625" y1="1339.23" y2="1339.23"/><polygon fill="#A80036" points="962.5625,1335.23,972.5625,1339.23,962.5625,1343.23,966.5625,1339.23" style="stroke: #A80036; stroke-width: 1.0;"/><line style="stroke: #A80036; stroke-width: 1.5;" x1="1268.5" x2="1268.5" y1="400.7109" y2="1339.23"/><line style="stroke: #A80036; stroke-width: 1.5;" x1="1268.5" x2="996.5625" y1="1339.23" y2="1339.23"/><polygon fill="#A80036" points="1006.5625,1335.23,996.5625,1339.23,1006.5625,1343.23,1002.5625,1339.23" style="stroke: #A80036; stroke-width: 1.0;"/><line style="stroke: #A80036; stroke-width: 1.5;" x1="984.5625" x2="984.5625" y1="312.7422" y2="332.7422"/><polygon fill="#A80036" points="980.5625,322.7422,984.5625,332.7422,988.5625,322.7422,984.5625,326.7422" style="stroke: #A80036; stroke-width: 1.0;"/><line style="stroke: #A80036; stroke-width: 1.5;" x1="1460" x2="1460" y1="356.7422" y2="381.1445"/><polygon fill="#A80036" points="1456,371.1445,1460,381.1445,1464,371.1445,1460,375.1445" style="stroke: #A80036; stroke-width: 1.0;"/><line style="stroke: #A80036; stroke-width: 1.5;" x1="1569" x2="1581" y1="344.7422" y2="344.7422"/><polygon fill="#A80036" points="1577,388.1289,1581,398.1289,1585,388.1289,1581,392.1289" style="stroke: #A80036; stroke-width: 1.5;"/><line style="stroke: #A80036; stroke-width: 1.5;" x1="1581" x2="1581" y1="344.7422" y2="451.5156"/><line style="stroke: #A80036; stroke-width: 1.5;" x1="1581" x2="1472" y1="451.5156" y2="451.5156"/><polygon fill="#A80036" points="1482,447.5156,1472,451.5156,1482,455.5156,1478,451.5156" style="stroke: #A80036; stroke-width: 1.0;"/><line style="stroke: #A80036; stroke-width: 1.5;" x1="1460" x2="1460" y1="415.1133" y2="439.5156"/><polygon fill="#A80036" points="1456,429.5156,1460,439.5156,1464,429.5156,1460,433.5156" style="stroke: #A80036; stroke-width: 1.0;"/><line style="stroke: #A80036; stroke-width: 1.5;" x1="1460" x2="1460" y1="312.7422" y2="332.7422"/><polygon fill="#A80036" points="1456,322.7422,1460,332.7422,1464,322.7422,1460,326.7422" style="stroke: #A80036; stroke-width: 1.0;"/><line style="stroke: #A80036; stroke-width: 1.5;" x1="1145.7813" x2="984.5625" y1="256.7734" y2="256.7734"/><line style="stroke: #A80036; stroke-width: 1.5;" x1="984.5625" x2="984.5625" y1="256.7734" y2="278.7734"/><polygon fill="#A80036" points="980.5625,268.7734,984.5625,278.7734,988.5625,268.7734,984.5625,272.7734" style="stroke: #A80036; stroke-width: 1.0;"/><line style="stroke: #A80036; stroke-width: 1.5;" x1="1298.7813" x2="1460" y1="256.7734" y2="256.7734"/><line style="stroke: #A80036; stroke-width: 1.5;" x1="1460" x2="1460" y1="256.7734" y2="278.7734"/><polygon fill="#A80036" points="1456,268.7734,1460,278.7734,1464,268.7734,1460,272.7734" style="stroke: #A80036; stroke-width: 1.0;"/><line style="stroke: #A80036; stroke-width: 1.5;" x1="984.5625" x2="984.5625" y1="1351.23" y2="1369.23"/><line style="stroke: #A80036; stroke-width: 1.5;" x1="984.5625" x2="1210.2813" y1="1369.23" y2="1369.23"/><polygon fill="#A80036" points="1200.2813,1365.23,1210.2813,1369.23,1200.2813,1373.23,1204.2813,1369.23" style="stroke: #A80036; stroke-width: 1.0;"/><line style="stroke: #A80036; stroke-width: 1.5;" x1="1460" x2="1460" y1="463.5156" y2="1369.23"/><line style="stroke: #A80036; stroke-width: 1.5;" x1="1460" x2="1234.2813" y1="1369.23" y2="1369.23"/><polygon fill="#A80036" points="1244.2813,1365.23,1234.2813,1369.23,1244.2813,1373.23,1240.2813,1369.23" style="stroke: #A80036; stroke-width: 1.0;"/><line style="stroke: #A80036; stroke-width: 1.5;" x1="1222.2813" x2="1222.2813" y1="224.7734" y2="244.7734"/><polygon fill="#A80036" points="1218.2813,234.7734,1222.2813,244.7734,1226.2813,234.7734,1222.2813,238.7734" style="stroke: #A80036; stroke-width: 1.0;"/><line style="stroke: #A80036; stroke-width: 1.5;" x1="1222.2813" x2="1222.2813" y1="166.4023" y2="190.8047"/><polygon fill="#A80036" points="1218.2813,180.8047,1222.2813,190.8047,1226.2813,180.8047,1222.2813,184.8047" style="stroke: #A80036; stroke-width: 1.0;"/><line style="stroke: #A80036; stroke-width: 1.5;" x1="1281.2813" x2="1599" y1="154.4023" y2="154.4023"/><polygon fill="#A80036" points="1595,809.7456,1599,819.7456,1603,809.7456,1599,813.7456" style="stroke: #A80036; stroke-width: 1.5;"/><line style="stroke: #A80036; stroke-width: 1.5;" x1="1599" x2="1599" y1="154.4023" y2="1413.23"/><line style="stroke: #A80036; stroke-width: 1.5;" x1="1599" x2="1234.2813" y1="1413.23" y2="1413.23"/><polygon fill="#A80036" points="1244.2813,1409.23,1234.2813,1413.23,1244.2813,1417.23,1240.2813,1413.23" style="stroke: #A80036; stroke-width: 1.0;"/><line style="stroke: #A80036; stroke-width: 1.5;" x1="1222.2813" x2="1222.2813" y1="1381.23" y2="1401.23"/><polygon fill="#A80036" points="1218.2813,1391.23,1222.2813,1401.23,1226.2813,1391.23,1222.2813,1395.23" style="stroke: #A80036; stroke-width: 1.0;"/><line style="stroke: #A80036; stroke-width: 1.5;" x1="1222.2813" x2="1222.2813" y1="118" y2="142.4023"/><polygon fill="#A80036" points="1218.2813,132.4023,1222.2813,142.4023,1226.2813,132.4023,1222.2813,136.4023" style="stroke: #A80036; stroke-width: 1.0;"/><line style="stroke: #A80036; stroke-width: 1.5;" x1="1286.7813" x2="1617" y1="106" y2="106"/><polygon fill="#A80036" points="1613,809.7456,1617,819.7456,1621,809.7456,1617,813.7456" style="stroke: #A80036; stroke-width: 1.5;"/><line style="stroke: #A80036; stroke-width: 1.5;" x1="1617" x2="1617" y1="106" y2="1457.23"/><line style="stroke: #A80036; stroke-width: 1.5;" x1="1617" x2="1234.2813" y1="1457.23" y2="1457.23"/><polygon fill="#A80036" points="1244.2813,1453.23,1234.2813,1457.23,1244.2813,1461.23,1240.2813,1457.23" style="stroke: #A80036; stroke-width: 1.0;"/><line style="stroke: #A80036; stroke-width: 1.5;" x1="1222.2813" x2="1222.2813" y1="1425.23" y2="1445.23"/><polygon fill="#A80036" points="1218.2813,1435.23,1222.2813,1445.23,1226.2813,1435.23,1222.2813,1439.23" style="stroke: #A80036; stroke-width: 1.0;"/><line style="stroke: #A80036; stroke-width: 1.5;" x1="1222.2813" x2="1222.2813" y1="74" y2="94"/><polygon fill="#A80036" points="1218.2813,84,1222.2813,94,1226.2813,84,1222.2813,88" style="stroke: #A80036; stroke-width: 1.0;"/><line style="stroke: #A80036; stroke-width: 1.5;" x1="1222.2813" x2="1222.2813" y1="1469.23" y2="1517.23"/><line style="stroke: #A80036; stroke-width: 1.5;" x1="1222.2813" x2="1635" y1="1517.23" y2="1517.23"/><polygon fill="#A80036" points="1631,823.7456,1635,813.7456,1639,823.7456,1635,819.7456" style="stroke: #A80036; stroke-width: 1.5;"/><line style="stroke: #A80036; stroke-width: 1.5;" x1="1635" x2="1635" y1="62" y2="1517.23"/><line style="stroke: #A80036; stroke-width: 1.5;" x1="1635" x2="1234.2813" y1="62" y2="62"/><polygon fill="#A80036" points="1244.2813,58,1234.2813,62,1244.2813,66,1240.2813,62" style="stroke: #A80036; stroke-width: 1.0;"/><line style="stroke: #A80036; stroke-width: 1.5;" x1="1222.2813" x2="1222.2813" y1="30" y2="50"/><polygon fill="#A80036" points="1218.2813,40,1222.2813,50,1226.2813,40,1222.2813,44" style="stroke: #A80036; stroke-width: 1.0;"/><!--MD5=[b901b427702999c1729649779243a373]
@startuml technical-workflow
start
repeat
if (incoming request?) then (yes)
    if (request is valid?) then (yes)
        :fetch properties from the MergeRequestEvent object;
        if (merge-request action?) then (MERGE)
            :try to read nextMainBranch from configuration file;
            if (nextMainBranch is configured?) then (yes)
                if (nextMainBranch exists remotely?) then (yes)
                    :create new branch from targetBranch;
                    :create new MR from the new branch into the nextMainBranch;
                    if (apiTokenApprover is set?) then (yes)
                        :approve the just created MR as that user (apiTokenApprover);
                    else (no)
                    endif
                    #SkyBlue:initialize countDown to 100;
                    note right 
                        Timeout to avoid the possibility
                        of getting stuck in the loop forever
                    end note
                    while(MRStatus == unchecked|checking and countdown > 0?) is (yes)
                        #SkyBlue:decrement countDown by 1;
                        :sleep 100ms;
                        note right: Wait for Gitlab to prepare MR
                        :update MRStatus from Gitlab;
                    endwhile (no)
                    if (countDown == 0) then (yes) 
                        :error;
                    else (no)
                        switch(Is MRStatus == mergeable|ci_still_running|ci_must_pass|status_checks_must_pass?)
                        case (yes)
                            if (MR has pipeline(s)?) then (yes)
                                :merge when pipeline succeeds;
                            else (no)
                                :merge immediately;
                            endif
                        case (no)
                            while(MR merger) is (ucascade user)
                                :get user that merged the preceding MR;
                            endwhile (not the ucascade user)
                            :update MR to set its assignees to the MR assignees and merger;
                        endswitch
                    endif
                else (no)
                    #red:discard with error;
                endif
                else (no)
                    :nothing to do;
            endif
        else (CLOSE)
            :delete MR source branch;
            if (concurrent open auto MR(s) exist?) then (yes)
                :merge oldest concurrent MR;
            endif
        endif
    endif
endif
repeat while
@enduml

PlantUML version 1.2020.06(Sun Apr 05 12:38:32 GMT 2020)
(APACHE source distribution)
Java Runtime: OpenJDK Runtime Environment
JVM: OpenJDK 64-Bit Server VM
Java Version: 11.0.18+10
Operating System: Linux
Default Encoding: UTF-8
Language: en
Country: US
--></g></svg>