<?xml version="1.0" encoding="UTF-8" standalone="no"?><svg xmlns="http://www.w3.org/2000/svg" xmlns:xlink="http://www.w3.org/1999/xlink" contentScriptType="application/ecmascript" contentStyleType="text/css" height="1529px" preserveAspectRatio="none" style="width:1475px;height:1529px;" version="1.1" viewBox="0 0 1475 1529" width="1475px" zoomAndPan="magnify"><defs><filter height="300%" id="fz4my0zrz5grg" width="300%" x="-1" y="-1"><feGaussianBlur result="blurOut" stdDeviation="2.0"/><feColorMatrix in="blurOut" result="blurOut2" type="matrix" values="0 0 0 0 0 0 0 0 0 0 0 0 0 0 0 0 0 0 .4 0"/><feOffset dx="4.0" dy="4.0" in="blurOut2" result="blurOut3"/><feBlend in="SourceGraphic" in2="blurOut3" mode="normal"/></filter></defs><g><ellipse cx="1057.6563" cy="20" fill="#000000" filter="url(#fz4my0zrz5grg)" rx="10" ry="10" style="stroke: none; stroke-width: 1.0;"/><rect fill="#FEFECE" filter="url(#fz4my0zrz5grg)" height="33.9688" rx="12.5" ry="12.5" style="stroke: #A80036; stroke-width: 1.5;" width="351" x="882.1563" y="190.8047"/><text fill="#000000" font-family="sans-serif" font-size="12" lengthAdjust="spacingAndGlyphs" textLength="331" x="892.1563" y="211.9434">fetch properties from the MergeRequestEvent object</text><polygon fill="#FEFECE" filter="url(#fz4my0zrz5grg)" points="993.1563,244.7734,1122.1563,244.7734,1134.1563,256.7734,1122.1563,268.7734,993.1563,268.7734,981.1563,256.7734,993.1563,244.7734" style="stroke: #A80036; stroke-width: 1.5;"/><text fill="#000000" font-family="sans-serif" font-size="11" lengthAdjust="spacingAndGlyphs" textLength="129" x="993.1563" y="260.5815">merge-request action?</text><text fill="#000000" font-family="sans-serif" font-size="11" lengthAdjust="spacingAndGlyphs" textLength="39" x="942.1563" y="254.1792">MERGE</text><text fill="#000000" font-family="sans-serif" font-size="11" lengthAdjust="spacingAndGlyphs" textLength="38" x="1134.1563" y="254.1792">CLOSE</text><rect fill="#FEFECE" filter="url(#fz4my0zrz5grg)" height="33.9688" rx="12.5" ry="12.5" style="stroke: #A80036; stroke-width: 1.5;" width="331" x="675.3125" y="278.7734"/><text fill="#000000" font-family="sans-serif" font-size="12" lengthAdjust="spacingAndGlyphs" textLength="311" x="685.3125" y="299.9121">try to read nextMainBranch from configuration file</text><polygon fill="#FEFECE" filter="url(#fz4my0zrz5grg)" points="753.8125,332.7422,927.8125,332.7422,939.8125,344.7422,927.8125,356.7422,753.8125,356.7422,741.8125,344.7422,753.8125,332.7422" style="stroke: #A80036; stroke-width: 1.5;"/><text fill="#000000" font-family="sans-serif" font-size="11" lengthAdjust="spacingAndGlyphs" textLength="174" x="753.8125" y="348.5503">nextMainBranch is configured?</text><text fill="#000000" font-family="sans-serif" font-size="11" lengthAdjust="spacingAndGlyphs" textLength="20" x="721.8125" y="342.1479">yes</text><text fill="#000000" font-family="sans-serif" font-size="11" lengthAdjust="spacingAndGlyphs" textLength="14" x="939.8125" y="342.1479">no</text><polygon fill="#FEFECE" filter="url(#fz4my0zrz5grg)" points="504.625,366.7422,692.625,366.7422,704.625,378.7422,692.625,390.7422,504.625,390.7422,492.625,378.7422,504.625,366.7422" style="stroke: #A80036; stroke-width: 1.5;"/><text fill="#000000" font-family="sans-serif" font-size="11" lengthAdjust="spacingAndGlyphs" textLength="188" x="504.625" y="382.5503">nextMainBranch exists remotely?</text><text fill="#000000" font-family="sans-serif" font-size="11" lengthAdjust="spacingAndGlyphs" textLength="20" x="472.625" y="376.1479">yes</text><text fill="#000000" font-family="sans-serif" font-size="11" lengthAdjust="spacingAndGlyphs" textLength="14" x="704.625" y="376.1479">no</text><rect fill="#FEFECE" filter="url(#fz4my0zrz5grg)" height="33.9688" rx="12.5" ry="12.5" style="stroke: #A80036; stroke-width: 1.5;" width="257" x="133.25" y="400.7422"/><text fill="#000000" font-family="sans-serif" font-size="12" lengthAdjust="spacingAndGlyphs" textLength="237" x="143.25" y="421.8809">create new branch from targetBranch</text><rect fill="#FEFECE" filter="url(#fz4my0zrz5grg)" height="33.9688" rx="12.5" ry="12.5" style="stroke: #A80036; stroke-width: 1.5;" width="403" x="60.25" y="469.7109"/><text fill="#000000" font-family="sans-serif" font-size="12" lengthAdjust="spacingAndGlyphs" textLength="383" x="70.25" y="490.8496">create new MR from the new branch into the nextMainBranch</text><rect fill="#FEFECE" filter="url(#fz4my0zrz5grg)" height="33.9688" rx="12.5" ry="12.5" style="stroke: #A80036; stroke-width: 1.5;" width="406" x="58.75" y="572.082"/><text fill="#000000" font-family="sans-serif" font-size="12" lengthAdjust="spacingAndGlyphs" textLength="386" x="68.75" y="593.2207">approve the just created MR as that user (apiTokenApprover)</text><polygon fill="#FEFECE" filter="url(#fz4my0zrz5grg)" points="189.75,523.6797,333.75,523.6797,345.75,535.6797,333.75,547.6797,189.75,547.6797,177.75,535.6797,189.75,523.6797" style="stroke: #A80036; stroke-width: 1.5;"/><text fill="#000000" font-family="sans-serif" font-size="11" lengthAdjust="spacingAndGlyphs" textLength="20" x="265.75" y="557.8901">yes</text><text fill="#000000" font-family="sans-serif" font-size="11" lengthAdjust="spacingAndGlyphs" textLength="144" x="189.75" y="539.4878">apiTokenApprover is set?</text><text fill="#000000" font-family="sans-serif" font-size="11" lengthAdjust="spacingAndGlyphs" textLength="14" x="345.75" y="533.0854">no</text><polygon fill="#FEFECE" filter="url(#fz4my0zrz5grg)" points="261.75,626.0508,273.75,638.0508,261.75,650.0508,249.75,638.0508,261.75,626.0508" style="stroke: #A80036; stroke-width: 1.5;"/><path d="M375.75,666.9023 L375.75,683.0352 L355.75,687.0352 L375.75,691.0352 L375.75,707.168 A0,0 0 0 0 375.75,707.168 L615.75,707.168 A0,0 0 0 0 615.75,707.168 L615.75,676.9023 L605.75,666.9023 L375.75,666.9023 A0,0 0 0 0 375.75,666.9023 " fill="#FBFB77" filter="url(#fz4my0zrz5grg)" style="stroke: #A80036; stroke-width: 1.0;"/><path d="M605.75,666.9023 L605.75,676.9023 L615.75,676.9023 L605.75,666.9023 " fill="#FBFB77" style="stroke: #A80036; stroke-width: 1.0;"/><text fill="#000000" font-family="sans-serif" font-size="13" lengthAdjust="spacingAndGlyphs" textLength="198" x="381.75" y="683.9692">Timeout to avoid the possibility</text><text fill="#000000" font-family="sans-serif" font-size="13" lengthAdjust="spacingAndGlyphs" textLength="219" x="381.75" y="699.1021">of getting stuck in the loop forever</text><rect fill="#87CEEB" filter="url(#fz4my0zrz5grg)" height="33.9688" rx="12.5" ry="12.5" style="stroke: #A80036; stroke-width: 1.5;" width="188" x="167.75" y="670.0508"/><text fill="#000000" font-family="sans-serif" font-size="12" lengthAdjust="spacingAndGlyphs" textLength="168" x="177.75" y="691.1895">initialize countDown to 100</text><rect fill="#87CEEB" filter="url(#fz4my0zrz5grg)" height="33.9688" rx="12.5" ry="12.5" style="stroke: #A80036; stroke-width: 1.5;" width="192" x="165.75" y="782.8784"/><text fill="#000000" font-family="sans-serif" font-size="12" lengthAdjust="spacingAndGlyphs" textLength="172" x="175.75" y="804.0171">decrement countDown by 1</text><path d="M331.75,848.1636 L331.75,856.73 L311.75,860.73 L331.75,864.73 L331.75,873.2964 A0,0 0 0 0 331.75,873.2964 L535.75,873.2964 A0,0 0 0 0 535.75,873.2964 L535.75,858.1636 L525.75,848.1636 L331.75,848.1636 A0,0 0 0 0 331.75,848.1636 " fill="#FBFB77" filter="url(#fz4my0zrz5grg)" style="stroke: #A80036; stroke-width: 1.0;"/><path d="M525.75,848.1636 L525.75,858.1636 L535.75,858.1636 L525.75,848.1636 " fill="#FBFB77" style="stroke: #A80036; stroke-width: 1.0;"/><text fill="#000000" font-family="sans-serif" font-size="13" lengthAdjust="spacingAndGlyphs" textLength="183" x="337.75" y="865.2305">Wait for Gitlab to prepare MR</text><rect fill="#FEFECE" filter="url(#fz4my0zrz5grg)" height="33.9688" rx="12.5" ry="12.5" style="stroke: #A80036; stroke-width: 1.5;" width="100" x="211.75" y="843.7456"/><text fill="#000000" font-family="sans-serif" font-size="12" lengthAdjust="spacingAndGlyphs" textLength="80" x="221.75" y="864.8843">sleep 100ms</text><rect fill="#FEFECE" filter="url(#fz4my0zrz5grg)" height="33.9688" rx="12.5" ry="12.5" style="stroke: #A80036; stroke-width: 1.5;" width="200" x="161.75" y="897.7144"/><text fill="#000000" font-family="sans-serif" font-size="12" lengthAdjust="spacingAndGlyphs" textLength="180" x="171.75" y="918.853">update MRStatus from Gitlab</text><polygon fill="#FEFECE" filter="url(#fz4my0zrz5grg)" points="105.75,727.168,417.75,727.168,429.75,739.168,417.75,751.168,105.75,751.168,93.75,739.168,105.75,727.168" style="stroke: #A80036; stroke-width: 1.5;"/><text fill="#000000" font-family="sans-serif" font-size="11" lengthAdjust="spacingAndGlyphs" textLength="20" x="265.75" y="761.3784">yes</text><text fill="#000000" font-family="sans-serif" font-size="11" lengthAdjust="spacingAndGlyphs" textLength="312" x="105.75" y="742.9761">MRStatus == unchecked|checking and countdown &gt; 0?</text><text fill="#000000" font-family="sans-serif" font-size="11" lengthAdjust="spacingAndGlyphs" textLength="14" x="79.75" y="736.5737">no</text><polygon fill="#FEFECE" filter="url(#fz4my0zrz5grg)" points="214.25,973.6831,309.25,973.6831,321.25,985.6831,309.25,997.6831,214.25,997.6831,202.25,985.6831,214.25,973.6831" style="stroke: #A80036; stroke-width: 1.5;"/><text fill="#000000" font-family="sans-serif" font-size="11" lengthAdjust="spacingAndGlyphs" textLength="95" x="214.25" y="989.4912">countDown == 0</text><text fill="#000000" font-family="sans-serif" font-size="11" lengthAdjust="spacingAndGlyphs" textLength="20" x="182.25" y="983.0889">yes</text><text fill="#000000" font-family="sans-serif" font-size="11" lengthAdjust="spacingAndGlyphs" textLength="14" x="321.25" y="983.0889">no</text><rect fill="#FEFECE" filter="url(#fz4my0zrz5grg)" height="33.9688" rx="12.5" ry="12.5" style="stroke: #A80036; stroke-width: 1.5;" width="51" x="10" y="1007.6831"/><text fill="#000000" font-family="sans-serif" font-size="12" lengthAdjust="spacingAndGlyphs" textLength="31" x="20" y="1028.8218">error</text><polygon fill="#FEFECE" filter="url(#fz4my0zrz5grg)" points="323,1007.6831,653,1007.6831,665,1019.6831,653,1031.6831,323,1031.6831,311,1019.6831,323,1007.6831" style="stroke: #A80036; stroke-width: 1.5;"/><text fill="#000000" font-family="sans-serif" font-size="11" lengthAdjust="spacingAndGlyphs" textLength="330" x="323" y="1023.4912">Is MRStatus == mergeable|ci_still_running|ci_must_pass?</text><polygon fill="#FEFECE" filter="url(#fz4my0zrz5grg)" points="241,1054.4878,351,1054.4878,363,1066.4878,351,1078.4878,241,1078.4878,229,1066.4878,241,1054.4878" style="stroke: #A80036; stroke-width: 1.5;"/><text fill="#000000" font-family="sans-serif" font-size="11" lengthAdjust="spacingAndGlyphs" textLength="110" x="241" y="1070.2959">MR has pipeline(s)?</text><text fill="#000000" font-family="sans-serif" font-size="11" lengthAdjust="spacingAndGlyphs" textLength="20" x="209" y="1063.8936">yes</text><text fill="#000000" font-family="sans-serif" font-size="11" lengthAdjust="spacingAndGlyphs" textLength="14" x="363" y="1063.8936">no</text><rect fill="#FEFECE" filter="url(#fz4my0zrz5grg)" height="33.9688" rx="12.5" ry="12.5" style="stroke: #A80036; stroke-width: 1.5;" width="214" x="91" y="1088.4878"/><text fill="#000000" font-family="sans-serif" font-size="12" lengthAdjust="spacingAndGlyphs" textLength="194" x="101" y="1109.6265">merge when pipeline succeeds</text><rect fill="#FEFECE" filter="url(#fz4my0zrz5grg)" height="33.9688" rx="12.5" ry="12.5" style="stroke: #A80036; stroke-width: 1.5;" width="138" x="325" y="1088.4878"/><text fill="#000000" font-family="sans-serif" font-size="12" lengthAdjust="spacingAndGlyphs" textLength="118" x="335" y="1109.6265">merge immediately</text><polygon fill="#FEFECE" filter="url(#fz4my0zrz5grg)" points="296,1128.4565,308,1140.4565,296,1152.4565,284,1140.4565,296,1128.4565" style="stroke: #A80036; stroke-width: 1.5;"/><rect fill="#FEFECE" filter="url(#fz4my0zrz5grg)" height="33.9688" rx="12.5" ry="12.5" style="stroke: #A80036; stroke-width: 1.5;" width="269" x="545.5" y="1115.2925"/><text fill="#000000" font-family="sans-serif" font-size="12" lengthAdjust="spacingAndGlyphs" textLength="249" x="555.5" y="1136.4312">get user that merged the preceding MR</text><polygon fill="#FEFECE" filter="url(#fz4my0zrz5grg)" points="649,1054.4878,711,1054.4878,723,1066.4878,711,1078.4878,649,1078.4878,637,1066.4878,649,1054.4878" style="stroke: #A80036; stroke-width: 1.5;"/><text fill="#000000" font-family="sans-serif" font-size="11" lengthAdjust="spacingAndGlyphs" textLength="84" x="684" y="1088.6982">ucascade user</text><text fill="#000000" font-family="sans-serif" font-size="11" lengthAdjust="spacingAndGlyphs" textLength="62" x="649" y="1070.2959">MR merger</text><text fill="#000000" font-family="sans-serif" font-size="11" lengthAdjust="spacingAndGlyphs" textLength="128" x="509" y="1063.8936">not the ucascade user</text><rect fill="#FEFECE" filter="url(#fz4my0zrz5grg)" height="33.9688" rx="12.5" ry="12.5" style="stroke: #A80036; stroke-width: 1.5;" width="321" x="519.5" y="1193.2612"/><text fill="#000000" font-family="sans-serif" font-size="12" lengthAdjust="spacingAndGlyphs" textLength="301" x="529.5" y="1214.3999">update MR to set its assignee to the MR merger</text><polygon fill="#FEFECE" filter="url(#fz4my0zrz5grg)" points="488,1237.23,488,1237.23,500,1249.23,488,1261.23,488,1261.23,476,1249.23,488,1237.23" style="stroke: #A80036; stroke-width: 1.5;"/><polygon fill="#FEFECE" filter="url(#fz4my0zrz5grg)" points="261.75,1267.23,273.75,1279.23,261.75,1291.23,249.75,1279.23,261.75,1267.23" style="stroke: #A80036; stroke-width: 1.5;"/><rect fill="#FF0000" filter="url(#fz4my0zrz5grg)" height="33.9688" rx="12.5" ry="12.5" style="stroke: #A80036; stroke-width: 1.5;" width="130" x="870.5" y="400.7422"/><text fill="#000000" font-family="sans-serif" font-size="12" lengthAdjust="spacingAndGlyphs" textLength="110" x="880.5" y="421.8809">discard with error</text><polygon fill="#FEFECE" filter="url(#fz4my0zrz5grg)" points="598.625,1297.23,610.625,1309.23,598.625,1321.23,586.625,1309.23,598.625,1297.23" style="stroke: #A80036; stroke-width: 1.5;"/><rect fill="#FEFECE" filter="url(#fz4my0zrz5grg)" height="33.9688" rx="12.5" ry="12.5" style="stroke: #A80036; stroke-width: 1.5;" width="105" x="1030.5" y="366.7422"/><text fill="#000000" font-family="sans-serif" font-size="12" lengthAdjust="spacingAndGlyphs" textLength="85" x="1040.5" y="387.8809">nothing to do</text><polygon fill="#FEFECE" filter="url(#fz4my0zrz5grg)" points="840.8125,1327.23,852.8125,1339.23,840.8125,1351.23,828.8125,1339.23,840.8125,1327.23" style="stroke: #A80036; stroke-width: 1.5;"/><rect fill="#FEFECE" filter="url(#fz4my0zrz5grg)" height="33.9688" rx="12.5" ry="12.5" style="stroke: #A80036; stroke-width: 1.5;" width="177" x="1186" y="278.7734"/><text fill="#000000" font-family="sans-serif" font-size="12" lengthAdjust="spacingAndGlyphs" textLength="157" x="1196" y="299.9121">delete MR source branch</text><rect fill="#FEFECE" filter="url(#fz4my0zrz5grg)" height="33.9688" rx="12.5" ry="12.5" style="stroke: #A80036; stroke-width: 1.5;" width="198" x="1175.5" y="381.1445"/><text fill="#000000" font-family="sans-serif" font-size="12" lengthAdjust="spacingAndGlyphs" textLength="178" x="1185.5" y="402.2832">merge oldest concurrent MR</text><polygon fill="#FEFECE" filter="url(#fz4my0zrz5grg)" points="1177.5,332.7422,1371.5,332.7422,1383.5,344.7422,1371.5,356.7422,1177.5,356.7422,1165.5,344.7422,1177.5,332.7422" style="stroke: #A80036; stroke-width: 1.5;"/><text fill="#000000" font-family="sans-serif" font-size="11" lengthAdjust="spacingAndGlyphs" textLength="20" x="1278.5" y="366.9526">yes</text><text fill="#000000" font-family="sans-serif" font-size="11" lengthAdjust="spacingAndGlyphs" textLength="194" x="1177.5" y="348.5503">concurrent open auto MR(s) exist?</text><polygon fill="#FEFECE" filter="url(#fz4my0zrz5grg)" points="1274.5,439.5156,1286.5,451.5156,1274.5,463.5156,1262.5,451.5156,1274.5,439.5156" style="stroke: #A80036; stroke-width: 1.5;"/><polygon fill="#FEFECE" filter="url(#fz4my0zrz5grg)" points="1057.6563,1357.23,1069.6563,1369.23,1057.6563,1381.23,1045.6563,1369.23,1057.6563,1357.23" style="stroke: #A80036; stroke-width: 1.5;"/><polygon fill="#FEFECE" filter="url(#fz4my0zrz5grg)" points="1010.6563,142.4023,1104.6563,142.4023,1116.6563,154.4023,1104.6563,166.4023,1010.6563,166.4023,998.6563,154.4023,1010.6563,142.4023" style="stroke: #A80036; stroke-width: 1.5;"/><text fill="#000000" font-family="sans-serif" font-size="11" lengthAdjust="spacingAndGlyphs" textLength="20" x="1061.6563" y="176.6128">yes</text><text fill="#000000" font-family="sans-serif" font-size="11" lengthAdjust="spacingAndGlyphs" textLength="94" x="1010.6563" y="158.2104">request is valid?</text><polygon fill="#FEFECE" filter="url(#fz4my0zrz5grg)" points="1057.6563,1401.23,1069.6563,1413.23,1057.6563,1425.23,1045.6563,1413.23,1057.6563,1401.23" style="stroke: #A80036; stroke-width: 1.5;"/><polygon fill="#FEFECE" filter="url(#fz4my0zrz5grg)" points="1005.1563,94,1110.1563,94,1122.1563,106,1110.1563,118,1005.1563,118,993.1563,106,1005.1563,94" style="stroke: #A80036; stroke-width: 1.5;"/><text fill="#000000" font-family="sans-serif" font-size="11" lengthAdjust="spacingAndGlyphs" textLength="20" x="1061.6563" y="128.2104">yes</text><text fill="#000000" font-family="sans-serif" font-size="11" lengthAdjust="spacingAndGlyphs" textLength="105" x="1005.1563" y="109.8081">incoming request?</text><polygon fill="#FEFECE" filter="url(#fz4my0zrz5grg)" points="1057.6563,1445.23,1069.6563,1457.23,1057.6563,1469.23,1045.6563,1457.23,1057.6563,1445.23" style="stroke: #A80036; stroke-width: 1.5;"/><polygon fill="#FEFECE" filter="url(#fz4my0zrz5grg)" points="1057.6563,50,1069.6563,62,1057.6563,74,1045.6563,62,1057.6563,50" style="stroke: #A80036; stroke-width: 1.5;"/><line style="stroke: #A80036; stroke-width: 1.5;" x1="261.75" x2="261.75" y1="434.7109" y2="469.7109"/><polygon fill="#A80036" points="257.75,459.7109,261.75,469.7109,265.75,459.7109,261.75,463.7109" style="stroke: #A80036; stroke-width: 1.0;"/><line style="stroke: #A80036; stroke-width: 1.5;" x1="261.75" x2="261.75" y1="547.6797" y2="572.082"/><polygon fill="#A80036" points="257.75,562.082,261.75,572.082,265.75,562.082,261.75,566.082" style="stroke: #A80036; stroke-width: 1.0;"/><line style="stroke: #A80036; stroke-width: 1.5;" x1="345.75" x2="474.75" y1="535.6797" y2="535.6797"/><polygon fill="#A80036" points="470.75,579.0664,474.75,589.0664,478.75,579.0664,474.75,583.0664" style="stroke: #A80036; stroke-width: 1.5;"/><line style="stroke: #A80036; stroke-width: 1.5;" x1="474.75" x2="474.75" y1="535.6797" y2="638.0508"/><line style="stroke: #A80036; stroke-width: 1.5;" x1="474.75" x2="273.75" y1="638.0508" y2="638.0508"/><polygon fill="#A80036" points="283.75,634.0508,273.75,638.0508,283.75,642.0508,279.75,638.0508" style="stroke: #A80036; stroke-width: 1.0;"/><line style="stroke: #A80036; stroke-width: 1.5;" x1="261.75" x2="261.75" y1="606.0508" y2="626.0508"/><polygon fill="#A80036" points="257.75,616.0508,261.75,626.0508,265.75,616.0508,261.75,620.0508" style="stroke: #A80036; stroke-width: 1.0;"/><line style="stroke: #A80036; stroke-width: 1.5;" x1="261.75" x2="261.75" y1="503.6797" y2="523.6797"/><polygon fill="#A80036" points="257.75,513.6797,261.75,523.6797,265.75,513.6797,261.75,517.6797" style="stroke: #A80036; stroke-width: 1.0;"/><line style="stroke: #A80036; stroke-width: 1.5;" x1="261.75" x2="261.75" y1="650.0508" y2="670.0508"/><polygon fill="#A80036" points="257.75,660.0508,261.75,670.0508,265.75,660.0508,261.75,664.0508" style="stroke: #A80036; stroke-width: 1.0;"/><line style="stroke: #A80036; stroke-width: 1.5;" x1="261.75" x2="261.75" y1="816.8472" y2="843.7456"/><polygon fill="#A80036" points="257.75,833.7456,261.75,843.7456,265.75,833.7456,261.75,837.7456" style="stroke: #A80036; stroke-width: 1.0;"/><line style="stroke: #A80036; stroke-width: 1.5;" x1="261.75" x2="261.75" y1="877.7144" y2="897.7144"/><polygon fill="#A80036" points="257.75,887.7144,261.75,897.7144,265.75,887.7144,261.75,891.7144" style="stroke: #A80036; stroke-width: 1.0;"/><line style="stroke: #A80036; stroke-width: 1.5;" x1="261.75" x2="261.75" y1="751.168" y2="782.8784"/><polygon fill="#A80036" points="257.75,772.8784,261.75,782.8784,265.75,772.8784,261.75,776.8784" style="stroke: #A80036; stroke-width: 1.0;"/><line style="stroke: #A80036; stroke-width: 1.5;" x1="261.75" x2="261.75" y1="931.6831" y2="941.6831"/><line style="stroke: #A80036; stroke-width: 1.5;" x1="261.75" x2="547.75" y1="941.6831" y2="941.6831"/><polygon fill="#A80036" points="543.75,852.3276,547.75,842.3276,551.75,852.3276,547.75,848.3276" style="stroke: #A80036; stroke-width: 1.5;"/><line style="stroke: #A80036; stroke-width: 1.5;" x1="547.75" x2="547.75" y1="739.168" y2="941.6831"/><line style="stroke: #A80036; stroke-width: 1.5;" x1="547.75" x2="429.75" y1="739.168" y2="739.168"/><polygon fill="#A80036" points="439.75,735.168,429.75,739.168,439.75,743.168,435.75,739.168" style="stroke: #A80036; stroke-width: 1.0;"/><line style="stroke: #A80036; stroke-width: 1.5;" x1="93.75" x2="81.75" y1="739.168" y2="739.168"/><polygon fill="#A80036" points="77.75,838.3276,81.75,848.3276,85.75,838.3276,81.75,842.3276" style="stroke: #A80036; stroke-width: 1.5;"/><line style="stroke: #A80036; stroke-width: 1.5;" x1="81.75" x2="81.75" y1="739.168" y2="953.6831"/><line style="stroke: #A80036; stroke-width: 1.5;" x1="81.75" x2="261.75" y1="953.6831" y2="953.6831"/><line style="stroke: #A80036; stroke-width: 1.5;" x1="261.75" x2="261.75" y1="953.6831" y2="973.6831"/><polygon fill="#A80036" points="257.75,963.6831,261.75,973.6831,265.75,963.6831,261.75,967.6831" style="stroke: #A80036; stroke-width: 1.0;"/><line style="stroke: #A80036; stroke-width: 1.5;" x1="261.75" x2="261.75" y1="704.0195" y2="727.168"/><polygon fill="#A80036" points="257.75,717.168,261.75,727.168,265.75,717.168,261.75,721.168" style="stroke: #A80036; stroke-width: 1.0;"/><line style="stroke: #A80036; stroke-width: 1.5;" x1="229" x2="198" y1="1066.4878" y2="1066.4878"/><line style="stroke: #A80036; stroke-width: 1.5;" x1="198" x2="198" y1="1066.4878" y2="1088.4878"/><polygon fill="#A80036" points="194,1078.4878,198,1088.4878,202,1078.4878,198,1082.4878" style="stroke: #A80036; stroke-width: 1.0;"/><line style="stroke: #A80036; stroke-width: 1.5;" x1="363" x2="394" y1="1066.4878" y2="1066.4878"/><line style="stroke: #A80036; stroke-width: 1.5;" x1="394" x2="394" y1="1066.4878" y2="1088.4878"/><polygon fill="#A80036" points="390,1078.4878,394,1088.4878,398,1078.4878,394,1082.4878" style="stroke: #A80036; stroke-width: 1.0;"/><line style="stroke: #A80036; stroke-width: 1.5;" x1="198" x2="198" y1="1122.4565" y2="1140.4565"/><line style="stroke: #A80036; stroke-width: 1.5;" x1="198" x2="284" y1="1140.4565" y2="1140.4565"/><polygon fill="#A80036" points="274,1136.4565,284,1140.4565,274,1144.4565,278,1140.4565" style="stroke: #A80036; stroke-width: 1.0;"/><line style="stroke: #A80036; stroke-width: 1.5;" x1="394" x2="394" y1="1122.4565" y2="1140.4565"/><line style="stroke: #A80036; stroke-width: 1.5;" x1="394" x2="308" y1="1140.4565" y2="1140.4565"/><polygon fill="#A80036" points="318,1136.4565,308,1140.4565,318,1144.4565,314,1140.4565" style="stroke: #A80036; stroke-width: 1.0;"/><line style="stroke: #A80036; stroke-width: 1.5;" x1="680" x2="680" y1="1078.4878" y2="1115.2925"/><polygon fill="#A80036" points="676,1105.2925,680,1115.2925,684,1105.2925,680,1109.2925" style="stroke: #A80036; stroke-width: 1.0;"/><line style="stroke: #A80036; stroke-width: 1.5;" x1="680" x2="680" y1="1149.2612" y2="1161.2612"/><line style="stroke: #A80036; stroke-width: 1.5;" x1="680" x2="826.5" y1="1161.2612" y2="1161.2612"/><polygon fill="#A80036" points="822.5,1123.8745,826.5,1113.8745,830.5,1123.8745,826.5,1119.8745" style="stroke: #A80036; stroke-width: 1.5;"/><line style="stroke: #A80036; stroke-width: 1.5;" x1="826.5" x2="826.5" y1="1066.4878" y2="1161.2612"/><line style="stroke: #A80036; stroke-width: 1.5;" x1="826.5" x2="723" y1="1066.4878" y2="1066.4878"/><polygon fill="#A80036" points="733,1062.4878,723,1066.4878,733,1070.4878,729,1066.4878" style="stroke: #A80036; stroke-width: 1.0;"/><line style="stroke: #A80036; stroke-width: 1.5;" x1="637" x2="533.5" y1="1066.4878" y2="1066.4878"/><polygon fill="#A80036" points="529.5,1109.8745,533.5,1119.8745,537.5,1109.8745,533.5,1113.8745" style="stroke: #A80036; stroke-width: 1.5;"/><line style="stroke: #A80036; stroke-width: 1.5;" x1="533.5" x2="533.5" y1="1066.4878" y2="1173.2612"/><line style="stroke: #A80036; stroke-width: 1.5;" x1="533.5" x2="680" y1="1173.2612" y2="1173.2612"/><line style="stroke: #A80036; stroke-width: 1.5;" x1="680" x2="680" y1="1173.2612" y2="1193.2612"/><polygon fill="#A80036" points="676,1183.2612,680,1193.2612,684,1183.2612,680,1187.2612" style="stroke: #A80036; stroke-width: 1.0;"/><line style="stroke: #A80036; stroke-width: 1.5;" x1="311" x2="296" y1="1019.6831" y2="1019.6831"/><line style="stroke: #A80036; stroke-width: 1.5;" x1="296" x2="296" y1="1019.6831" y2="1054.4878"/><polygon fill="#A80036" points="292,1044.4878,296,1054.4878,300,1044.4878,296,1048.4878" style="stroke: #A80036; stroke-width: 1.0;"/><text fill="#000000" font-family="sans-serif" font-size="11" lengthAdjust="spacingAndGlyphs" textLength="20" x="296" y="1040.8936">yes</text><line style="stroke: #A80036; stroke-width: 1.5;" x1="665" x2="680" y1="1019.6831" y2="1019.6831"/><line style="stroke: #A80036; stroke-width: 1.5;" x1="680" x2="680" y1="1019.6831" y2="1054.4878"/><polygon fill="#A80036" points="676,1044.4878,680,1054.4878,684,1044.4878,680,1048.4878" style="stroke: #A80036; stroke-width: 1.0;"/><text fill="#000000" font-family="sans-serif" font-size="11" lengthAdjust="spacingAndGlyphs" textLength="14" x="680" y="1040.8936">no</text><line style="stroke: #A80036; stroke-width: 1.5;" x1="296" x2="296" y1="1152.4565" y2="1249.23"/><line style="stroke: #A80036; stroke-width: 1.5;" x1="296" x2="476" y1="1249.23" y2="1249.23"/><polygon fill="#A80036" points="466,1245.23,476,1249.23,466,1253.23,470,1249.23" style="stroke: #A80036; stroke-width: 1.0;"/><line style="stroke: #A80036; stroke-width: 1.5;" x1="680" x2="680" y1="1227.23" y2="1249.23"/><line style="stroke: #A80036; stroke-width: 1.5;" x1="680" x2="500" y1="1249.23" y2="1249.23"/><polygon fill="#A80036" points="510,1245.23,500,1249.23,510,1253.23,506,1249.23" style="stroke: #A80036; stroke-width: 1.0;"/><line style="stroke: #A80036; stroke-width: 1.5;" x1="202.25" x2="35.5" y1="985.6831" y2="985.6831"/><line style="stroke: #A80036; stroke-width: 1.5;" x1="35.5" x2="35.5" y1="985.6831" y2="1007.6831"/><polygon fill="#A80036" points="31.5,997.6831,35.5,1007.6831,39.5,997.6831,35.5,1001.6831" style="stroke: #A80036; stroke-width: 1.0;"/><line style="stroke: #A80036; stroke-width: 1.5;" x1="321.25" x2="488" y1="985.6831" y2="985.6831"/><line style="stroke: #A80036; stroke-width: 1.5;" x1="488" x2="488" y1="985.6831" y2="1007.6831"/><polygon fill="#A80036" points="484,997.6831,488,1007.6831,492,997.6831,488,1001.6831" style="stroke: #A80036; stroke-width: 1.0;"/><line style="stroke: #A80036; stroke-width: 1.5;" x1="35.5" x2="35.5" y1="1041.6519" y2="1279.23"/><line style="stroke: #A80036; stroke-width: 1.5;" x1="35.5" x2="249.75" y1="1279.23" y2="1279.23"/><polygon fill="#A80036" points="239.75,1275.23,249.75,1279.23,239.75,1283.23,243.75,1279.23" style="stroke: #A80036; stroke-width: 1.0;"/><line style="stroke: #A80036; stroke-width: 1.5;" x1="488" x2="488" y1="1261.23" y2="1279.23"/><line style="stroke: #A80036; stroke-width: 1.5;" x1="488" x2="273.75" y1="1279.23" y2="1279.23"/><polygon fill="#A80036" points="283.75,1275.23,273.75,1279.23,283.75,1283.23,279.75,1279.23" style="stroke: #A80036; stroke-width: 1.0;"/><line style="stroke: #A80036; stroke-width: 1.5;" x1="492.625" x2="261.75" y1="378.7422" y2="378.7422"/><line style="stroke: #A80036; stroke-width: 1.5;" x1="261.75" x2="261.75" y1="378.7422" y2="400.7422"/><polygon fill="#A80036" points="257.75,390.7422,261.75,400.7422,265.75,390.7422,261.75,394.7422" style="stroke: #A80036; stroke-width: 1.0;"/><line style="stroke: #A80036; stroke-width: 1.5;" x1="704.625" x2="935.5" y1="378.7422" y2="378.7422"/><line style="stroke: #A80036; stroke-width: 1.5;" x1="935.5" x2="935.5" y1="378.7422" y2="400.7422"/><polygon fill="#A80036" points="931.5,390.7422,935.5,400.7422,939.5,390.7422,935.5,394.7422" style="stroke: #A80036; stroke-width: 1.0;"/><line style="stroke: #A80036; stroke-width: 1.5;" x1="261.75" x2="261.75" y1="1291.23" y2="1309.23"/><line style="stroke: #A80036; stroke-width: 1.5;" x1="261.75" x2="586.625" y1="1309.23" y2="1309.23"/><polygon fill="#A80036" points="576.625,1305.23,586.625,1309.23,576.625,1313.23,580.625,1309.23" style="stroke: #A80036; stroke-width: 1.0;"/><line style="stroke: #A80036; stroke-width: 1.5;" x1="935.5" x2="935.5" y1="434.7109" y2="1309.23"/><line style="stroke: #A80036; stroke-width: 1.5;" x1="935.5" x2="610.625" y1="1309.23" y2="1309.23"/><polygon fill="#A80036" points="620.625,1305.23,610.625,1309.23,620.625,1313.23,616.625,1309.23" style="stroke: #A80036; stroke-width: 1.0;"/><line style="stroke: #A80036; stroke-width: 1.5;" x1="741.8125" x2="598.625" y1="344.7422" y2="344.7422"/><line style="stroke: #A80036; stroke-width: 1.5;" x1="598.625" x2="598.625" y1="344.7422" y2="366.7422"/><polygon fill="#A80036" points="594.625,356.7422,598.625,366.7422,602.625,356.7422,598.625,360.7422" style="stroke: #A80036; stroke-width: 1.0;"/><line style="stroke: #A80036; stroke-width: 1.5;" x1="939.8125" x2="1083" y1="344.7422" y2="344.7422"/><line style="stroke: #A80036; stroke-width: 1.5;" x1="1083" x2="1083" y1="344.7422" y2="366.7422"/><polygon fill="#A80036" points="1079,356.7422,1083,366.7422,1087,356.7422,1083,360.7422" style="stroke: #A80036; stroke-width: 1.0;"/><line style="stroke: #A80036; stroke-width: 1.5;" x1="598.625" x2="598.625" y1="1321.23" y2="1339.23"/><line style="stroke: #A80036; stroke-width: 1.5;" x1="598.625" x2="828.8125" y1="1339.23" y2="1339.23"/><polygon fill="#A80036" points="818.8125,1335.23,828.8125,1339.23,818.8125,1343.23,822.8125,1339.23" style="stroke: #A80036; stroke-width: 1.0;"/><line style="stroke: #A80036; stroke-width: 1.5;" x1="1083" x2="1083" y1="400.7109" y2="1339.23"/><line style="stroke: #A80036; stroke-width: 1.5;" x1="1083" x2="852.8125" y1="1339.23" y2="1339.23"/><polygon fill="#A80036" points="862.8125,1335.23,852.8125,1339.23,862.8125,1343.23,858.8125,1339.23" style="stroke: #A80036; stroke-width: 1.0;"/><line style="stroke: #A80036; stroke-width: 1.5;" x1="840.8125" x2="840.8125" y1="312.7422" y2="332.7422"/><polygon fill="#A80036" points="836.8125,322.7422,840.8125,332.7422,844.8125,322.7422,840.8125,326.7422" style="stroke: #A80036; stroke-width: 1.0;"/><line style="stroke: #A80036; stroke-width: 1.5;" x1="1274.5" x2="1274.5" y1="356.7422" y2="381.1445"/><polygon fill="#A80036" points="1270.5,371.1445,1274.5,381.1445,1278.5,371.1445,1274.5,375.1445" style="stroke: #A80036; stroke-width: 1.0;"/><line style="stroke: #A80036; stroke-width: 1.5;" x1="1383.5" x2="1395.5" y1="344.7422" y2="344.7422"/><polygon fill="#A80036" points="1391.5,388.1289,1395.5,398.1289,1399.5,388.1289,1395.5,392.1289" style="stroke: #A80036; stroke-width: 1.5;"/><line style="stroke: #A80036; stroke-width: 1.5;" x1="1395.5" x2="1395.5" y1="344.7422" y2="451.5156"/><line style="stroke: #A80036; stroke-width: 1.5;" x1="1395.5" x2="1286.5" y1="451.5156" y2="451.5156"/><polygon fill="#A80036" points="1296.5,447.5156,1286.5,451.5156,1296.5,455.5156,1292.5,451.5156" style="stroke: #A80036; stroke-width: 1.0;"/><line style="stroke: #A80036; stroke-width: 1.5;" x1="1274.5" x2="1274.5" y1="415.1133" y2="439.5156"/><polygon fill="#A80036" points="1270.5,429.5156,1274.5,439.5156,1278.5,429.5156,1274.5,433.5156" style="stroke: #A80036; stroke-width: 1.0;"/><line style="stroke: #A80036; stroke-width: 1.5;" x1="1274.5" x2="1274.5" y1="312.7422" y2="332.7422"/><polygon fill="#A80036" points="1270.5,322.7422,1274.5,332.7422,1278.5,322.7422,1274.5,326.7422" style="stroke: #A80036; stroke-width: 1.0;"/><line style="stroke: #A80036; stroke-width: 1.5;" x1="981.1563" x2="840.8125" y1="256.7734" y2="256.7734"/><line style="stroke: #A80036; stroke-width: 1.5;" x1="840.8125" x2="840.8125" y1="256.7734" y2="278.7734"/><polygon fill="#A80036" points="836.8125,268.7734,840.8125,278.7734,844.8125,268.7734,840.8125,272.7734" style="stroke: #A80036; stroke-width: 1.0;"/><line style="stroke: #A80036; stroke-width: 1.5;" x1="1134.1563" x2="1274.5" y1="256.7734" y2="256.7734"/><line style="stroke: #A80036; stroke-width: 1.5;" x1="1274.5" x2="1274.5" y1="256.7734" y2="278.7734"/><polygon fill="#A80036" points="1270.5,268.7734,1274.5,278.7734,1278.5,268.7734,1274.5,272.7734" style="stroke: #A80036; stroke-width: 1.0;"/><line style="stroke: #A80036; stroke-width: 1.5;" x1="840.8125" x2="840.8125" y1="1351.23" y2="1369.23"/><line style="stroke: #A80036; stroke-width: 1.5;" x1="840.8125" x2="1045.6563" y1="1369.23" y2="1369.23"/><polygon fill="#A80036" points="1035.6563,1365.23,1045.6563,1369.23,1035.6563,1373.23,1039.6563,1369.23" style="stroke: #A80036; stroke-width: 1.0;"/><line style="stroke: #A80036; stroke-width: 1.5;" x1="1274.5" x2="1274.5" y1="463.5156" y2="1369.23"/><line style="stroke: #A80036; stroke-width: 1.5;" x1="1274.5" x2="1069.6563" y1="1369.23" y2="1369.23"/><polygon fill="#A80036" points="1079.6563,1365.23,1069.6563,1369.23,1079.6563,1373.23,1075.6563,1369.23" style="stroke: #A80036; stroke-width: 1.0;"/><line style="stroke: #A80036; stroke-width: 1.5;" x1="1057.6563" x2="1057.6563" y1="224.7734" y2="244.7734"/><polygon fill="#A80036" points="1053.6563,234.7734,1057.6563,244.7734,1061.6563,234.7734,1057.6563,238.7734" style="stroke: #A80036; stroke-width: 1.0;"/><line style="stroke: #A80036; stroke-width: 1.5;" x1="1057.6563" x2="1057.6563" y1="166.4023" y2="190.8047"/><polygon fill="#A80036" points="1053.6563,180.8047,1057.6563,190.8047,1061.6563,180.8047,1057.6563,184.8047" style="stroke: #A80036; stroke-width: 1.0;"/><line style="stroke: #A80036; stroke-width: 1.5;" x1="1116.6563" x2="1413.5" y1="154.4023" y2="154.4023"/><polygon fill="#A80036" points="1409.5,809.7456,1413.5,819.7456,1417.5,809.7456,1413.5,813.7456" style="stroke: #A80036; stroke-width: 1.5;"/><line style="stroke: #A80036; stroke-width: 1.5;" x1="1413.5" x2="1413.5" y1="154.4023" y2="1413.23"/><line style="stroke: #A80036; stroke-width: 1.5;" x1="1413.5" x2="1069.6563" y1="1413.23" y2="1413.23"/><polygon fill="#A80036" points="1079.6563,1409.23,1069.6563,1413.23,1079.6563,1417.23,1075.6563,1413.23" style="stroke: #A80036; stroke-width: 1.0;"/><line style="stroke: #A80036; stroke-width: 1.5;" x1="1057.6563" x2="1057.6563" y1="1381.23" y2="1401.23"/><polygon fill="#A80036" points="1053.6563,1391.23,1057.6563,1401.23,1061.6563,1391.23,1057.6563,1395.23" style="stroke: #A80036; stroke-width: 1.0;"/><line style="stroke: #A80036; stroke-width: 1.5;" x1="1057.6563" x2="1057.6563" y1="118" y2="142.4023"/><polygon fill="#A80036" points="1053.6563,132.4023,1057.6563,142.4023,1061.6563,132.4023,1057.6563,136.4023" style="stroke: #A80036; stroke-width: 1.0;"/><line style="stroke: #A80036; stroke-width: 1.5;" x1="1122.1563" x2="1431.5" y1="106" y2="106"/><polygon fill="#A80036" points="1427.5,809.7456,1431.5,819.7456,1435.5,809.7456,1431.5,813.7456" style="stroke: #A80036; stroke-width: 1.5;"/><line style="stroke: #A80036; stroke-width: 1.5;" x1="1431.5" x2="1431.5" y1="106" y2="1457.23"/><line style="stroke: #A80036; stroke-width: 1.5;" x1="1431.5" x2="1069.6563" y1="1457.23" y2="1457.23"/><polygon fill="#A80036" points="1079.6563,1453.23,1069.6563,1457.23,1079.6563,1461.23,1075.6563,1457.23" style="stroke: #A80036; stroke-width: 1.0;"/><line style="stroke: #A80036; stroke-width: 1.5;" x1="1057.6563" x2="1057.6563" y1="1425.23" y2="1445.23"/><polygon fill="#A80036" points="1053.6563,1435.23,1057.6563,1445.23,1061.6563,1435.23,1057.6563,1439.23" style="stroke: #A80036; stroke-width: 1.0;"/><line style="stroke: #A80036; stroke-width: 1.5;" x1="1057.6563" x2="1057.6563" y1="74" y2="94"/><polygon fill="#A80036" points="1053.6563,84,1057.6563,94,1061.6563,84,1057.6563,88" style="stroke: #A80036; stroke-width: 1.0;"/><line style="stroke: #A80036; stroke-width: 1.5;" x1="1057.6563" x2="1057.6563" y1="1469.23" y2="1517.23"/><line style="stroke: #A80036; stroke-width: 1.5;" x1="1057.6563" x2="1449.5" y1="1517.23" y2="1517.23"/><polygon fill="#A80036" points="1445.5,823.7456,1449.5,813.7456,1453.5,823.7456,1449.5,819.7456" style="stroke: #A80036; stroke-width: 1.5;"/><line style="stroke: #A80036; stroke-width: 1.5;" x1="1449.5" x2="1449.5" y1="62" y2="1517.23"/><line style="stroke: #A80036; stroke-width: 1.5;" x1="1449.5" x2="1069.6563" y1="62" y2="62"/><polygon fill="#A80036" points="1079.6563,58,1069.6563,62,1079.6563,66,1075.6563,62" style="stroke: #A80036; stroke-width: 1.0;"/><line style="stroke: #A80036; stroke-width: 1.5;" x1="1057.6563" x2="1057.6563" y1="30" y2="50"/><polygon fill="#A80036" points="1053.6563,40,1057.6563,50,1061.6563,40,1057.6563,44" style="stroke: #A80036; stroke-width: 1.0;"/><!--MD5=[cb657cc74ee7465e7b332a6aa0a6e4ac]
@startuml technical-workflow
start
repeat
if (incoming request?) then (yes)
    if (request is valid?) then (yes)
        :fetch properties from the MergeRequestEvent object;
        if (merge-request action?) then (MERGE)
            :try to read nextMainBranch from configuration file;
            if (nextMainBranch is configured?) then (yes)
                if (nextMainBranch exists remotely?) then (yes)
                    :create new branch from targetBranch;
                    :create new MR from the new branch into the nextMainBranch;
                    if (apiTokenApprover is set?) then (yes)
                        :approve the just created MR as that user (apiTokenApprover);
                    else (no)
                    endif
                    #SkyBlue:initialize countDown to 100;
                    note right 
                        Timeout to avoid the possibility
                        of getting stuck in the loop forever
                    end note
                    while(MRStatus == unchecked|checking and countdown > 0?) is (yes)
                        #SkyBlue:decrement countDown by 1;
                        :sleep 100ms;
                        note right: Wait for Gitlab to prepare MR
                        :update MRStatus from Gitlab;
                    endwhile (no)
                    if (countDown == 0) then (yes) 
                        :error;
                    else (no)
                        switch(Is MRStatus == mergeable|ci_still_running|ci_must_pass?)
                        case (yes)
                            if (MR has pipeline(s)?) then (yes)
                                :merge when pipeline succeeds;
                            else (no)
                                :merge immediately;
                            endif
                        case (no)
                            while(MR merger) is (ucascade user)
                                :get user that merged the preceding MR;
                            endwhile (not the ucascade user)
                            :update MR to set its assignee to the MR merger;
                        endswitch
                    endif
                else (no)
                    #red:discard with error;
                endif
                else (no)
                    :nothing to do;
            endif
        else (CLOSE)
            :delete MR source branch;
            if (concurrent open auto MR(s) exist?) then (yes)
                :merge oldest concurrent MR;
            endif
        endif
    endif
endif
repeat while
@enduml

PlantUML version 1.2020.06(Sun Apr 05 12:38:32 GMT 2020)
(APACHE source distribution)
Java Runtime: OpenJDK Runtime Environment
JVM: OpenJDK 64-Bit Server VM
Java Version: 11.0.18+10
Operating System: Linux
Default Encoding: UTF-8
Language: en
Country: US
--></g></svg>